<svg width="181" height="29" viewBox="0 0 181 29" fill="none" xmlns="http://www.w3.org/2000/svg">
<path d="M6.39991 18.99L3.6341 13.4584L1 18.99L3.6341 24.6533L6.39991 18.99Z" fill="#D0F224" stroke="#D0F224"/>
<path d="M17.8583 19.1217L9.42914 2L6.66333 7.66332L15.2242 24.6533L17.8583 19.1217Z" fill="#D0F224" stroke="#D0F224"/>
<path d="M29.3165 19.1217L20.8874 2L18.1216 7.66332L26.6824 24.6533L29.3165 19.1217Z" fill="#D0F224" stroke="#D0F224"/>
<path d="M37.2393 23.0728V3.42242H37.2656L47.2488 17.5939L46.1689 17.3832L56.1258 3.42242H56.1785V23.0728H53.6497V9.21745L53.8078 10.5082L46.6167 20.6758H46.564L39.2675 10.5082L39.7153 9.32281V23.0728H37.2393Z" fill="white"/>
<path d="M65.5758 23.3362C64.5573 23.3362 63.6266 23.1167 62.7837 22.6777C61.9583 22.2387 61.2998 21.5977 60.8081 20.7548C60.334 19.8943 60.0969 18.8495 60.0969 17.6202C60.0969 16.4085 60.3515 15.3637 60.8608 14.4857C61.37 13.5901 62.0461 12.9052 62.889 12.4311C63.7495 11.9569 64.689 11.7198 65.7075 11.7198C66.726 11.7198 67.5865 11.9569 68.2889 12.4311C68.9914 12.8876 69.527 13.432 69.8957 14.0642L69.7377 14.4857L69.9748 12.1676H72.2401V23.0728H69.7904V20.228L70.0538 20.8602C69.9835 21.0358 69.8255 21.2641 69.5797 21.545C69.3514 21.8085 69.0353 22.0806 68.6314 22.3616C68.245 22.6426 67.7972 22.8797 67.288 23.0728C66.7787 23.2484 66.208 23.3362 65.5758 23.3362ZM66.2343 21.308C66.849 21.308 67.4021 21.1938 67.8938 20.9655C68.3855 20.7373 68.7894 20.4212 69.1055 20.0173C69.4392 19.5958 69.6675 19.0953 69.7904 18.5158V16.3822C69.6499 15.8554 69.404 15.3988 69.0528 15.0125C68.7016 14.6086 68.2802 14.3013 67.7885 14.0905C67.2968 13.8622 66.7524 13.7481 66.1553 13.7481C65.5056 13.7481 64.9085 13.9062 64.3641 14.2222C63.8197 14.5383 63.3807 14.9774 63.0471 15.5393C62.731 16.1012 62.5729 16.7598 62.5729 17.5149C62.5729 18.2173 62.7398 18.8583 63.0734 19.4378C63.4071 20.0173 63.8549 20.4738 64.4168 20.8075C64.9788 21.1411 65.5846 21.308 66.2343 21.308Z" fill="white"/>
<path d="M78.6657 12.1676L78.8764 14.8281L78.771 14.4066C79.1222 13.5988 79.693 12.9579 80.4832 12.4837C81.2734 11.992 82.1866 11.7462 83.2227 11.7462C84.2587 11.7462 85.1017 12.0535 85.7514 12.6681C86.4187 13.2652 86.7611 14.0466 86.7787 15.0125V23.0728H84.3026V15.8817C84.2851 15.2847 84.1095 14.8017 83.7758 14.433C83.4597 14.0466 82.9592 13.8535 82.2744 13.8535C81.6422 13.8535 81.0715 14.0291 80.5622 14.3803C80.053 14.7315 79.6491 15.2144 79.3505 15.829C79.0696 16.4437 78.9291 17.1549 78.9291 17.9627V23.0728H76.4794V12.1676H78.6657Z" fill="white"/>
<path d="M92.0926 7.37358H94.5423V12.2203H97.5452V14.1432H94.5423V23.0728H92.0926V14.1432H90.0907V12.2203H92.0926V7.37358Z" fill="white"/>
<path d="M100.505 2.68488H102.955V23.0728H100.505V2.68488Z" fill="white"/>
<path d="M112.251 23.3362C111.004 23.3362 109.933 23.0904 109.037 22.5987C108.142 22.0894 107.448 21.4046 106.956 20.5441C106.482 19.6661 106.245 18.6651 106.245 17.5412C106.245 16.47 106.517 15.4954 107.062 14.6174C107.606 13.7393 108.335 13.0369 109.248 12.5101C110.161 11.9833 111.18 11.7198 112.304 11.7198C113.744 11.7198 114.938 12.1413 115.886 12.9842C116.834 13.8271 117.475 14.9861 117.809 16.4612L108.827 19.6222L108.247 18.1734L115.623 15.4866L115.096 15.829C114.885 15.2495 114.534 14.7491 114.042 14.3276C113.55 13.8886 112.909 13.6691 112.119 13.6691C111.452 13.6691 110.855 13.8359 110.328 14.1696C109.801 14.4857 109.388 14.9247 109.09 15.4866C108.791 16.0486 108.642 16.6895 108.642 17.4095C108.642 18.1646 108.8 18.8319 109.116 19.4114C109.432 19.9734 109.863 20.4212 110.407 20.7548C110.969 21.0709 111.601 21.229 112.304 21.229C112.778 21.229 113.234 21.1411 113.673 20.9655C114.13 20.7899 114.551 20.5616 114.938 20.2807L116.07 22.0982C115.526 22.467 114.911 22.7655 114.226 22.9938C113.559 23.2221 112.901 23.3362 112.251 23.3362Z" fill="white"/>
<path d="M131.336 7.42626C130.686 7.09261 129.975 6.80285 129.202 6.55701C128.429 6.31116 127.674 6.18823 126.937 6.18823C125.918 6.18823 125.102 6.4253 124.487 6.89944C123.89 7.37358 123.592 8.00576 123.592 8.79599C123.592 9.39306 123.785 9.90232 124.171 10.3238C124.557 10.7277 125.067 11.0789 125.699 11.3774C126.331 11.6759 126.989 11.9569 127.674 12.2203C128.271 12.4486 128.86 12.7032 129.439 12.9842C130.019 13.2652 130.537 13.6164 130.993 14.0379C131.467 14.4593 131.836 14.9774 132.1 15.592C132.381 16.2066 132.521 16.9705 132.521 17.8836C132.521 18.8846 132.266 19.7978 131.757 20.6231C131.266 21.4485 130.554 22.0982 129.624 22.5723C128.693 23.0465 127.587 23.2836 126.305 23.2836C125.462 23.2836 124.654 23.187 123.881 22.9938C123.126 22.8006 122.424 22.5548 121.774 22.2563C121.124 21.9402 120.545 21.6153 120.035 21.2816L121.168 19.2797C121.59 19.5782 122.073 19.868 122.617 20.149C123.161 20.4124 123.732 20.6319 124.329 20.8075C124.926 20.9655 125.506 21.0446 126.068 21.0446C126.665 21.0446 127.253 20.9392 127.832 20.7285C128.429 20.5002 128.921 20.1578 129.308 19.7012C129.694 19.2446 129.887 18.6388 129.887 17.8836C129.887 17.2339 129.711 16.6983 129.36 16.2768C129.027 15.8378 128.579 15.4691 128.017 15.1705C127.455 14.8544 126.858 14.5735 126.226 14.3276C125.629 14.0993 125.023 13.8535 124.408 13.5901C123.793 13.3091 123.223 12.9754 122.696 12.5891C122.169 12.1852 121.748 11.6935 121.432 11.114C121.115 10.5345 120.957 9.83207 120.957 9.00672C120.957 8.00576 121.194 7.13651 121.669 6.39896C122.16 5.64385 122.828 5.05557 123.671 4.63411C124.513 4.19509 125.479 3.95802 126.568 3.9229C127.797 3.9229 128.877 4.07217 129.808 4.3707C130.756 4.66923 131.59 5.03801 132.31 5.47702L131.336 7.42626Z" fill="white"/>
<path d="M142.856 12.1676L146.069 19.5168L145.595 19.5695L148.598 12.1676H150.995L145.99 23.7313L142.487 16.2505L139.3 23.7313L134.242 12.1676H136.639L140.037 19.8592L139.194 19.7012L141.618 14.0642L140.748 12.1676H142.856Z" fill="white"/>
<path d="M157.795 23.3362C156.777 23.3362 155.846 23.1167 155.003 22.6777C154.178 22.2387 153.519 21.5977 153.027 20.7548C152.553 19.8943 152.316 18.8495 152.316 17.6202C152.316 16.4085 152.571 15.3637 153.08 14.4857C153.589 13.5901 154.265 12.9052 155.108 12.4311C155.969 11.9569 156.908 11.7198 157.927 11.7198C158.945 11.7198 159.806 11.9569 160.508 12.4311C161.211 12.8876 161.746 13.432 162.115 14.0642L161.957 14.4857L162.194 12.1676H164.459V23.0728H162.01V20.228L162.273 20.8602C162.203 21.0358 162.045 21.2641 161.799 21.545C161.571 21.8085 161.255 22.0806 160.851 22.3616C160.464 22.6426 160.017 22.8797 159.507 23.0728C158.998 23.2484 158.427 23.3362 157.795 23.3362ZM158.454 21.308C159.068 21.308 159.621 21.1938 160.113 20.9655C160.605 20.7373 161.009 20.4212 161.325 20.0173C161.658 19.5958 161.887 19.0953 162.01 18.5158V16.3822C161.869 15.8554 161.623 15.3988 161.272 15.0125C160.921 14.6086 160.499 14.3013 160.008 14.0905C159.516 13.8622 158.972 13.7481 158.375 13.7481C157.725 13.7481 157.128 13.9062 156.583 14.2222C156.039 14.5383 155.6 14.9774 155.266 15.5393C154.95 16.1012 154.792 16.7598 154.792 17.5149C154.792 18.2173 154.959 18.8583 155.293 19.4378C155.626 20.0173 156.074 20.4738 156.636 20.8075C157.198 21.1411 157.804 21.308 158.454 21.308Z" fill="white"/>
<path d="M175.126 23.3362C174.301 23.3362 173.501 23.1431 172.729 22.7567C171.974 22.3704 171.385 21.8524 170.964 21.2026L171.122 20.4387V28.3147H168.699V12.0096H170.806L171.148 14.8017L170.885 14.0379C171.412 13.3705 172.079 12.8174 172.887 12.3784C173.695 11.9394 174.599 11.7198 175.6 11.7198C176.619 11.7198 177.532 11.9657 178.339 12.4574C179.165 12.9491 179.815 13.634 180.289 14.512C180.763 15.39 181 16.4173 181 17.5939C181 18.7705 180.745 19.789 180.236 20.6495C179.727 21.5099 179.024 22.1772 178.129 22.6514C177.251 23.1079 176.25 23.3362 175.126 23.3362ZM174.652 21.387C175.354 21.387 175.995 21.229 176.575 20.9129C177.172 20.5792 177.646 20.1314 177.997 19.5695C178.348 18.99 178.524 18.3402 178.524 17.6202C178.524 16.8827 178.357 16.2329 178.023 15.671C177.69 15.0915 177.242 14.6349 176.68 14.3013C176.136 13.9676 175.521 13.8008 174.836 13.8008C174.204 13.8008 173.633 13.9237 173.124 14.1696C172.615 14.4154 172.193 14.7578 171.86 15.1969C171.526 15.6183 171.289 16.11 171.148 16.672V18.4895C171.236 19.0514 171.447 19.5519 171.781 19.9909C172.114 20.4299 172.527 20.7724 173.019 21.0182C173.528 21.2641 174.072 21.387 174.652 21.387Z" fill="white"/>
</svg>
