<?xml version="1.0" encoding="UTF-8"?>
<svg xmlns="http://www.w3.org/2000/svg" xmlns:xlink="http://www.w3.org/1999/xlink" width="350px" height="100px" viewBox="0 0 350 100" version="1.1">
<defs>
<clipPath id="clip1">
  <path d="M 149.84375 4.375 L 193.59375 4.375 L 193.59375 99.121094 L 149.84375 99.121094 Z M 149.84375 4.375 "/>
</clipPath>
<clipPath id="clip2">
  <path d="M 234.609375 4.375 L 300.78125 4.375 L 300.78125 99.121094 L 234.609375 99.121094 Z M 234.609375 4.375 "/>
</clipPath>
<clipPath id="clip3">
  <path d="M 304.609375 4.375 L 348.871094 4.375 L 348.871094 99.121094 L 304.609375 99.121094 Z M 304.609375 4.375 "/>
</clipPath>
<clipPath id="clip4">
  <path d="M 79 4.5 L 145 4.5 L 145 99.0625 L 79 99.0625 Z M 79 4.5 "/>
</clipPath>
<clipPath id="clip5">
  <path d="M 0 4.625 L 67.8125 4.625 L 67.8125 99.121094 L 0 99.121094 Z M 0 4.625 "/>
</clipPath>
<clipPath id="clip6">
  <path d="M 28 84.5 L 51.953125 84.5 L 51.953125 99.121094 L 28 99.121094 Z M 28 84.5 "/>
</clipPath>
</defs>
<g id="surface1">
<g clip-path="url(#clip1)" clip-rule="nonzero">
<path style=" stroke:none;fill-rule:nonzero;fill:rgb(100%,100%,100%);fill-opacity:1;" d="M 192.652344 22.632812 C 193.121094 21.035156 193.359375 19.339844 193.355469 17.632812 C 193.355469 13.824219 192.367188 10.671875 190.386719 8.171875 C 188.40625 5.671875 185.929688 4.417969 182.964844 4.414062 C 173.6875 4.414062 165.859375 8.503906 159.484375 16.679688 C 153.105469 24.855469 149.914062 34.882812 149.910156 46.765625 C 149.910156 48.4375 149.988281 50.105469 150.144531 51.765625 C 149.988281 53.429688 149.910156 55.097656 149.910156 56.769531 C 149.910156 68.65625 153.101562 78.683594 159.484375 86.855469 C 165.863281 95.027344 173.691406 99.117188 182.964844 99.121094 C 185.929688 99.121094 188.40625 97.867188 190.386719 95.363281 C 192.367188 92.859375 193.355469 89.707031 193.355469 85.90625 C 193.359375 84.195312 193.121094 82.5 192.652344 80.902344 C 193.121094 79.300781 193.359375 77.605469 193.355469 75.894531 C 193.355469 71.890625 192.285156 68.621094 190.144531 66.085938 C 192.285156 63.550781 193.355469 60.28125 193.355469 56.273438 C 193.359375 54.5625 193.121094 52.867188 192.652344 51.265625 C 193.121094 49.667969 193.359375 47.96875 193.355469 46.261719 C 193.355469 42.59375 192.417969 39.488281 190.542969 36.953125 C 192.414062 34.414062 193.351562 31.3125 193.355469 27.640625 C 193.359375 25.929688 193.121094 24.234375 192.652344 22.632812 Z M 188.609375 24.875 C 187.144531 26.75 185.195312 27.738281 182.957031 27.738281 C 180.5 27.734375 178.078125 28.507812 175.914062 29.992188 C 173.742188 31.476562 171.898438 33.628906 170.539062 36.25 L 182.957031 36.25 C 185.167969 36.25 187.113281 37.214844 188.578125 39.039062 C 190.058594 40.890625 190.84375 43.386719 190.84375 46.257812 C 190.84375 49.128906 190.070312 51.625 188.601562 53.5 C 187.136719 55.375 185.1875 56.367188 182.949219 56.367188 L 170.109375 56.367188 C 171.113281 58.566406 172.457031 60.480469 174.058594 61.988281 C 176.609375 64.492188 179.742188 65.828125 182.949219 65.78125 C 185.179688 65.78125 187.132812 66.777344 188.601562 68.652344 C 190.074219 70.53125 190.84375 73.03125 190.84375 75.894531 C 190.84375 78.761719 190.058594 81.269531 188.578125 83.117188 C 187.101562 84.96875 185.207031 85.90625 182.957031 85.90625 C 174.417969 85.90625 167.113281 82.09375 161.25 74.578125 C 155.386719 67.066406 152.40625 57.703125 152.40625 46.765625 C 152.40625 35.828125 155.382812 26.472656 161.25 18.953125 C 167.117188 11.4375 174.414062 7.625 182.957031 7.625 C 185.207031 7.625 187.097656 8.566406 188.578125 10.417969 C 190.066406 12.269531 190.84375 14.761719 190.84375 17.636719 C 190.84375 20.511719 190.078125 23 188.609375 24.875 Z M 188.609375 24.875 "/>
</g>
<path style=" stroke:none;fill-rule:nonzero;fill:rgb(87.45098%,31.372549%,31.764706%);fill-opacity:1;" d="M 182.964844 56.371094 L 170.121094 56.371094 C 171.125 58.570312 172.46875 60.480469 174.074219 61.988281 C 176.625 64.492188 179.753906 65.828125 182.964844 65.785156 C 185.195312 65.785156 187.148438 66.777344 188.617188 68.65625 C 190.089844 70.53125 190.855469 73.03125 190.855469 75.894531 C 190.855469 78.761719 190.074219 81.269531 188.59375 83.117188 C 187.113281 84.96875 185.21875 85.90625 182.96875 85.90625 C 174.429688 85.90625 167.128906 82.09375 161.265625 74.582031 C 155.398438 67.066406 152.417969 57.703125 152.417969 46.765625 C 152.417969 35.828125 155.394531 26.472656 161.265625 18.953125 C 167.128906 11.441406 174.425781 7.625 182.96875 7.625 C 185.21875 7.625 187.109375 8.566406 188.59375 10.417969 C 190.078125 12.269531 190.855469 14.761719 190.855469 17.636719 C 190.855469 20.511719 190.082031 23.003906 188.613281 24.878906 C 187.148438 26.75 185.199219 27.746094 182.960938 27.746094 C 180.503906 27.738281 178.085938 28.511719 175.917969 29.996094 C 173.75 31.484375 171.90625 33.632812 170.542969 36.257812 L 182.960938 36.257812 C 185.171875 36.257812 187.117188 37.222656 188.585938 39.042969 C 190.066406 40.894531 190.851562 43.390625 190.851562 46.261719 C 190.851562 49.132812 190.074219 51.628906 188.609375 53.503906 C 187.144531 55.378906 185.195312 56.371094 182.964844 56.371094 Z M 182.964844 56.371094 "/>
<path style=" stroke:none;fill-rule:nonzero;fill:rgb(100%,100%,100%);fill-opacity:1;" d="M 233.335938 75.695312 C 233.335938 71.890625 232.359375 68.71875 230.402344 66.179688 C 228.449219 63.644531 225.984375 62.378906 223.019531 62.378906 L 219.582031 62.378906 C 218.746094 62.378906 218.332031 61.847656 218.332031 60.777344 L 218.332031 17.632812 C 218.332031 13.824219 217.34375 10.671875 215.363281 8.171875 C 213.382812 5.671875 210.910156 4.417969 207.9375 4.414062 C 204.96875 4.414062 202.507812 5.667969 200.554688 8.171875 C 198.601562 10.671875 197.625 13.828125 197.625 17.632812 L 197.625 70.789062 C 197.625 78.730469 199.734375 85.40625 203.953125 90.808594 C 208.171875 96.214844 213.382812 98.917969 219.582031 98.917969 L 223.019531 98.917969 C 225.984375 98.917969 228.449219 97.667969 230.402344 95.167969 C 232.359375 92.664062 233.335938 89.511719 233.335938 85.707031 C 233.339844 83.996094 233.097656 82.300781 232.628906 80.699219 C 233.109375 79.101562 233.34375 77.40625 233.335938 75.695312 Z M 228.628906 82.882812 C 227.167969 84.753906 225.285156 85.699219 223.019531 85.699219 L 219.582031 85.699219 C 214.050781 85.699219 209.375 83.304688 205.679688 78.582031 C 201.984375 73.855469 200.121094 67.863281 200.121094 60.769531 L 200.121094 17.632812 C 200.121094 14.734375 200.863281 12.3125 202.324219 10.441406 C 203.757812 8.601562 205.699219 7.621094 207.933594 7.621094 C 210.167969 7.621094 212.074219 8.5625 213.558594 10.414062 C 215.039062 12.265625 215.820312 14.757812 215.820312 17.632812 L 215.820312 60.777344 C 215.820312 62.171875 216.164062 63.257812 216.902344 64.195312 C 217.636719 65.136719 218.488281 65.582031 219.574219 65.582031 L 223.011719 65.582031 C 225.25 65.582031 227.199219 66.589844 228.648438 68.484375 C 230.089844 70.378906 230.824219 72.8125 230.824219 75.691406 C 230.824219 78.578125 230.070312 81.03125 228.628906 82.882812 Z M 228.628906 82.882812 "/>
<path style=" stroke:none;fill-rule:nonzero;fill:rgb(87.45098%,31.372549%,31.764706%);fill-opacity:1;" d="M 230.824219 75.691406 C 230.824219 78.550781 230.058594 81.039062 228.621094 82.882812 C 227.183594 84.730469 225.277344 85.699219 223.011719 85.699219 L 219.574219 85.699219 C 214.042969 85.699219 209.371094 83.304688 205.671875 78.582031 C 201.976562 73.859375 200.113281 67.863281 200.113281 60.769531 L 200.113281 17.632812 C 200.113281 14.734375 200.851562 12.3125 202.3125 10.441406 C 203.75 8.601562 205.6875 7.621094 207.921875 7.621094 C 210.15625 7.621094 212.066406 8.5625 213.546875 10.414062 C 215.03125 12.265625 215.816406 14.757812 215.816406 17.632812 L 215.816406 60.777344 C 215.816406 62.171875 216.15625 63.257812 216.890625 64.195312 C 217.628906 65.136719 218.476562 65.582031 219.566406 65.582031 L 223.003906 65.582031 C 225.242188 65.582031 227.191406 66.589844 228.636719 68.484375 C 230.082031 70.378906 230.824219 72.8125 230.824219 75.691406 Z M 230.824219 75.691406 "/>
<g clip-path="url(#clip2)" clip-rule="nonzero">
<path style=" stroke:none;fill-rule:nonzero;fill:rgb(100%,100%,100%);fill-opacity:1;" d="M 278.289062 33.179688 C 275.433594 29.519531 271.96875 27.738281 267.6875 27.738281 C 263.410156 27.738281 259.9375 29.5 257.082031 33.136719 C 254.222656 36.773438 252.84375 41.21875 252.84375 46.761719 C 252.84375 52.242188 254.242188 56.679688 257.117188 60.335938 C 259.996094 63.992188 263.453125 65.785156 267.6875 65.785156 C 271.964844 65.785156 275.433594 64.003906 278.285156 60.34375 C 281.136719 56.683594 282.535156 52.242188 282.535156 46.761719 C 282.535156 41.277344 281.148438 36.839844 278.289062 33.179688 Z M 275.113281 59.578125 C 272.972656 61.582031 270.5 62.582031 267.6875 62.582031 C 264.882812 62.578125 262.421875 61.578125 260.308594 59.578125 C 258.242188 57.648438 256.71875 54.90625 255.972656 51.765625 C 256.652344 48.589844 258.167969 45.8125 260.269531 43.910156 C 262.410156 41.941406 264.882812 40.957031 267.691406 40.957031 C 271.179688 40.957031 274.125 42.457031 276.523438 45.460938 C 277.871094 47.210938 278.886719 49.332031 279.492188 51.664062 C 278.753906 54.851562 277.214844 57.636719 275.113281 59.578125 Z M 278.289062 33.179688 C 275.433594 29.519531 271.96875 27.738281 267.6875 27.738281 C 263.410156 27.738281 259.9375 29.5 257.082031 33.136719 C 254.222656 36.773438 252.84375 41.21875 252.84375 46.761719 C 252.84375 52.242188 254.242188 56.679688 257.117188 60.335938 C 259.996094 63.992188 263.453125 65.785156 267.6875 65.785156 C 271.964844 65.785156 275.433594 64.003906 278.285156 60.34375 C 281.136719 56.683594 282.535156 52.242188 282.535156 46.761719 C 282.535156 41.277344 281.148438 36.839844 278.289062 33.179688 Z M 275.113281 59.578125 C 272.972656 61.582031 270.5 62.582031 267.6875 62.582031 C 264.882812 62.578125 262.421875 61.578125 260.308594 59.578125 C 258.242188 57.648438 256.71875 54.90625 255.972656 51.765625 C 256.652344 48.589844 258.167969 45.8125 260.269531 43.910156 C 262.410156 41.941406 264.882812 40.957031 267.691406 40.957031 C 271.179688 40.957031 274.125 42.457031 276.523438 45.460938 C 277.871094 47.210938 278.886719 49.332031 279.492188 51.664062 C 278.753906 54.851562 277.214844 57.636719 275.113281 59.578125 Z M 278.289062 33.179688 C 275.433594 29.519531 271.96875 27.738281 267.6875 27.738281 C 263.410156 27.738281 259.9375 29.5 257.082031 33.136719 C 254.222656 36.773438 252.84375 41.21875 252.84375 46.761719 C 252.84375 52.242188 254.242188 56.679688 257.117188 60.335938 C 259.996094 63.992188 263.453125 65.785156 267.6875 65.785156 C 271.964844 65.785156 275.433594 64.003906 278.285156 60.34375 C 281.136719 56.683594 282.535156 52.242188 282.535156 46.761719 C 282.535156 41.277344 281.148438 36.839844 278.289062 33.179688 Z M 275.113281 59.578125 C 272.972656 61.582031 270.5 62.582031 267.6875 62.582031 C 264.882812 62.578125 262.421875 61.578125 260.308594 59.578125 C 258.242188 57.648438 256.71875 54.90625 255.972656 51.765625 C 256.652344 48.589844 258.167969 45.8125 260.269531 43.910156 C 262.410156 41.941406 264.882812 40.957031 267.691406 40.957031 C 271.179688 40.957031 274.125 42.457031 276.523438 45.460938 C 277.871094 47.210938 278.886719 49.332031 279.492188 51.664062 C 278.753906 54.851562 277.214844 57.636719 275.113281 59.578125 Z M 278.289062 33.179688 C 275.433594 29.519531 271.96875 27.738281 267.6875 27.738281 C 263.410156 27.738281 259.9375 29.5 257.082031 33.136719 C 254.222656 36.773438 252.84375 41.21875 252.84375 46.761719 C 252.84375 52.242188 254.242188 56.679688 257.117188 60.335938 C 259.996094 63.992188 263.453125 65.785156 267.6875 65.785156 C 271.964844 65.785156 275.433594 64.003906 278.285156 60.34375 C 281.136719 56.683594 282.535156 52.242188 282.535156 46.761719 C 282.535156 41.277344 281.148438 36.839844 278.289062 33.179688 Z M 275.113281 59.578125 C 272.972656 61.582031 270.5 62.582031 267.6875 62.582031 C 264.882812 62.578125 262.421875 61.578125 260.308594 59.578125 C 258.242188 57.648438 256.71875 54.90625 255.972656 51.765625 C 256.652344 48.589844 258.167969 45.8125 260.269531 43.910156 C 262.410156 41.941406 264.882812 40.957031 267.691406 40.957031 C 271.179688 40.957031 274.125 42.457031 276.523438 45.460938 C 277.871094 47.210938 278.886719 49.332031 279.492188 51.664062 C 278.753906 54.851562 277.214844 57.636719 275.113281 59.578125 Z M 278.289062 33.179688 C 275.433594 29.519531 271.96875 27.738281 267.6875 27.738281 C 263.410156 27.738281 259.9375 29.5 257.082031 33.136719 C 254.222656 36.773438 252.84375 41.21875 252.84375 46.761719 C 252.84375 52.242188 254.242188 56.679688 257.117188 60.335938 C 259.996094 63.992188 263.453125 65.785156 267.6875 65.785156 C 271.964844 65.785156 275.433594 64.003906 278.285156 60.34375 C 281.136719 56.683594 282.535156 52.242188 282.535156 46.761719 C 282.535156 41.277344 281.148438 36.839844 278.289062 33.179688 Z M 275.113281 59.578125 C 272.972656 61.582031 270.5 62.582031 267.6875 62.582031 C 264.882812 62.578125 262.421875 61.578125 260.308594 59.578125 C 258.242188 57.648438 256.71875 54.90625 255.972656 51.765625 C 256.652344 48.589844 258.167969 45.8125 260.269531 43.910156 C 262.410156 41.941406 264.882812 40.957031 267.691406 40.957031 C 271.179688 40.957031 274.125 42.457031 276.523438 45.460938 C 277.871094 47.210938 278.886719 49.332031 279.492188 51.664062 C 278.753906 54.851562 277.214844 57.636719 275.113281 59.578125 Z M 278.289062 33.179688 C 275.433594 29.519531 271.96875 27.738281 267.6875 27.738281 C 263.410156 27.738281 259.9375 29.5 257.082031 33.136719 C 254.222656 36.773438 252.84375 41.21875 252.84375 46.761719 C 252.84375 52.242188 254.242188 56.679688 257.117188 60.335938 C 259.996094 63.992188 263.453125 65.785156 267.6875 65.785156 C 271.964844 65.785156 275.433594 64.003906 278.285156 60.34375 C 281.136719 56.683594 282.535156 52.242188 282.535156 46.761719 C 282.535156 41.277344 281.148438 36.839844 278.289062 33.179688 Z M 275.113281 59.578125 C 272.972656 61.582031 270.5 62.582031 267.6875 62.582031 C 264.882812 62.578125 262.421875 61.578125 260.308594 59.578125 C 258.242188 57.648438 256.71875 54.90625 255.972656 51.765625 C 256.652344 48.589844 258.167969 45.8125 260.269531 43.910156 C 262.410156 41.941406 264.882812 40.957031 267.691406 40.957031 C 271.179688 40.957031 274.125 42.457031 276.523438 45.460938 C 277.871094 47.210938 278.886719 49.332031 279.492188 51.664062 C 278.753906 54.851562 277.214844 57.636719 275.113281 59.578125 Z M 278.289062 33.179688 C 275.433594 29.519531 271.96875 27.738281 267.6875 27.738281 C 263.410156 27.738281 259.9375 29.5 257.082031 33.136719 C 254.222656 36.773438 252.84375 41.21875 252.84375 46.761719 C 252.84375 52.242188 254.242188 56.679688 257.117188 60.335938 C 259.996094 63.992188 263.453125 65.785156 267.6875 65.785156 C 271.964844 65.785156 275.433594 64.003906 278.285156 60.34375 C 281.136719 56.683594 282.535156 52.242188 282.535156 46.761719 C 282.535156 41.277344 281.148438 36.839844 278.289062 33.179688 Z M 275.113281 59.578125 C 272.972656 61.582031 270.5 62.582031 267.6875 62.582031 C 264.882812 62.578125 262.421875 61.578125 260.308594 59.578125 C 258.242188 57.648438 256.71875 54.90625 255.972656 51.765625 C 256.652344 48.589844 258.167969 45.8125 260.269531 43.910156 C 262.410156 41.941406 264.882812 40.957031 267.691406 40.957031 C 271.179688 40.957031 274.125 42.457031 276.523438 45.460938 C 277.871094 47.210938 278.886719 49.332031 279.492188 51.664062 C 278.753906 54.851562 277.214844 57.636719 275.113281 59.578125 Z M 278.289062 33.179688 C 275.433594 29.519531 271.96875 27.738281 267.6875 27.738281 C 263.410156 27.738281 259.9375 29.5 257.082031 33.136719 C 254.222656 36.773438 252.84375 41.21875 252.84375 46.761719 C 252.84375 52.242188 254.242188 56.679688 257.117188 60.335938 C 259.996094 63.992188 263.453125 65.785156 267.6875 65.785156 C 271.964844 65.785156 275.433594 64.003906 278.285156 60.34375 C 281.136719 56.683594 282.535156 52.242188 282.535156 46.761719 C 282.535156 41.277344 281.148438 36.839844 278.289062 33.179688 Z M 275.113281 59.578125 C 272.972656 61.582031 270.5 62.582031 267.6875 62.582031 C 264.882812 62.578125 262.421875 61.578125 260.308594 59.578125 C 258.242188 57.648438 256.71875 54.90625 255.972656 51.765625 C 256.652344 48.589844 258.167969 45.8125 260.269531 43.910156 C 262.410156 41.941406 264.882812 40.957031 267.691406 40.957031 C 271.179688 40.957031 274.125 42.457031 276.523438 45.460938 C 277.871094 47.210938 278.886719 49.332031 279.492188 51.664062 C 278.753906 54.851562 277.214844 57.636719 275.113281 59.578125 Z M 278.289062 33.179688 C 275.433594 29.519531 271.96875 27.738281 267.6875 27.738281 C 263.410156 27.738281 259.9375 29.5 257.082031 33.136719 C 254.222656 36.773438 252.84375 41.21875 252.84375 46.761719 C 252.84375 52.242188 254.242188 56.679688 257.117188 60.335938 C 259.996094 63.992188 263.453125 65.785156 267.6875 65.785156 C 271.964844 65.785156 275.433594 64.003906 278.285156 60.34375 C 281.136719 56.683594 282.535156 52.242188 282.535156 46.761719 C 282.535156 41.277344 281.148438 36.839844 278.289062 33.179688 Z M 275.113281 59.578125 C 272.972656 61.582031 270.5 62.582031 267.6875 62.582031 C 264.882812 62.578125 262.421875 61.578125 260.308594 59.578125 C 258.242188 57.648438 256.71875 54.90625 255.972656 51.765625 C 256.652344 48.589844 258.167969 45.8125 260.269531 43.910156 C 262.410156 41.941406 264.882812 40.957031 267.691406 40.957031 C 271.179688 40.957031 274.125 42.457031 276.523438 45.460938 C 277.871094 47.210938 278.886719 49.332031 279.492188 51.664062 C 278.753906 54.851562 277.214844 57.636719 275.113281 59.578125 Z M 278.289062 33.179688 C 275.433594 29.519531 271.96875 27.738281 267.6875 27.738281 C 263.410156 27.738281 259.9375 29.5 257.082031 33.136719 C 254.222656 36.773438 252.84375 41.21875 252.84375 46.761719 C 252.84375 52.242188 254.242188 56.679688 257.117188 60.335938 C 259.996094 63.992188 263.453125 65.785156 267.6875 65.785156 C 271.964844 65.785156 275.433594 64.003906 278.285156 60.34375 C 281.136719 56.683594 282.535156 52.242188 282.535156 46.761719 C 282.535156 41.277344 281.148438 36.839844 278.289062 33.179688 Z M 275.113281 59.578125 C 272.972656 61.582031 270.5 62.582031 267.6875 62.582031 C 264.882812 62.578125 262.421875 61.578125 260.308594 59.578125 C 258.242188 57.648438 256.71875 54.90625 255.972656 51.765625 C 256.652344 48.589844 258.167969 45.8125 260.269531 43.910156 C 262.410156 41.941406 264.882812 40.957031 267.691406 40.957031 C 271.179688 40.957031 274.125 42.457031 276.523438 45.460938 C 277.871094 47.210938 278.886719 49.332031 279.492188 51.664062 C 278.753906 54.851562 277.214844 57.636719 275.113281 59.578125 Z M 278.289062 33.179688 C 275.433594 29.519531 271.96875 27.738281 267.6875 27.738281 C 263.410156 27.738281 259.9375 29.5 257.082031 33.136719 C 254.222656 36.773438 252.84375 41.21875 252.84375 46.761719 C 252.84375 52.242188 254.242188 56.679688 257.117188 60.335938 C 259.996094 63.992188 263.453125 65.785156 267.6875 65.785156 C 271.964844 65.785156 275.433594 64.003906 278.285156 60.34375 C 281.136719 56.683594 282.535156 52.242188 282.535156 46.761719 C 282.535156 41.277344 281.148438 36.839844 278.289062 33.179688 Z M 275.113281 59.578125 C 272.972656 61.582031 270.5 62.582031 267.6875 62.582031 C 264.882812 62.578125 262.421875 61.578125 260.308594 59.578125 C 258.242188 57.648438 256.71875 54.90625 255.972656 51.765625 C 256.652344 48.589844 258.167969 45.8125 260.269531 43.910156 C 262.410156 41.941406 264.882812 40.957031 267.691406 40.957031 C 271.179688 40.957031 274.125 42.457031 276.523438 45.460938 C 277.871094 47.210938 278.886719 49.332031 279.492188 51.664062 C 278.753906 54.851562 277.214844 57.636719 275.113281 59.578125 Z M 278.289062 33.179688 C 275.433594 29.519531 271.96875 27.738281 267.6875 27.738281 C 263.410156 27.738281 259.9375 29.5 257.082031 33.136719 C 254.222656 36.773438 252.84375 41.21875 252.84375 46.761719 C 252.84375 52.242188 254.242188 56.679688 257.117188 60.335938 C 259.996094 63.992188 263.453125 65.785156 267.6875 65.785156 C 271.964844 65.785156 275.433594 64.003906 278.285156 60.34375 C 281.136719 56.683594 282.535156 52.242188 282.535156 46.761719 C 282.535156 41.277344 281.148438 36.839844 278.289062 33.179688 Z M 275.113281 59.578125 C 272.972656 61.582031 270.5 62.582031 267.6875 62.582031 C 264.882812 62.578125 262.421875 61.578125 260.308594 59.578125 C 258.242188 57.648438 256.71875 54.90625 255.972656 51.765625 C 256.652344 48.589844 258.167969 45.8125 260.269531 43.910156 C 262.410156 41.941406 264.882812 40.957031 267.691406 40.957031 C 271.179688 40.957031 274.125 42.457031 276.523438 45.460938 C 277.871094 47.210938 278.886719 49.332031 279.492188 51.664062 C 278.753906 54.851562 277.214844 57.636719 275.113281 59.578125 Z M 300.742188 46.765625 C 300.742188 34.890625 297.550781 24.859375 291.167969 16.679688 C 284.789062 8.496094 276.960938 4.40625 267.6875 4.414062 C 258.414062 4.414062 250.589844 8.503906 244.210938 16.679688 C 237.832031 24.855469 234.644531 34.882812 234.644531 46.765625 C 234.644531 48.4375 234.726562 50.105469 234.878906 51.765625 C 234.726562 53.429688 234.644531 55.097656 234.644531 56.769531 C 234.644531 68.65625 237.835938 78.683594 244.21875 86.855469 C 250.597656 95.027344 258.425781 99.117188 267.695312 99.121094 C 276.914062 99.121094 284.730469 95.015625 291.136719 86.804688 C 297.542969 78.59375 300.746094 68.585938 300.75 56.769531 C 300.75 55.132812 300.671875 53.496094 300.511719 51.867188 C 300.667969 50.171875 300.746094 48.46875 300.742188 46.765625 Z M 289.394531 74.574219 C 283.527344 82.085938 276.226562 85.898438 267.6875 85.898438 C 259.148438 85.898438 251.851562 82.089844 245.984375 74.574219 C 240.117188 67.054688 237.140625 57.695312 237.140625 46.757812 C 237.140625 35.820312 240.117188 26.460938 245.984375 18.945312 C 251.851562 11.429688 259.148438 7.617188 267.6875 7.617188 C 276.230469 7.617188 283.527344 11.4375 289.398438 18.949219 C 295.261719 26.464844 298.238281 35.824219 298.238281 46.761719 C 298.238281 57.699219 295.261719 67.058594 289.394531 74.574219 Z M 267.6875 27.734375 C 263.414062 27.734375 259.9375 29.496094 257.082031 33.132812 C 254.222656 36.769531 252.84375 41.21875 252.84375 46.757812 C 252.84375 52.238281 254.242188 56.675781 257.117188 60.332031 C 259.996094 63.988281 263.453125 65.78125 267.6875 65.78125 C 271.964844 65.78125 275.433594 64 278.285156 60.339844 C 281.136719 56.679688 282.535156 52.238281 282.535156 46.757812 C 282.535156 41.277344 281.144531 36.835938 278.289062 33.175781 C 275.433594 29.519531 271.96875 27.738281 267.6875 27.738281 Z M 275.113281 59.574219 C 272.972656 61.578125 270.5 62.578125 267.6875 62.574219 C 264.882812 62.574219 262.421875 61.574219 260.308594 59.578125 C 258.242188 57.648438 256.71875 54.90625 255.972656 51.765625 C 256.652344 48.589844 258.167969 45.8125 260.269531 43.910156 C 262.410156 41.941406 264.882812 40.957031 267.691406 40.957031 C 271.179688 40.957031 274.125 42.457031 276.523438 45.460938 C 277.871094 47.210938 278.886719 49.332031 279.492188 51.664062 C 278.753906 54.851562 277.214844 57.636719 275.113281 59.578125 Z M 278.289062 33.175781 C 275.433594 29.515625 271.96875 27.734375 267.6875 27.734375 C 263.410156 27.734375 259.9375 29.496094 257.082031 33.132812 C 254.222656 36.769531 252.84375 41.21875 252.84375 46.757812 C 252.84375 52.238281 254.242188 56.675781 257.117188 60.332031 C 259.996094 63.988281 263.453125 65.78125 267.6875 65.78125 C 271.964844 65.78125 275.433594 64 278.285156 60.339844 C 281.136719 56.679688 282.535156 52.238281 282.535156 46.757812 C 282.535156 41.277344 281.148438 36.839844 278.289062 33.179688 Z M 275.113281 59.574219 C 272.972656 61.578125 270.5 62.578125 267.6875 62.574219 C 264.882812 62.574219 262.421875 61.574219 260.308594 59.578125 C 258.242188 57.648438 256.71875 54.90625 255.972656 51.765625 C 256.652344 48.589844 258.167969 45.8125 260.269531 43.910156 C 262.410156 41.941406 264.882812 40.957031 267.691406 40.957031 C 271.179688 40.957031 274.125 42.457031 276.523438 45.460938 C 277.871094 47.210938 278.886719 49.332031 279.492188 51.664062 C 278.753906 54.851562 277.214844 57.636719 275.113281 59.578125 Z M 278.289062 33.175781 C 275.433594 29.515625 271.96875 27.734375 267.6875 27.734375 C 263.410156 27.734375 259.9375 29.496094 257.082031 33.132812 C 254.222656 36.769531 252.84375 41.21875 252.84375 46.757812 C 252.84375 52.238281 254.242188 56.675781 257.117188 60.332031 C 259.996094 63.988281 263.453125 65.78125 267.6875 65.78125 C 271.964844 65.78125 275.433594 64 278.285156 60.339844 C 281.136719 56.679688 282.535156 52.238281 282.535156 46.757812 C 282.535156 41.277344 281.148438 36.839844 278.289062 33.179688 Z M 275.113281 59.574219 C 272.972656 61.578125 270.5 62.578125 267.6875 62.574219 C 264.882812 62.574219 262.421875 61.574219 260.308594 59.578125 C 258.242188 57.648438 256.71875 54.90625 255.972656 51.765625 C 256.652344 48.589844 258.167969 45.8125 260.269531 43.910156 C 262.410156 41.941406 264.882812 40.957031 267.691406 40.957031 C 271.179688 40.957031 274.125 42.457031 276.523438 45.460938 C 277.871094 47.210938 278.886719 49.332031 279.492188 51.664062 C 278.753906 54.851562 277.214844 57.636719 275.113281 59.578125 Z M 278.289062 33.175781 C 275.433594 29.515625 271.96875 27.734375 267.6875 27.734375 C 263.410156 27.734375 259.9375 29.496094 257.082031 33.132812 C 254.222656 36.769531 252.84375 41.21875 252.84375 46.757812 C 252.84375 52.238281 254.242188 56.675781 257.117188 60.332031 C 259.996094 63.988281 263.453125 65.78125 267.6875 65.78125 C 271.964844 65.78125 275.433594 64 278.285156 60.339844 C 281.136719 56.679688 282.535156 52.238281 282.535156 46.757812 C 282.535156 41.277344 281.148438 36.839844 278.289062 33.179688 Z M 275.113281 59.574219 C 272.972656 61.578125 270.5 62.578125 267.6875 62.574219 C 264.882812 62.574219 262.421875 61.574219 260.308594 59.578125 C 258.242188 57.648438 256.71875 54.90625 255.972656 51.765625 C 256.652344 48.589844 258.167969 45.8125 260.269531 43.910156 C 262.410156 41.941406 264.882812 40.957031 267.691406 40.957031 C 271.179688 40.957031 274.125 42.457031 276.523438 45.460938 C 277.871094 47.210938 278.886719 49.332031 279.492188 51.664062 C 278.753906 54.851562 277.214844 57.636719 275.113281 59.578125 Z M 278.289062 33.175781 C 275.433594 29.515625 271.96875 27.734375 267.6875 27.734375 C 263.410156 27.734375 259.9375 29.496094 257.082031 33.132812 C 254.222656 36.769531 252.84375 41.21875 252.84375 46.757812 C 252.84375 52.238281 254.242188 56.675781 257.117188 60.332031 C 259.996094 63.988281 263.453125 65.78125 267.6875 65.78125 C 271.964844 65.78125 275.433594 64 278.285156 60.339844 C 281.136719 56.679688 282.535156 52.238281 282.535156 46.757812 C 282.535156 41.277344 281.148438 36.839844 278.289062 33.179688 Z M 275.113281 59.574219 C 272.972656 61.578125 270.5 62.578125 267.6875 62.574219 C 264.882812 62.574219 262.421875 61.574219 260.308594 59.578125 C 258.242188 57.648438 256.71875 54.90625 255.972656 51.765625 C 256.652344 48.589844 258.167969 45.8125 260.269531 43.910156 C 262.410156 41.941406 264.882812 40.957031 267.691406 40.957031 C 271.179688 40.957031 274.125 42.457031 276.523438 45.460938 C 277.871094 47.210938 278.886719 49.332031 279.492188 51.664062 C 278.753906 54.851562 277.214844 57.636719 275.113281 59.578125 Z M 278.289062 33.175781 C 275.433594 29.515625 271.96875 27.734375 267.6875 27.734375 C 263.410156 27.734375 259.9375 29.496094 257.082031 33.132812 C 254.222656 36.769531 252.84375 41.21875 252.84375 46.757812 C 252.84375 52.238281 254.242188 56.675781 257.117188 60.332031 C 259.996094 63.988281 263.453125 65.78125 267.6875 65.78125 C 271.964844 65.78125 275.433594 64 278.285156 60.339844 C 281.136719 56.679688 282.535156 52.238281 282.535156 46.757812 C 282.535156 41.277344 281.148438 36.839844 278.289062 33.179688 Z M 275.113281 59.574219 C 272.972656 61.578125 270.5 62.578125 267.6875 62.574219 C 264.882812 62.574219 262.421875 61.574219 260.308594 59.578125 C 258.242188 57.648438 256.71875 54.90625 255.972656 51.765625 C 256.652344 48.589844 258.167969 45.8125 260.269531 43.910156 C 262.410156 41.941406 264.882812 40.957031 267.691406 40.957031 C 271.179688 40.957031 274.125 42.457031 276.523438 45.460938 C 277.871094 47.210938 278.886719 49.332031 279.492188 51.664062 C 278.753906 54.851562 277.214844 57.636719 275.113281 59.578125 Z M 278.289062 33.175781 C 275.433594 29.515625 271.96875 27.734375 267.6875 27.734375 C 263.410156 27.734375 259.9375 29.496094 257.082031 33.132812 C 254.222656 36.769531 252.84375 41.21875 252.84375 46.757812 C 252.84375 52.238281 254.242188 56.675781 257.117188 60.332031 C 259.996094 63.988281 263.453125 65.78125 267.6875 65.78125 C 271.964844 65.78125 275.433594 64 278.285156 60.339844 C 281.136719 56.679688 282.535156 52.238281 282.535156 46.757812 C 282.535156 41.277344 281.148438 36.839844 278.289062 33.179688 Z M 275.113281 59.574219 C 272.972656 61.578125 270.5 62.578125 267.6875 62.574219 C 264.882812 62.574219 262.421875 61.574219 260.308594 59.578125 C 258.242188 57.648438 256.71875 54.90625 255.972656 51.765625 C 256.652344 48.589844 258.167969 45.8125 260.269531 43.910156 C 262.410156 41.941406 264.882812 40.957031 267.691406 40.957031 C 271.179688 40.957031 274.125 42.457031 276.523438 45.460938 C 277.871094 47.210938 278.886719 49.332031 279.492188 51.664062 C 278.753906 54.851562 277.214844 57.636719 275.113281 59.578125 Z M 278.289062 33.175781 C 275.433594 29.515625 271.96875 27.734375 267.6875 27.734375 C 263.410156 27.734375 259.9375 29.496094 257.082031 33.132812 C 254.222656 36.769531 252.84375 41.21875 252.84375 46.757812 C 252.84375 52.238281 254.242188 56.675781 257.117188 60.332031 C 259.996094 63.988281 263.453125 65.78125 267.6875 65.78125 C 271.964844 65.78125 275.433594 64 278.285156 60.339844 C 281.136719 56.679688 282.535156 52.238281 282.535156 46.757812 C 282.535156 41.277344 281.148438 36.839844 278.289062 33.179688 Z M 275.113281 59.574219 C 272.972656 61.578125 270.5 62.578125 267.6875 62.574219 C 264.882812 62.574219 262.421875 61.574219 260.308594 59.578125 C 258.242188 57.648438 256.71875 54.90625 255.972656 51.765625 C 256.652344 48.589844 258.167969 45.8125 260.269531 43.910156 C 262.410156 41.941406 264.882812 40.957031 267.691406 40.957031 C 271.179688 40.957031 274.125 42.457031 276.523438 45.460938 C 277.871094 47.210938 278.886719 49.332031 279.492188 51.664062 C 278.753906 54.851562 277.214844 57.636719 275.113281 59.578125 Z M 278.289062 33.175781 C 275.433594 29.515625 271.96875 27.734375 267.6875 27.734375 C 263.410156 27.734375 259.9375 29.496094 257.082031 33.132812 C 254.222656 36.769531 252.84375 41.21875 252.84375 46.757812 C 252.84375 52.238281 254.242188 56.675781 257.117188 60.332031 C 259.996094 63.988281 263.453125 65.78125 267.6875 65.78125 C 271.964844 65.78125 275.433594 64 278.285156 60.339844 C 281.136719 56.679688 282.535156 52.238281 282.535156 46.757812 C 282.535156 41.277344 281.148438 36.839844 278.289062 33.179688 Z M 275.113281 59.574219 C 272.972656 61.578125 270.5 62.578125 267.6875 62.574219 C 264.882812 62.574219 262.421875 61.574219 260.308594 59.578125 C 258.242188 57.648438 256.71875 54.90625 255.972656 51.765625 C 256.652344 48.589844 258.167969 45.8125 260.269531 43.910156 C 262.410156 41.941406 264.882812 40.957031 267.691406 40.957031 C 271.179688 40.957031 274.125 42.457031 276.523438 45.460938 C 277.871094 47.210938 278.886719 49.332031 279.492188 51.664062 C 278.753906 54.851562 277.214844 57.636719 275.113281 59.578125 Z M 278.289062 33.175781 C 275.433594 29.515625 271.96875 27.734375 267.6875 27.734375 C 263.410156 27.734375 259.9375 29.496094 257.082031 33.132812 C 254.222656 36.769531 252.84375 41.21875 252.84375 46.757812 C 252.84375 52.238281 254.242188 56.675781 257.117188 60.332031 C 259.996094 63.988281 263.453125 65.78125 267.6875 65.78125 C 271.964844 65.78125 275.433594 64 278.285156 60.339844 C 281.136719 56.679688 282.535156 52.238281 282.535156 46.757812 C 282.535156 41.277344 281.148438 36.839844 278.289062 33.179688 Z M 275.113281 59.574219 C 272.972656 61.578125 270.5 62.578125 267.6875 62.574219 C 264.882812 62.574219 262.421875 61.574219 260.308594 59.578125 C 258.242188 57.648438 256.71875 54.90625 255.972656 51.765625 C 256.652344 48.589844 258.167969 45.8125 260.269531 43.910156 C 262.410156 41.941406 264.882812 40.957031 267.691406 40.957031 C 271.179688 40.957031 274.125 42.457031 276.523438 45.460938 C 277.871094 47.210938 278.886719 49.332031 279.492188 51.664062 C 278.753906 54.851562 277.214844 57.636719 275.113281 59.578125 Z M 278.289062 33.175781 C 275.433594 29.515625 271.96875 27.734375 267.6875 27.734375 C 263.410156 27.734375 259.9375 29.496094 257.082031 33.132812 C 254.222656 36.769531 252.84375 41.21875 252.84375 46.757812 C 252.84375 52.238281 254.242188 56.675781 257.117188 60.332031 C 259.996094 63.988281 263.453125 65.78125 267.6875 65.78125 C 271.964844 65.78125 275.433594 64 278.285156 60.339844 C 281.136719 56.679688 282.535156 52.238281 282.535156 46.757812 C 282.535156 41.277344 281.148438 36.839844 278.289062 33.179688 Z M 275.113281 59.574219 C 272.972656 61.578125 270.5 62.578125 267.6875 62.574219 C 264.882812 62.574219 262.421875 61.574219 260.308594 59.578125 C 258.242188 57.648438 256.71875 54.90625 255.972656 51.765625 C 256.652344 48.589844 258.167969 45.8125 260.269531 43.910156 C 262.410156 41.941406 264.882812 40.957031 267.691406 40.957031 C 271.179688 40.957031 274.125 42.457031 276.523438 45.460938 C 277.871094 47.210938 278.886719 49.332031 279.492188 51.664062 C 278.753906 54.851562 277.214844 57.636719 275.113281 59.578125 Z M 275.113281 59.574219 "/>
</g>
<path style=" stroke:none;fill-rule:nonzero;fill:rgb(87.45098%,31.372549%,31.764706%);fill-opacity:1;" d="M 289.398438 18.949219 C 283.535156 11.4375 276.230469 7.621094 267.6875 7.621094 C 259.148438 7.621094 251.847656 11.4375 245.984375 18.949219 C 240.117188 26.464844 237.144531 35.824219 237.144531 46.761719 C 237.144531 57.699219 240.117188 67.054688 245.984375 74.578125 C 251.851562 82.097656 259.152344 85.902344 267.6875 85.902344 C 276.226562 85.902344 283.527344 82.089844 289.394531 74.574219 C 295.261719 67.054688 298.238281 57.695312 298.238281 46.757812 C 298.238281 35.816406 295.261719 26.460938 289.398438 18.949219 Z M 278.289062 60.34375 C 275.433594 64.003906 271.96875 65.785156 267.6875 65.785156 C 263.457031 65.785156 260.003906 64.003906 257.125 60.335938 C 254.238281 56.664062 252.84375 52.238281 252.84375 46.761719 C 252.84375 41.21875 254.230469 36.765625 257.082031 33.136719 C 259.9375 29.511719 263.410156 27.738281 267.691406 27.738281 C 271.976562 27.738281 275.4375 29.519531 278.296875 33.179688 C 281.152344 36.839844 282.539062 41.28125 282.539062 46.761719 C 282.539062 52.238281 281.148438 56.6875 278.289062 60.34375 Z M 278.289062 60.34375 "/>
<g clip-path="url(#clip3)" clip-rule="nonzero">
<path style=" stroke:none;fill-rule:nonzero;fill:rgb(100%,100%,100%);fill-opacity:1;" d="M 348.84375 64.5 L 348.789062 31.34375 C 348.789062 23.871094 346.574219 17.464844 342.148438 12.125 C 337.875 6.988281 332.800781 4.417969 326.910156 4.414062 C 320.765625 4.414062 315.566406 7.132812 311.320312 12.574219 C 307.074219 18.015625 304.953125 24.671875 304.957031 32.546875 L 304.957031 85.707031 C 304.957031 89.507812 305.933594 92.660156 307.882812 95.167969 C 309.835938 97.671875 312.296875 98.921875 315.269531 98.917969 C 318.238281 98.917969 320.710938 97.667969 322.691406 95.167969 C 324.671875 92.664062 325.660156 89.511719 325.660156 85.707031 L 325.660156 42.558594 C 325.660156 41.488281 326.078125 40.957031 326.910156 40.957031 C 327.691406 40.957031 328.085938 41.488281 328.085938 42.558594 L 328.132812 68.898438 L 328.164062 87.007812 L 328.164062 87.019531 C 328.347656 90.316406 329.328125 93.085938 331.105469 95.332031 C 333.085938 97.832031 335.566406 99.082031 338.542969 99.082031 C 338.601562 99.082031 338.660156 99.082031 338.714844 99.082031 C 341.609375 99.035156 344.015625 97.785156 345.9375 95.335938 C 346.988281 94.007812 347.792969 92.386719 348.28125 90.597656 C 348.683594 89.074219 348.878906 87.480469 348.871094 85.875 L 348.871094 80.964844 Z M 346.355469 76.246094 C 346.292969 78.941406 345.53125 81.300781 344.152344 83.058594 C 342.695312 84.925781 340.804688 85.871094 338.539062 85.871094 C 336.3125 85.871094 334.367188 84.90625 332.90625 83.082031 C 331.558594 81.414062 330.78125 79.175781 330.664062 76.621094 C 330.644531 76.332031 330.640625 76.070312 330.640625 75.867188 L 330.640625 67.917969 L 330.585938 32.558594 C 330.597656 31.925781 330.503906 31.296875 330.3125 30.710938 C 330.125 30.125 329.84375 29.59375 329.484375 29.15625 C 329.160156 28.699219 328.757812 28.335938 328.316406 28.09375 C 327.871094 27.851562 327.398438 27.730469 326.910156 27.746094 C 326.417969 27.734375 325.925781 27.851562 325.46875 28.089844 C 325.007812 28.328125 324.589844 28.683594 324.242188 29.132812 C 323.890625 29.578125 323.617188 30.113281 323.429688 30.699219 C 323.242188 31.289062 323.152344 31.917969 323.160156 32.550781 L 323.160156 75.691406 C 323.160156 78.574219 322.375 81.070312 320.890625 82.917969 C 319.410156 84.761719 317.53125 85.699219 315.269531 85.699219 C 313.011719 85.699219 311.121094 84.753906 309.660156 82.882812 C 308.21875 81.046875 307.460938 78.558594 307.460938 75.691406 L 307.460938 32.546875 C 307.460938 25.53125 309.34375 19.558594 313.054688 14.796875 C 316.765625 10.03125 321.4375 7.621094 326.910156 7.621094 C 332.042969 7.621094 336.585938 9.921875 340.417969 14.457031 C 344.3125 19.054688 346.289062 24.742188 346.289062 31.34375 L 346.355469 76.183594 Z M 346.355469 76.246094 "/>
</g>
<path style=" stroke:none;fill-rule:nonzero;fill:rgb(87.45098%,31.372549%,31.764706%);fill-opacity:1;" d="M 346.355469 76.183594 L 346.355469 76.238281 C 346.292969 78.933594 345.53125 81.292969 344.15625 83.050781 C 342.695312 84.917969 340.804688 85.863281 338.539062 85.863281 C 336.3125 85.863281 334.367188 84.898438 332.90625 83.074219 C 331.5625 81.40625 330.78125 79.167969 330.664062 76.613281 C 330.644531 76.320312 330.640625 76.0625 330.640625 75.859375 L 330.640625 67.917969 L 330.589844 32.558594 C 330.597656 31.925781 330.503906 31.296875 330.3125 30.710938 C 330.125 30.125 329.84375 29.59375 329.484375 29.15625 C 329.160156 28.699219 328.761719 28.335938 328.316406 28.09375 C 327.871094 27.851562 327.398438 27.730469 326.910156 27.746094 C 326.417969 27.734375 325.925781 27.851562 325.46875 28.089844 C 325.007812 28.328125 324.589844 28.683594 324.242188 29.132812 C 323.890625 29.578125 323.617188 30.113281 323.429688 30.699219 C 323.242188 31.289062 323.152344 31.917969 323.160156 32.550781 L 323.160156 75.691406 C 323.160156 78.574219 322.375 81.070312 320.894531 82.917969 C 319.410156 84.761719 317.53125 85.699219 315.269531 85.699219 C 313.011719 85.699219 311.121094 84.753906 309.660156 82.882812 C 308.21875 81.046875 307.460938 78.558594 307.460938 75.691406 L 307.460938 32.546875 C 307.460938 25.53125 309.34375 19.558594 313.054688 14.796875 C 316.765625 10.03125 321.4375 7.621094 326.910156 7.621094 C 332.042969 7.621094 336.589844 9.921875 340.417969 14.457031 C 344.3125 19.054688 346.289062 24.742188 346.289062 31.34375 Z M 346.355469 76.183594 "/>
<path style=" stroke:none;fill-rule:nonzero;fill:rgb(87.45098%,31.372549%,31.764706%);fill-opacity:1;" d="M 136.863281 14.972656 C 133.144531 10.210938 128.480469 7.800781 123.003906 7.800781 C 119.113281 7.757812 115.304688 9.261719 112.101562 12.105469 C 108.90625 9.261719 105.097656 7.757812 101.203125 7.800781 C 95.730469 7.800781 91.066406 10.210938 87.347656 14.972656 C 83.628906 19.730469 81.75 25.707031 81.75 32.722656 L 81.75 75.871094 C 81.75 78.75 82.535156 81.246094 84.011719 83.085938 C 85.488281 84.921875 87.386719 85.875 89.640625 85.875 C 91.890625 85.875 93.792969 84.929688 95.25 83.0625 C 96.703125 81.199219 97.453125 78.734375 97.453125 75.871094 L 97.453125 32.722656 C 97.472656 31.464844 97.875 30.265625 98.578125 29.386719 C 99.277344 28.503906 100.222656 28.011719 101.203125 28.011719 C 102.1875 28.011719 103.128906 28.503906 103.832031 29.386719 C 104.53125 30.265625 104.9375 31.464844 104.957031 32.722656 L 104.957031 75.871094 C 104.957031 78.734375 105.722656 81.222656 107.15625 83.058594 C 108.472656 84.742188 110.132812 85.675781 112.101562 85.84375 C 114.074219 85.675781 115.738281 84.742188 117.050781 83.058594 C 118.492188 81.222656 119.25 78.734375 119.25 75.871094 L 119.25 32.722656 C 119.242188 32.082031 119.328125 31.449219 119.515625 30.851562 C 119.699219 30.257812 119.972656 29.71875 120.324219 29.257812 C 120.671875 28.800781 121.089844 28.441406 121.550781 28.191406 C 122.011719 27.945312 122.503906 27.816406 123.003906 27.816406 C 123.503906 27.816406 123.996094 27.945312 124.457031 28.191406 C 124.917969 28.441406 125.335938 28.800781 125.683594 29.257812 C 126.035156 29.71875 126.308594 30.257812 126.492188 30.851562 C 126.675781 31.449219 126.765625 32.082031 126.753906 32.722656 L 126.753906 75.871094 C 126.753906 78.734375 127.519531 81.222656 128.960938 83.0625 C 130.402344 84.90625 132.304688 85.875 134.570312 85.875 C 136.832031 85.875 138.714844 84.9375 140.195312 83.085938 C 141.675781 81.234375 142.457031 78.75 142.457031 75.871094 L 142.457031 32.722656 C 142.457031 25.707031 140.574219 19.734375 136.863281 14.972656 Z M 136.863281 14.972656 "/>
<g clip-path="url(#clip4)" clip-rule="nonzero">
<path style=" stroke:none;fill-rule:nonzero;fill:rgb(100%,100%,100%);fill-opacity:1;" d="M 138.597656 12.675781 C 134.351562 7.238281 129.15625 4.519531 123.015625 4.515625 C 119.191406 4.476562 115.425781 5.746094 112.113281 8.191406 C 108.796875 5.742188 105.03125 4.472656 101.207031 4.515625 C 95.058594 4.515625 89.863281 7.234375 85.625 12.675781 C 81.382812 18.117188 79.257812 24.773438 79.25 32.648438 L 79.25 85.808594 C 79.25 89.609375 80.242188 92.761719 82.21875 95.269531 C 84.199219 97.773438 86.671875 99.023438 89.644531 99.019531 C 92.609375 99.019531 95.074219 97.769531 97.027344 95.269531 C 98.980469 92.765625 99.957031 89.613281 99.953125 85.808594 L 99.953125 42.667969 C 99.953125 41.597656 100.371094 41.070312 101.207031 41.070312 C 102.039062 41.070312 102.457031 41.597656 102.457031 42.667969 L 102.457031 85.808594 C 102.457031 89.609375 103.433594 92.761719 105.386719 95.269531 C 107.195312 97.582031 109.433594 98.824219 112.105469 98.996094 C 114.78125 98.820312 117.019531 97.578125 118.828125 95.269531 C 120.777344 92.761719 121.753906 89.609375 121.753906 85.808594 L 121.753906 42.667969 C 121.753906 41.597656 122.171875 41.070312 123.003906 41.070312 C 123.835938 41.070312 124.253906 41.597656 124.253906 42.667969 L 124.253906 85.808594 C 124.253906 89.609375 125.230469 92.761719 127.183594 95.269531 C 129.136719 97.773438 131.597656 99.023438 134.566406 99.019531 C 137.535156 99.019531 140.011719 97.769531 141.992188 95.269531 C 143.972656 92.765625 144.960938 89.613281 144.957031 85.808594 L 144.957031 32.648438 C 144.960938 24.777344 142.839844 18.117188 138.597656 12.675781 Z M 142.457031 75.792969 C 142.457031 78.675781 141.675781 81.171875 140.199219 83.007812 C 138.722656 84.847656 136.824219 85.800781 134.570312 85.800781 C 132.316406 85.800781 130.421875 84.851562 128.960938 82.988281 C 127.503906 81.121094 126.757812 78.660156 126.757812 75.792969 L 126.757812 32.648438 C 126.738281 31.390625 126.335938 30.191406 125.632812 29.308594 C 124.929688 28.429688 123.988281 27.933594 123.007812 27.933594 C 122.023438 27.933594 121.078125 28.429688 120.378906 29.308594 C 119.679688 30.191406 119.273438 31.390625 119.253906 32.648438 L 119.253906 75.792969 C 119.253906 78.660156 118.492188 81.144531 117.050781 82.984375 C 115.738281 84.667969 114.078125 85.597656 112.105469 85.769531 C 110.136719 85.597656 108.472656 84.667969 107.160156 82.984375 C 105.71875 81.144531 104.960938 78.660156 104.960938 75.792969 L 104.960938 32.648438 C 104.96875 32.007812 104.878906 31.371094 104.695312 30.777344 C 104.511719 30.183594 104.238281 29.640625 103.886719 29.183594 C 103.539062 28.726562 103.121094 28.363281 102.660156 28.117188 C 102.199219 27.867188 101.707031 27.742188 101.207031 27.742188 C 100.707031 27.742188 100.210938 27.867188 99.753906 28.117188 C 99.292969 28.363281 98.875 28.726562 98.523438 29.183594 C 98.175781 29.640625 97.902344 30.183594 97.71875 30.777344 C 97.535156 31.371094 97.445312 32.007812 97.453125 32.648438 L 97.453125 75.792969 C 97.453125 78.660156 96.691406 81.144531 95.25 82.988281 C 93.808594 84.828125 91.90625 85.800781 89.644531 85.800781 C 87.378906 85.800781 85.492188 84.859375 84.015625 83.007812 C 82.535156 81.160156 81.753906 78.675781 81.753906 75.792969 L 81.753906 32.648438 C 81.753906 25.632812 83.636719 19.660156 87.347656 14.894531 C 91.0625 10.132812 95.730469 7.722656 101.207031 7.722656 C 105.097656 7.679688 108.90625 9.1875 112.105469 12.027344 C 115.304688 9.1875 119.113281 7.679688 123.007812 7.722656 C 128.480469 7.722656 133.144531 10.136719 136.863281 14.894531 C 140.582031 19.65625 142.457031 25.640625 142.457031 32.648438 Z M 142.457031 75.792969 "/>
</g>
<path style=" stroke:none;fill-rule:nonzero;fill:rgb(69.019608%,81.176471%,42.352941%);fill-opacity:1;" d="M 68.011719 84.453125 C 69.234375 82.898438 70.378906 81.238281 71.429688 79.484375 C 73.535156 75.242188 74.675781 69.714844 74.582031 63.117188 C 74.265625 40.65625 59.796875 14.1875 42.265625 4 C 34.300781 -0.632812 27.074219 -1.101562 21.585938 1.871094 C 20.394531 2.644531 19.238281 3.5 18.121094 4.433594 C 14.9375 7.070312 12.078125 10.292969 9.628906 13.988281 C 6.863281 18.152344 4.621094 22.910156 3.023438 28.101562 C 2.875 28.589844 2.730469 29.078125 2.597656 29.570312 C 2.40625 30.238281 2.234375 30.910156 2.070312 31.589844 C 2.046875 31.667969 2.03125 31.75 2.011719 31.832031 C 1.871094 32.410156 1.742188 32.996094 1.621094 33.585938 C 1.539062 33.960938 1.46875 34.339844 1.394531 34.71875 C 1.363281 34.882812 1.332031 35.042969 1.304688 35.207031 C 1.179688 35.902344 1.0625 36.605469 0.960938 37.3125 C 0.574219 39.976562 0.34375 42.71875 0.292969 45.523438 C 0.28125 45.992188 0.28125 46.464844 0.28125 46.9375 C 0.28125 47.179688 0.28125 47.421875 0.285156 47.667969 C 0.285156 47.703125 0.285156 47.738281 0.285156 47.773438 C 0.292969 48.179688 0.304688 48.582031 0.316406 48.984375 L 0.316406 48.992188 C 0.488281 54.238281 1.269531 59.289062 2.566406 64.027344 C 2.953125 65.433594 3.382812 66.804688 3.855469 68.152344 C 4.210938 69.160156 4.589844 70.15625 4.996094 71.128906 C 6.863281 75.640625 9.226562 79.765625 11.992188 83.371094 C 13.933594 85.898438 16.0625 88.167969 18.359375 90.148438 C 18.792969 90.515625 19.226562 90.878906 19.664062 91.222656 C 21.640625 92.792969 23.730469 94.140625 25.910156 95.25 C 26.800781 95.707031 27.703125 96.121094 28.625 96.492188 C 28.671875 96.511719 28.722656 96.53125 28.773438 96.550781 C 32.132812 97.898438 35.675781 98.6875 39.332031 98.835938 C 39.609375 98.851562 39.882812 98.859375 40.164062 98.863281 C 40.3125 98.867188 40.464844 98.867188 40.617188 98.867188 C 41.058594 98.867188 41.503906 98.859375 41.941406 98.835938 C 42.800781 98.796875 43.65625 98.726562 44.5 98.621094 C 53.652344 97.472656 61.828125 92.296875 67.988281 84.476562 C 67.996094 84.46875 68.003906 84.460938 68.011719 84.453125 Z M 68.011719 84.453125 "/>
<g clip-path="url(#clip5)" clip-rule="nonzero">
<path style=" stroke:none;fill-rule:nonzero;fill:rgb(44.705882%,62.745098%,36.078431%);fill-opacity:1;" d="M 67.730469 84.699219 C 61.570312 92.535156 53.382812 97.722656 44.21875 98.875 C 43.375 98.980469 42.523438 99.050781 41.660156 99.089844 C 41.222656 99.109375 40.78125 99.121094 40.335938 99.121094 C 40.183594 99.121094 40.03125 99.121094 39.882812 99.117188 C 39.605469 99.109375 39.328125 99.105469 39.050781 99.089844 C 35.394531 98.9375 31.851562 98.152344 28.492188 96.804688 C 28.445312 96.785156 28.394531 96.761719 28.34375 96.742188 C 27.425781 96.375 26.519531 95.957031 25.628906 95.503906 C 23.449219 94.390625 21.363281 93.042969 19.382812 91.472656 C 18.945312 91.128906 18.511719 90.769531 18.082031 90.398438 C 15.785156 88.421875 13.652344 86.152344 11.714844 83.625 C 8.945312 80.015625 6.582031 75.894531 4.71875 71.382812 C 4.308594 70.40625 3.929688 69.414062 3.574219 68.402344 C 3.101562 67.058594 2.671875 65.683594 2.289062 64.28125 C 0.988281 59.539062 0.210938 54.488281 0.0390625 49.246094 L 0.0390625 49.238281 C 0.0234375 48.835938 0.0117188 48.433594 0.0078125 48.027344 C 0.00390625 47.992188 0.00390625 47.957031 0.00390625 47.921875 C 0 47.675781 0 47.433594 0 47.191406 C 0 46.71875 0.00390625 46.246094 0.0117188 45.777344 C 0.0625 42.972656 0.292969 40.230469 0.679688 37.566406 C 0.785156 36.859375 0.898438 36.152344 1.023438 35.460938 C 1.050781 35.296875 1.082031 35.132812 1.113281 34.972656 C 1.1875 34.59375 1.261719 34.214844 1.339844 33.835938 C 1.460938 33.246094 1.589844 32.664062 1.730469 32.085938 C 1.746094 32.003906 1.769531 31.921875 1.789062 31.84375 C 1.953125 31.164062 2.128906 30.488281 2.316406 29.824219 C 2.453125 29.332031 2.59375 28.839844 2.742188 28.355469 C 4.339844 23.160156 6.582031 18.402344 9.351562 14.242188 C 11.796875 10.546875 14.65625 7.324219 17.839844 4.683594 C 14.363281 8.058594 11.996094 13.273438 11.15625 20.035156 C 11.078125 20.671875 11.011719 21.324219 10.957031 21.988281 C 10.941406 22.203125 10.925781 22.414062 10.914062 22.632812 C 10.839844 23.757812 10.808594 24.925781 10.820312 26.125 C 10.820312 26.238281 10.820312 26.351562 10.824219 26.46875 C 10.828125 26.839844 10.835938 27.210938 10.851562 27.582031 C 10.851562 27.585938 10.851562 27.589844 10.851562 27.589844 C 10.851562 27.617188 10.851562 27.644531 10.851562 27.671875 C 10.929688 29.914062 11.148438 32.183594 11.496094 34.476562 C 11.601562 35.175781 11.71875 35.875 11.847656 36.574219 C 11.914062 36.957031 11.988281 37.335938 12.0625 37.71875 C 12.851562 41.664062 13.996094 45.632812 15.445312 49.519531 C 16.183594 51.496094 16.996094 53.449219 17.882812 55.375 C 18.371094 56.433594 18.878906 57.480469 19.40625 58.515625 C 21.367188 62.355469 23.609375 66.023438 26.0625 69.40625 C 28.191406 72.339844 30.476562 75.054688 32.890625 77.492188 C 33.707031 78.324219 34.539062 79.117188 35.382812 79.871094 C 36.925781 81.257812 38.503906 82.519531 40.121094 83.652344 C 40.582031 83.976562 41.050781 84.289062 41.515625 84.589844 C 42.050781 84.9375 42.59375 85.269531 43.132812 85.582031 C 43.585938 85.84375 44.035156 86.097656 44.484375 86.335938 C 45.738281 86.996094 46.972656 87.554688 48.183594 88.011719 C 48.621094 88.171875 49.054688 88.328125 49.484375 88.460938 C 56.878906 90.84375 63.28125 89.359375 67.730469 84.699219 Z M 67.730469 84.699219 "/>
</g>
<path style=" stroke:none;fill-rule:nonzero;fill:rgb(69.019608%,81.176471%,42.352941%);fill-opacity:1;" d="M 43.132812 85.585938 C 25.601562 75.394531 11.132812 48.929688 10.820312 26.46875 C 10.679688 16.542969 13.324219 9.0625 17.835938 4.683594 C 18.957031 3.753906 20.109375 2.898438 21.304688 2.121094 C 26.789062 -0.851562 34.019531 -0.378906 41.984375 4.253906 C 59.511719 14.441406 73.980469 40.910156 74.296875 63.371094 C 74.390625 69.972656 73.25 75.496094 71.148438 79.738281 C 70.097656 81.492188 68.953125 83.148438 67.730469 84.703125 C 62.042969 90.652344 53.175781 91.425781 43.132812 85.585938 Z M 43.132812 85.585938 "/>
<path style=" stroke:none;fill-rule:nonzero;fill:rgb(94.901961%,67.45098%,67.45098%);fill-opacity:1;" d="M 13.140625 26.417969 C 13.027344 17.808594 15.121094 11.148438 19.191406 7.152344 C 20.207031 6.308594 21.253906 5.535156 22.304688 4.847656 C 27.378906 2.140625 34.035156 2.894531 41.066406 6.980469 C 49.164062 11.6875 56.847656 20.183594 62.710938 30.910156 C 68.542969 41.582031 71.835938 53.113281 71.980469 63.375 L 71.980469 63.425781 C 72.058594 69.210938 71.136719 74.109375 69.242188 77.984375 C 68.300781 79.542969 67.269531 81.042969 66.167969 82.449219 C 60.9375 87.839844 52.882812 87.992188 44.058594 82.859375 C 35.960938 78.152344 28.273438 69.652344 22.410156 58.929688 C 16.578125 48.257812 13.289062 36.730469 13.144531 26.464844 Z M 13.140625 26.417969 "/>
<path style=" stroke:none;fill-rule:nonzero;fill:rgb(91.764706%,49.803922%,50.196078%);fill-opacity:1;" d="M 15.460938 26.417969 C 15.363281 18.84375 17.121094 13.039062 20.542969 9.617188 C 21.449219 8.875 22.375 8.1875 23.300781 7.578125 C 27.773438 5.238281 33.75 5.992188 40.140625 9.707031 C 47.855469 14.191406 55.203125 22.328125 60.820312 32.609375 C 66.386719 42.785156 69.523438 53.714844 69.660156 63.375 L 69.660156 63.425781 C 69.730469 68.5625 68.945312 72.871094 67.332031 76.234375 C 66.496094 77.609375 65.582031 78.941406 64.613281 80.1875 C 60.070312 84.765625 52.925781 84.75 44.980469 80.128906 C 37.261719 75.644531 29.917969 67.511719 24.300781 57.230469 C 18.734375 47.050781 15.597656 36.125 15.460938 26.460938 Z M 15.460938 26.417969 "/>
<path style=" stroke:none;fill-rule:nonzero;fill:rgb(87.843137%,31.764706%,31.764706%);fill-opacity:1;" d="M 56.113281 80.300781 C 53.109375 80.300781 49.628906 79.203125 46.046875 77.121094 C 38.746094 72.875 31.769531 65.136719 26.414062 55.335938 C 21.140625 45.691406 18.167969 35.414062 18.042969 26.402344 L 18.042969 26.363281 C 17.984375 21.875 18.632812 15.8125 22.042969 12.316406 C 22.804688 11.691406 23.59375 11.113281 24.378906 10.589844 C 25.738281 9.902344 27.292969 9.554688 29.015625 9.554688 C 32.03125 9.554688 35.511719 10.648438 39.078125 12.722656 C 46.378906 16.964844 53.351562 24.703125 58.710938 34.507812 C 63.980469 44.152344 66.953125 54.425781 67.082031 63.4375 L 67.082031 63.488281 C 67.140625 67.898438 66.507812 71.554688 65.207031 74.355469 C 64.492188 75.519531 63.71875 76.644531 62.898438 77.710938 C 61.128906 79.429688 58.847656 80.300781 56.113281 80.300781 Z M 56.113281 80.300781 "/>
<path style=" stroke:none;fill-rule:nonzero;fill:rgb(87.45098%,22.745098%,22.745098%);fill-opacity:1;" d="M 56.113281 76.996094 C 53.472656 76.996094 50.363281 75.996094 47.113281 74.109375 C 40.226562 70.101562 33.625 62.761719 28.527344 53.4375 C 23.546875 44.324219 20.742188 34.703125 20.625 26.339844 L 20.625 26.3125 C 20.574219 22.621094 21.046875 17.6875 23.550781 15 C 24.171875 14.5 24.808594 14.03125 25.445312 13.601562 C 26.472656 13.105469 27.671875 12.855469 29.011719 12.855469 C 31.664062 12.855469 34.773438 13.851562 38.007812 15.730469 C 44.894531 19.734375 51.492188 27.078125 56.59375 36.402344 C 61.574219 45.515625 64.378906 55.136719 64.496094 63.496094 L 64.496094 63.546875 C 64.546875 67.234375 64.0625 70.238281 63.066406 72.488281 C 62.484375 73.425781 61.855469 74.339844 61.195312 75.207031 C 59.902344 76.394531 58.191406 76.996094 56.113281 76.996094 Z M 56.113281 76.996094 "/>
<g clip-path="url(#clip6)" clip-rule="nonzero">
<path style=" stroke:none;fill-rule:nonzero;fill:rgb(69.019608%,81.176471%,42.352941%);fill-opacity:1;" d="M 51.796875 93.667969 C 51.707031 93.816406 51.570312 93.878906 51.4375 93.925781 C 50.914062 94.101562 50.363281 94.050781 49.796875 93.898438 C 48.082031 93.449219 46.25 92.140625 44.824219 93.757812 C 44.777344 93.808594 44.730469 93.871094 44.71875 93.953125 C 44.703125 94.078125 44.785156 94.179688 44.855469 94.257812 C 45.121094 94.527344 46.402344 95.460938 45.945312 96.175781 C 45.832031 96.355469 45.65625 96.410156 45.492188 96.460938 C 44.773438 96.660156 44.054688 96.871094 43.335938 97.089844 C 43.453125 97.824219 43.785156 98.472656 44.21875 98.875 C 43.375 98.980469 42.523438 99.054688 41.660156 99.089844 C 41.222656 99.113281 40.777344 99.121094 40.335938 99.121094 C 40.183594 99.121094 40.03125 99.121094 39.882812 99.117188 C 39.605469 99.113281 39.328125 99.105469 39.050781 99.089844 C 35.394531 98.941406 31.851562 98.152344 28.492188 96.804688 C 28.445312 96.785156 28.394531 96.765625 28.34375 96.746094 C 28.175781 95.96875 28.023438 94.46875 28.191406 94.179688 C 28.402344 93.816406 28.722656 93.640625 29.035156 93.488281 C 29.558594 93.21875 30.109375 92.949219 30.65625 93.089844 C 32.542969 93.570312 33.003906 95.339844 34.394531 92.453125 C 34.859375 91.488281 35.472656 91.160156 36.0625 90.464844 C 36.382812 90.085938 36.628906 90.386719 36.703125 89.773438 C 36.792969 89.023438 36.027344 87.730469 35.789062 87.152344 C 35.769531 87.097656 35.746094 87.039062 35.75 86.976562 C 35.761719 86.84375 35.871094 86.796875 35.964844 86.777344 C 37.066406 86.585938 38.160156 86.976562 39.265625 86.777344 C 40.355469 86.578125 41.027344 86.027344 41.492188 84.679688 C 41.503906 84.652344 41.511719 84.625 41.519531 84.59375 C 42.054688 84.9375 42.59375 85.269531 43.132812 85.582031 C 43.585938 85.847656 44.039062 86.097656 44.484375 86.335938 C 45.738281 86.996094 46.972656 87.554688 48.183594 88.011719 C 48.621094 88.175781 49.054688 88.328125 49.488281 88.464844 C 50.070312 89.851562 50.863281 90.972656 51.59375 92.28125 C 51.820312 92.683594 52.039062 93.289062 51.796875 93.667969 Z M 51.796875 93.667969 "/>
</g>
<path style=" stroke:none;fill-rule:nonzero;fill:rgb(69.019608%,81.176471%,42.352941%);fill-opacity:1;" d="M 29.140625 77.261719 C 30.425781 79.089844 30.742188 78.984375 30.476562 79.628906 C 30.082031 80.59375 27.863281 80.222656 27.207031 80.234375 C 27.632812 80.886719 28.058594 81.535156 28.484375 82.191406 C 28.53125 82.261719 28.582031 82.34375 28.589844 82.4375 C 28.609375 82.683594 28.359375 82.800781 28.167969 82.820312 C 27.523438 82.890625 26.878906 82.867188 26.242188 82.75 C 26.527344 83.117188 26.554688 83.765625 26.300781 84.167969 C 26.003906 84.640625 25.464844 84.703125 24.988281 84.65625 C 24.519531 84.613281 24.019531 84.507812 23.589844 84.769531 C 22.066406 85.703125 25.113281 87.972656 22.40625 88.804688 C 21.84375 88.976562 21.1875 89.121094 20.746094 88.648438 C 20.585938 88.472656 20.472656 88.230469 20.308594 88.054688 C 19.234375 86.890625 19.507812 91.570312 19.386719 91.476562 C 18.949219 91.128906 18.515625 90.769531 18.085938 90.398438 C 15.789062 88.421875 13.65625 86.152344 11.71875 83.625 C 11.984375 83.640625 12.523438 83.675781 12.882812 83.8125 C 13.378906 84 13.777344 84.195312 13.992188 83.402344 C 14.09375 83.03125 13.847656 82.769531 14.003906 82.476562 C 14.351562 81.808594 15.765625 82.074219 16.257812 82.074219 C 16.410156 82.074219 16.566406 82.070312 16.707031 81.984375 C 17.640625 81.414062 16.839844 79.300781 17.824219 78.507812 C 18.121094 78.269531 18.460938 78.117188 18.738281 77.84375 C 19.980469 76.605469 18.796875 75.609375 18.882812 74.242188 C 18.984375 72.730469 21.136719 72.480469 21.917969 72.910156 C 23.183594 73.601562 23.609375 73.75 24.097656 71.902344 C 24.277344 71.21875 25.167969 69.730469 25.71875 69.472656 C 25.808594 69.425781 25.945312 69.410156 26.066406 69.410156 C 28.191406 72.339844 30.480469 75.058594 32.890625 77.492188 C 31.210938 77.949219 29.140625 77.261719 29.140625 77.261719 Z M 29.140625 77.261719 "/>
<path style=" stroke:none;fill-rule:nonzero;fill:rgb(69.019608%,81.176471%,42.352941%);fill-opacity:1;" d="M 4.722656 71.386719 L 7.289062 71.792969 C 7.289062 71.792969 7.265625 71.015625 7.117188 70.554688 C 6.652344 69.105469 8.105469 70.046875 8.296875 68.878906 C 8.351562 68.535156 8.285156 68.175781 8.257812 67.824219 C 8.234375 67.46875 8.261719 67.078125 8.457031 66.824219 C 8.945312 66.203125 9.898438 67.035156 10.433594 66.476562 C 10.636719 66.265625 10.707031 65.917969 10.828125 65.617188 C 11.449219 64.019531 13.046875 64.332031 14.042969 65.078125 C 14.042969 65.078125 15.378906 63.183594 14.960938 62.4375 C 14.496094 61.609375 13.875 61.25 14.589844 60.371094 C 14.683594 60.253906 17.511719 58.140625 17.234375 58.019531 C 17.679688 58.214844 18.125 58.550781 18.59375 58.660156 C 18.941406 58.738281 19.261719 59.605469 19.410156 58.515625 C 18.882812 57.476562 18.375 56.433594 17.882812 55.371094 C 17 53.449219 16.183594 51.496094 15.449219 49.515625 C 15.640625 50.363281 15.703125 50.285156 15.507812 50.53125 C 15.210938 50.902344 15.117188 51.898438 14.613281 51.230469 C 14.101562 50.566406 14.21875 50.445312 13.855469 50.417969 C 13.492188 50.394531 13.628906 49.882812 13.140625 50.761719 C 12.664062 51.621094 12.972656 51.941406 12.8125 52.171875 C 12.753906 52.25 12.753906 52.347656 12.699219 52.421875 C 12.074219 52.261719 11.5 51.773438 11.304688 50.96875 C 10.925781 52.367188 10.957031 53.933594 11.390625 55.304688 C 11 54.941406 9.90625 53.421875 9.445312 54.320312 C 9.308594 54.589844 9.300781 54.929688 9.296875 55.25 C 9.289062 55.867188 9.28125 56.480469 9.277344 57.097656 C 8.820312 56.734375 8.367188 56.371094 7.910156 56.007812 C 7.785156 55.90625 7.625 55.808594 7.503906 55.910156 C 7.394531 56.003906 7.386719 56.207031 7.394531 56.378906 C 7.414062 56.875 7.46875 57.382812 7.394531 57.851562 C 6.863281 57.753906 6.234375 58.117188 6.148438 58.863281 C 6.089844 59.355469 6.292969 60.445312 5.964844 60.816406 C 5.046875 61.882812 3.65625 59.1875 3.246094 61.71875 C 3.191406 62.0625 3.148438 62.417969 3.21875 62.757812 C 3.335938 63.332031 4.789062 64.429688 3.390625 64.363281 C 2.898438 64.335938 2.546875 64.300781 2.289062 64.277344 C 2.289062 64.28125 4.71875 71.386719 4.722656 71.386719 Z M 4.722656 71.386719 "/>
<path style=" stroke:none;fill-rule:nonzero;fill:rgb(69.019608%,81.176471%,42.352941%);fill-opacity:1;" d="M 10.808594 27.417969 C 10.75 27.238281 10.324219 26.476562 10.449219 26.320312 C 10.472656 26.292969 10.648438 26.195312 10.820312 26.125 C 10.820312 26.242188 10.820312 26.355469 10.824219 26.46875 C 10.828125 26.84375 10.835938 27.210938 10.851562 27.585938 C 10.839844 27.523438 10.828125 27.472656 10.808594 27.417969 Z M 10.808594 27.417969 "/>
<path style=" stroke:none;fill-rule:nonzero;fill:rgb(69.019608%,81.176471%,42.352941%);fill-opacity:1;" d="M 11.269531 36.472656 C 11.378906 37.15625 11.425781 37.859375 11.410156 38.566406 C 11.40625 38.765625 11.335938 39.03125 11.121094 39.070312 C 11.035156 39.089844 10.953125 39.054688 10.878906 39.019531 C 10.199219 38.714844 9.582031 38.265625 8.808594 38.105469 C 8.964844 38.136719 8.777344 41.007812 8.617188 41.382812 C 8.527344 41.609375 8.304688 41.828125 8.054688 41.855469 C 7.855469 41.875 7.6875 41.777344 7.535156 41.679688 C 7.136719 41.433594 6.75 41.152344 6.308594 40.988281 C 6.621094 42.566406 6.628906 43.851562 6.152344 45.554688 C 6.308594 45 4.453125 44.320312 4 44.660156 C 3.441406 45.089844 3.910156 46.34375 3.375 46.914062 C 2.484375 47.855469 2.089844 46.359375 1.445312 46.285156 C 0.484375 46.179688 0.734375 46.738281 0.199219 47.429688 C -0.0664062 47.769531 0.0195312 47.660156 0.320312 48.632812 C 0.21875 48.429688 0.113281 48.226562 0.0117188 48.027344 C 0.0078125 47.992188 0.0078125 47.957031 0.0078125 47.921875 C 0.00390625 47.679688 0.00390625 47.433594 0.00390625 47.191406 C 0.00390625 46.71875 0.0078125 46.246094 0.015625 45.777344 C 0.0664062 42.972656 0.292969 40.230469 0.6875 37.566406 C 0.789062 36.859375 0.902344 36.15625 1.027344 35.460938 C 1.132812 35.375 1.234375 35.277344 1.335938 35.167969 C 1.84375 34.605469 1.683594 34.222656 1.34375 33.839844 C 1.464844 33.25 1.59375 32.664062 1.734375 32.085938 C 1.75 32.003906 1.773438 31.921875 1.792969 31.84375 C 1.957031 31.164062 2.132812 30.492188 2.320312 29.824219 C 2.972656 29.933594 3.957031 29.980469 4.089844 29.953125 C 5.046875 29.769531 5.941406 29.097656 6.261719 28.1875 C 6.375 27.882812 6.417969 27.566406 6.558594 27.265625 C 7.074219 26.167969 8.492188 26.855469 9.316406 26.28125 C 9.910156 25.875 9.894531 25.097656 9.792969 24.484375 C 9.738281 24.148438 9.609375 23.554688 9.835938 23.195312 C 10.074219 22.816406 10.535156 22.769531 10.917969 22.632812 C 10.84375 23.761719 10.8125 24.929688 10.824219 26.125 C 10.820312 26.242188 10.824219 26.355469 10.828125 26.472656 C 10.832031 26.84375 10.835938 27.210938 10.851562 27.585938 C 10.851562 27.589844 10.851562 27.589844 10.851562 27.59375 C 10.851562 27.621094 10.851562 27.648438 10.855469 27.675781 C 10.933594 29.914062 11.152344 32.1875 11.496094 34.480469 C 11.601562 35.179688 11.71875 35.878906 11.851562 36.578125 C 11.640625 36.59375 11.4375 36.558594 11.269531 36.472656 Z M 11.269531 36.472656 "/>
<path style=" stroke:none;fill-rule:nonzero;fill:rgb(10.980392%,11.372549%,11.372549%);fill-opacity:1;" d="M 56.109375 66.507812 L 56 70.222656 C 55.992188 70.476562 56.109375 70.710938 56.289062 70.800781 C 56.824219 71.070312 57.949219 71.371094 58.347656 69.535156 C 58.390625 69.335938 58.339844 69.117188 58.222656 68.976562 Z M 56.109375 66.507812 "/>
<path style=" stroke:none;fill-rule:nonzero;fill:rgb(10.980392%,11.372549%,11.372549%);fill-opacity:1;" d="M 46.355469 32.949219 L 48.933594 31.730469 C 49.109375 31.648438 49.226562 31.417969 49.214844 31.164062 C 49.183594 30.386719 48.945312 28.871094 47.535156 29.039062 C 47.378906 29.054688 47.25 29.203125 47.203125 29.398438 Z M 46.355469 32.949219 "/>
<path style=" stroke:none;fill-rule:nonzero;fill:rgb(10.980392%,11.372549%,11.372549%);fill-opacity:1;" d="M 38.484375 24.960938 L 40.285156 22.195312 C 40.410156 22.003906 40.425781 21.726562 40.324219 21.503906 C 40.023438 20.84375 39.273438 19.660156 38.113281 20.734375 C 37.988281 20.851562 37.925781 21.0625 37.953125 21.269531 Z M 38.484375 24.960938 "/>
<path style=" stroke:none;fill-rule:nonzero;fill:rgb(10.980392%,11.372549%,11.372549%);fill-opacity:1;" d="M 29.859375 21.824219 L 29.476562 18.128906 C 29.453125 17.875 29.308594 17.671875 29.117188 17.628906 C 28.554688 17.496094 27.414062 17.46875 27.265625 19.375 C 27.246094 19.582031 27.328125 19.785156 27.464844 19.894531 Z M 29.859375 21.824219 "/>
<path style=" stroke:none;fill-rule:nonzero;fill:rgb(10.980392%,11.372549%,11.372549%);fill-opacity:1;" d="M 27.464844 31.835938 L 25.320312 29.457031 C 25.175781 29.296875 24.964844 29.277344 24.8125 29.417969 C 24.339844 29.847656 23.507812 30.886719 24.367188 32.433594 C 24.460938 32.605469 24.621094 32.683594 24.769531 32.636719 Z M 27.464844 31.835938 "/>
<path style=" stroke:none;fill-rule:nonzero;fill:rgb(10.980392%,11.372549%,11.372549%);fill-opacity:1;" d="M 37.433594 54.425781 L 35.101562 56.335938 C 34.941406 56.464844 34.863281 56.722656 34.914062 56.972656 C 35.058594 57.726562 35.519531 59.148438 36.871094 58.59375 C 37.015625 58.535156 37.121094 58.359375 37.136719 58.148438 Z M 37.433594 54.425781 "/>
<path style=" stroke:none;fill-rule:nonzero;fill:rgb(10.980392%,11.372549%,11.372549%);fill-opacity:1;" d="M 45.472656 63.082031 L 43.941406 66.132812 C 43.835938 66.34375 43.847656 66.625 43.964844 66.824219 C 44.328125 67.4375 45.175781 68.484375 46.226562 67.222656 C 46.339844 67.085938 46.382812 66.867188 46.335938 66.664062 Z M 45.472656 63.082031 "/>
<path style=" stroke:none;fill-rule:nonzero;fill:rgb(10.980392%,11.372549%,11.372549%);fill-opacity:1;" d="M 31.890625 43.113281 L 29.152344 42.796875 C 28.964844 42.773438 28.785156 42.917969 28.71875 43.15625 C 28.515625 43.875 28.28125 45.382812 29.628906 46.007812 C 29.773438 46.074219 29.933594 46.015625 30.039062 45.863281 Z M 31.890625 43.113281 "/>
<path style=" stroke:none;fill-rule:nonzero;fill:rgb(10.980392%,11.372549%,11.372549%);fill-opacity:1;" d="M 57.507812 55.125 L 59.632812 57.539062 C 59.777344 57.703125 59.984375 57.722656 60.140625 57.585938 C 60.617188 57.164062 61.453125 56.140625 60.613281 54.578125 C 60.523438 54.40625 60.359375 54.324219 60.210938 54.367188 Z M 57.507812 55.125 "/>
<path style=" stroke:none;fill-rule:nonzero;fill:rgb(10.980392%,11.372549%,11.372549%);fill-opacity:1;" d="M 53.179688 44.273438 L 55.925781 44.269531 C 56.113281 44.269531 56.277344 44.105469 56.332031 43.859375 C 56.488281 43.117188 56.628906 41.589844 55.246094 41.121094 C 55.09375 41.070312 54.941406 41.148438 54.84375 41.3125 Z M 53.179688 44.273438 "/>
</g>
</svg>
