<?xml version="1.0" encoding="UTF-8"?>
<svg xmlns="http://www.w3.org/2000/svg" xmlns:xlink="http://www.w3.org/1999/xlink" width="640px" height="800px" viewBox="0 0 640 800" version="1.1">
<defs>
<clipPath id="clip1">
  <path d="M 274 35 L 354 35 L 354 792.960938 L 274 792.960938 Z M 274 35 "/>
</clipPath>
<clipPath id="clip2">
  <path d="M 429 35 L 550 35 L 550 792.960938 L 429 792.960938 Z M 429 35 "/>
</clipPath>
<clipPath id="clip3">
  <path d="M 557 35 L 637.933594 35 L 637.933594 792.960938 L 557 792.960938 Z M 557 35 "/>
</clipPath>
<clipPath id="clip4">
  <path d="M 144 36 L 266 36 L 266 792.960938 L 144 792.960938 Z M 144 36 "/>
</clipPath>
<clipPath id="clip5">
  <path d="M 0 37 L 124 37 L 124 792.960938 L 0 792.960938 Z M 0 37 "/>
</clipPath>
<clipPath id="clip6">
  <path d="M 51 676 L 95 676 L 95 792.960938 L 51 792.960938 Z M 51 676 "/>
</clipPath>
</defs>
<g id="surface1">
<g clip-path="url(#clip1)" clip-rule="nonzero">
<path style=" stroke:none;fill-rule:nonzero;fill:rgb(100%,100%,100%);fill-opacity:1;" d="M 352.277344 181.074219 C 353.132812 168.28125 353.570312 154.71875 353.5625 141.050781 C 353.5625 110.59375 351.753906 85.359375 348.132812 65.359375 C 344.511719 45.359375 339.988281 35.34375 334.5625 35.3125 C 317.601562 35.3125 303.289062 68.015625 291.625 133.425781 C 279.960938 198.835938 274.125 279.0625 274.121094 374.109375 C 274.121094 387.488281 274.265625 400.859375 274.550781 414.144531 C 274.265625 427.425781 274.121094 440.792969 274.121094 454.167969 C 274.121094 549.234375 279.957031 629.460938 291.625 694.851562 C 303.292969 760.238281 317.605469 792.945312 334.5625 792.964844 C 339.988281 792.964844 344.511719 782.949219 348.132812 762.914062 C 351.753906 742.882812 353.5625 717.664062 353.5625 687.257812 C 353.570312 673.578125 353.132812 660.007812 352.277344 647.203125 C 353.132812 634.398438 353.570312 620.828125 353.5625 607.148438 C 353.5625 575.113281 351.609375 548.953125 347.695312 528.671875 C 351.609375 508.398438 353.5625 482.234375 353.5625 450.175781 C 353.570312 436.503906 353.132812 422.9375 352.277344 410.136719 C 353.132812 397.335938 353.570312 383.761719 353.5625 370.085938 C 353.5625 340.738281 351.847656 315.917969 348.417969 295.613281 C 351.84375 275.320312 353.558594 250.492188 353.5625 221.128906 C 353.570312 207.449219 353.132812 193.878906 352.277344 181.074219 Z M 344.882812 198.988281 C 342.207031 213.988281 338.640625 221.910156 334.550781 221.910156 C 330.054688 221.863281 325.628906 228.058594 321.667969 239.941406 C 317.703125 251.824219 314.328125 269.027344 311.839844 290.007812 L 334.550781 290.007812 C 338.59375 290.007812 342.148438 297.726562 344.828125 312.304688 C 347.539062 327.117188 348.972656 347.097656 348.972656 370.066406 C 348.972656 393.039062 347.554688 413.003906 344.875 428.003906 C 342.195312 443.003906 338.625 450.945312 334.539062 450.945312 L 311.054688 450.945312 C 312.890625 468.542969 315.347656 483.847656 318.28125 495.898438 C 322.941406 515.933594 328.667969 526.621094 334.539062 526.261719 C 338.617188 526.261719 342.1875 534.214844 344.875 549.230469 C 347.566406 564.246094 348.972656 584.242188 348.972656 607.164062 C 348.972656 630.089844 347.539062 650.144531 344.832031 664.945312 C 342.128906 679.738281 338.664062 687.238281 334.550781 687.238281 C 318.933594 687.238281 305.582031 656.753906 294.855469 596.640625 C 284.132812 536.53125 278.683594 461.621094 278.683594 374.125 C 278.683594 286.625 284.128906 211.765625 294.855469 151.636719 C 305.585938 91.507812 318.929688 61.007812 334.550781 61.007812 C 338.664062 61.007812 342.121094 68.523438 344.832031 83.335938 C 347.546875 98.148438 348.972656 118.082031 348.972656 141.082031 C 348.972656 164.085938 347.570312 184.003906 344.882812 198.988281 Z M 344.882812 198.988281 "/>
</g>
<path style=" stroke:none;fill-rule:nonzero;fill:rgb(87.45098%,31.372549%,31.764706%);fill-opacity:1;" d="M 334.5625 450.953125 L 311.078125 450.953125 C 312.914062 468.550781 315.375 483.855469 318.308594 495.90625 C 322.96875 515.941406 328.691406 526.628906 334.5625 526.265625 C 338.644531 526.265625 342.210938 534.222656 344.898438 549.238281 C 347.589844 564.253906 348.996094 584.25 348.996094 607.171875 C 348.996094 630.097656 347.566406 650.152344 344.859375 664.953125 C 342.152344 679.746094 338.6875 687.246094 334.574219 687.246094 C 318.957031 687.246094 305.605469 656.761719 294.882812 596.648438 C 284.15625 536.539062 278.707031 461.628906 278.707031 374.132812 C 278.707031 286.632812 284.152344 211.773438 294.882812 151.644531 C 305.609375 91.519531 318.953125 61.015625 334.574219 61.015625 C 338.6875 61.015625 342.144531 68.53125 344.859375 83.34375 C 347.570312 98.15625 348.996094 118.089844 348.996094 141.089844 C 348.996094 164.09375 347.578125 184.042969 344.894531 199.027344 C 342.210938 214.011719 338.652344 221.949219 334.558594 221.949219 C 330.066406 221.902344 325.640625 228.097656 321.675781 239.980469 C 317.714844 251.867188 314.339844 269.066406 311.851562 290.046875 L 334.558594 290.046875 C 338.601562 290.046875 342.160156 297.769531 344.839844 312.34375 C 347.550781 327.15625 348.984375 347.136719 348.984375 370.109375 C 348.984375 393.078125 347.566406 413.042969 344.886719 428.042969 C 342.207031 443.042969 338.644531 450.953125 334.5625 450.953125 Z M 334.5625 450.953125 "/>
<path style=" stroke:none;fill-rule:nonzero;fill:rgb(100%,100%,100%);fill-opacity:1;" d="M 426.667969 605.566406 C 426.667969 575.117188 424.882812 549.746094 421.308594 529.453125 C 417.734375 509.160156 413.230469 499.019531 407.804688 499.03125 L 401.519531 499.03125 C 399.992188 499.03125 399.234375 494.785156 399.234375 486.207031 L 399.234375 141.050781 C 399.234375 110.59375 397.425781 85.359375 393.804688 65.359375 C 390.1875 45.359375 385.664062 35.34375 380.230469 35.3125 C 374.800781 35.3125 370.296875 45.328125 366.730469 65.359375 C 363.160156 85.394531 361.375 110.625 361.371094 141.050781 L 361.371094 566.3125 C 361.371094 629.855469 365.226562 683.242188 372.945312 726.480469 C 380.65625 769.71875 390.183594 791.34375 401.519531 791.351562 L 407.804688 791.351562 C 413.230469 791.351562 417.734375 781.347656 421.308594 761.335938 C 424.882812 741.324219 426.667969 716.09375 426.667969 685.644531 C 426.675781 671.964844 426.238281 658.394531 425.378906 645.589844 C 426.253906 632.820312 426.6875 619.242188 426.667969 605.566406 Z M 418.066406 663.0625 C 415.394531 678.019531 411.949219 685.597656 407.804688 685.597656 L 401.519531 685.597656 C 391.410156 685.597656 382.859375 666.429688 376.101562 628.648438 C 369.339844 590.863281 365.9375 542.921875 365.9375 486.15625 L 365.9375 141.050781 C 365.9375 117.863281 367.292969 98.507812 369.964844 83.539062 C 372.585938 68.804688 376.132812 60.976562 380.21875 60.976562 C 384.304688 60.976562 387.792969 68.492188 390.503906 83.304688 C 393.214844 98.117188 394.644531 118.050781 394.644531 141.050781 L 394.644531 486.207031 C 394.644531 497.386719 395.273438 506.058594 396.621094 513.574219 C 397.964844 521.09375 399.519531 524.660156 401.507812 524.660156 L 407.792969 524.660156 C 411.886719 524.660156 415.453125 532.710938 418.097656 547.867188 C 420.738281 563.023438 422.078125 582.488281 422.078125 605.550781 C 422.078125 628.617188 420.699219 648.253906 418.066406 663.0625 Z M 418.066406 663.0625 "/>
<path style=" stroke:none;fill-rule:nonzero;fill:rgb(87.45098%,31.372549%,31.764706%);fill-opacity:1;" d="M 422.078125 605.550781 C 422.078125 628.414062 420.679688 648.300781 418.050781 663.0625 C 415.421875 677.828125 411.933594 685.597656 407.792969 685.597656 L 401.507812 685.597656 C 391.390625 685.597656 382.847656 666.433594 376.085938 628.648438 C 369.328125 590.867188 365.917969 542.921875 365.917969 486.15625 L 365.917969 141.050781 C 365.917969 117.863281 367.273438 98.507812 369.945312 83.539062 C 372.570312 68.804688 376.113281 60.976562 380.203125 60.976562 C 384.289062 60.976562 387.777344 68.492188 390.484375 83.304688 C 393.199219 98.117188 394.632812 118.050781 394.632812 141.050781 L 394.632812 486.207031 C 394.632812 497.386719 395.257812 506.058594 396.601562 513.574219 C 397.949219 521.09375 399.5 524.660156 401.492188 524.660156 L 407.777344 524.660156 C 411.871094 524.660156 415.433594 532.710938 418.078125 547.867188 C 420.722656 563.023438 422.078125 582.488281 422.078125 605.550781 Z M 422.078125 605.550781 "/>
<g clip-path="url(#clip2)" clip-rule="nonzero">
<path style=" stroke:none;fill-rule:nonzero;fill:rgb(100%,100%,100%);fill-opacity:1;" d="M 508.875 265.441406 C 503.652344 236.160156 497.3125 221.910156 489.488281 221.910156 C 481.664062 221.910156 475.316406 236.003906 470.089844 265.097656 C 464.867188 294.191406 462.339844 329.765625 462.339844 374.09375 C 462.339844 417.9375 464.898438 453.433594 470.160156 482.683594 C 475.417969 511.933594 481.746094 526.273438 489.484375 526.273438 C 497.304688 526.273438 503.648438 512.042969 508.863281 482.761719 C 514.082031 453.480469 516.632812 417.953125 516.632812 374.09375 C 516.632812 330.234375 514.101562 294.707031 508.875 265.441406 Z M 503.0625 476.621094 C 499.148438 492.644531 494.625 500.652344 489.488281 500.640625 C 484.355469 500.632812 479.855469 492.625 475.996094 476.621094 C 472.210938 461.175781 469.429688 439.246094 468.0625 414.144531 C 469.304688 388.71875 472.082031 366.492188 475.921875 351.277344 C 479.835938 335.527344 484.359375 327.65625 489.496094 327.664062 C 495.875 327.664062 501.257812 339.671875 505.640625 363.679688 C 508.105469 377.675781 509.960938 394.65625 511.070312 413.316406 C 509.722656 438.8125 506.910156 461.082031 503.0625 476.621094 Z M 508.875 265.441406 C 503.652344 236.160156 497.3125 221.910156 489.488281 221.910156 C 481.664062 221.910156 475.316406 236.003906 470.089844 265.097656 C 464.867188 294.191406 462.339844 329.765625 462.339844 374.09375 C 462.339844 417.9375 464.898438 453.433594 470.160156 482.683594 C 475.417969 511.933594 481.746094 526.273438 489.484375 526.273438 C 497.304688 526.273438 503.648438 512.042969 508.863281 482.761719 C 514.082031 453.480469 516.632812 417.953125 516.632812 374.09375 C 516.632812 330.234375 514.101562 294.707031 508.875 265.441406 Z M 503.0625 476.621094 C 499.148438 492.644531 494.625 500.652344 489.488281 500.640625 C 484.355469 500.632812 479.855469 492.625 475.996094 476.621094 C 472.210938 461.175781 469.429688 439.246094 468.0625 414.144531 C 469.304688 388.71875 472.082031 366.492188 475.921875 351.277344 C 479.835938 335.527344 484.359375 327.65625 489.496094 327.664062 C 495.875 327.664062 501.257812 339.671875 505.640625 363.679688 C 508.105469 377.675781 509.960938 394.65625 511.070312 413.316406 C 509.722656 438.8125 506.910156 461.082031 503.0625 476.621094 Z M 508.875 265.441406 C 503.652344 236.160156 497.3125 221.910156 489.488281 221.910156 C 481.664062 221.910156 475.316406 236.003906 470.089844 265.097656 C 464.867188 294.191406 462.339844 329.765625 462.339844 374.09375 C 462.339844 417.9375 464.898438 453.433594 470.160156 482.683594 C 475.417969 511.933594 481.746094 526.273438 489.484375 526.273438 C 497.304688 526.273438 503.648438 512.042969 508.863281 482.761719 C 514.082031 453.480469 516.632812 417.953125 516.632812 374.09375 C 516.632812 330.234375 514.101562 294.707031 508.875 265.441406 Z M 503.0625 476.621094 C 499.148438 492.644531 494.625 500.652344 489.488281 500.640625 C 484.355469 500.632812 479.855469 492.625 475.996094 476.621094 C 472.210938 461.175781 469.429688 439.246094 468.0625 414.144531 C 469.304688 388.71875 472.082031 366.492188 475.921875 351.277344 C 479.835938 335.527344 484.359375 327.65625 489.496094 327.664062 C 495.875 327.664062 501.257812 339.671875 505.640625 363.679688 C 508.105469 377.675781 509.960938 394.65625 511.070312 413.316406 C 509.722656 438.8125 506.910156 461.082031 503.0625 476.621094 Z M 508.875 265.441406 C 503.652344 236.160156 497.3125 221.910156 489.488281 221.910156 C 481.664062 221.910156 475.316406 236.003906 470.089844 265.097656 C 464.867188 294.191406 462.339844 329.765625 462.339844 374.09375 C 462.339844 417.9375 464.898438 453.433594 470.160156 482.683594 C 475.417969 511.933594 481.746094 526.273438 489.484375 526.273438 C 497.304688 526.273438 503.648438 512.042969 508.863281 482.761719 C 514.082031 453.480469 516.632812 417.953125 516.632812 374.09375 C 516.632812 330.234375 514.101562 294.707031 508.875 265.441406 Z M 503.0625 476.621094 C 499.148438 492.644531 494.625 500.652344 489.488281 500.640625 C 484.355469 500.632812 479.855469 492.625 475.996094 476.621094 C 472.210938 461.175781 469.429688 439.246094 468.0625 414.144531 C 469.304688 388.71875 472.082031 366.492188 475.921875 351.277344 C 479.835938 335.527344 484.359375 327.65625 489.496094 327.664062 C 495.875 327.664062 501.257812 339.671875 505.640625 363.679688 C 508.105469 377.675781 509.960938 394.65625 511.070312 413.316406 C 509.722656 438.8125 506.910156 461.082031 503.0625 476.621094 Z M 508.875 265.441406 C 503.652344 236.160156 497.3125 221.910156 489.488281 221.910156 C 481.664062 221.910156 475.316406 236.003906 470.089844 265.097656 C 464.867188 294.191406 462.339844 329.765625 462.339844 374.09375 C 462.339844 417.9375 464.898438 453.433594 470.160156 482.683594 C 475.417969 511.933594 481.746094 526.273438 489.484375 526.273438 C 497.304688 526.273438 503.648438 512.042969 508.863281 482.761719 C 514.082031 453.480469 516.632812 417.953125 516.632812 374.09375 C 516.632812 330.234375 514.101562 294.707031 508.875 265.441406 Z M 503.0625 476.621094 C 499.148438 492.644531 494.625 500.652344 489.488281 500.640625 C 484.355469 500.632812 479.855469 492.625 475.996094 476.621094 C 472.210938 461.175781 469.429688 439.246094 468.0625 414.144531 C 469.304688 388.71875 472.082031 366.492188 475.921875 351.277344 C 479.835938 335.527344 484.359375 327.65625 489.496094 327.664062 C 495.875 327.664062 501.257812 339.671875 505.640625 363.679688 C 508.105469 377.675781 509.960938 394.65625 511.070312 413.316406 C 509.722656 438.8125 506.910156 461.082031 503.0625 476.621094 Z M 508.875 265.441406 C 503.652344 236.160156 497.3125 221.910156 489.488281 221.910156 C 481.664062 221.910156 475.316406 236.003906 470.089844 265.097656 C 464.867188 294.191406 462.339844 329.765625 462.339844 374.09375 C 462.339844 417.9375 464.898438 453.433594 470.160156 482.683594 C 475.417969 511.933594 481.746094 526.273438 489.484375 526.273438 C 497.304688 526.273438 503.648438 512.042969 508.863281 482.761719 C 514.082031 453.480469 516.632812 417.953125 516.632812 374.09375 C 516.632812 330.234375 514.101562 294.707031 508.875 265.441406 Z M 503.0625 476.621094 C 499.148438 492.644531 494.625 500.652344 489.488281 500.640625 C 484.355469 500.632812 479.855469 492.625 475.996094 476.621094 C 472.210938 461.175781 469.429688 439.246094 468.0625 414.144531 C 469.304688 388.71875 472.082031 366.492188 475.921875 351.277344 C 479.835938 335.527344 484.359375 327.65625 489.496094 327.664062 C 495.875 327.664062 501.257812 339.671875 505.640625 363.679688 C 508.105469 377.675781 509.960938 394.65625 511.070312 413.316406 C 509.722656 438.8125 506.910156 461.082031 503.0625 476.621094 Z M 508.875 265.441406 C 503.652344 236.160156 497.3125 221.910156 489.488281 221.910156 C 481.664062 221.910156 475.316406 236.003906 470.089844 265.097656 C 464.867188 294.191406 462.339844 329.765625 462.339844 374.09375 C 462.339844 417.9375 464.898438 453.433594 470.160156 482.683594 C 475.417969 511.933594 481.746094 526.273438 489.484375 526.273438 C 497.304688 526.273438 503.648438 512.042969 508.863281 482.761719 C 514.082031 453.480469 516.632812 417.953125 516.632812 374.09375 C 516.632812 330.234375 514.101562 294.707031 508.875 265.441406 Z M 503.0625 476.621094 C 499.148438 492.644531 494.625 500.652344 489.488281 500.640625 C 484.355469 500.632812 479.855469 492.625 475.996094 476.621094 C 472.210938 461.175781 469.429688 439.246094 468.0625 414.144531 C 469.304688 388.71875 472.082031 366.492188 475.921875 351.277344 C 479.835938 335.527344 484.359375 327.65625 489.496094 327.664062 C 495.875 327.664062 501.257812 339.671875 505.640625 363.679688 C 508.105469 377.675781 509.960938 394.65625 511.070312 413.316406 C 509.722656 438.8125 506.910156 461.082031 503.0625 476.621094 Z M 508.875 265.441406 C 503.652344 236.160156 497.3125 221.910156 489.488281 221.910156 C 481.664062 221.910156 475.316406 236.003906 470.089844 265.097656 C 464.867188 294.191406 462.339844 329.765625 462.339844 374.09375 C 462.339844 417.9375 464.898438 453.433594 470.160156 482.683594 C 475.417969 511.933594 481.746094 526.273438 489.484375 526.273438 C 497.304688 526.273438 503.648438 512.042969 508.863281 482.761719 C 514.082031 453.480469 516.632812 417.953125 516.632812 374.09375 C 516.632812 330.234375 514.101562 294.707031 508.875 265.441406 Z M 503.0625 476.621094 C 499.148438 492.644531 494.625 500.652344 489.488281 500.640625 C 484.355469 500.632812 479.855469 492.625 475.996094 476.621094 C 472.210938 461.175781 469.429688 439.246094 468.0625 414.144531 C 469.304688 388.71875 472.082031 366.492188 475.921875 351.277344 C 479.835938 335.527344 484.359375 327.65625 489.496094 327.664062 C 495.875 327.664062 501.257812 339.671875 505.640625 363.679688 C 508.105469 377.675781 509.960938 394.65625 511.070312 413.316406 C 509.722656 438.8125 506.910156 461.082031 503.0625 476.621094 Z M 508.875 265.441406 C 503.652344 236.160156 497.3125 221.910156 489.488281 221.910156 C 481.664062 221.910156 475.316406 236.003906 470.089844 265.097656 C 464.867188 294.191406 462.339844 329.765625 462.339844 374.09375 C 462.339844 417.9375 464.898438 453.433594 470.160156 482.683594 C 475.417969 511.933594 481.746094 526.273438 489.484375 526.273438 C 497.304688 526.273438 503.648438 512.042969 508.863281 482.761719 C 514.082031 453.480469 516.632812 417.953125 516.632812 374.09375 C 516.632812 330.234375 514.101562 294.707031 508.875 265.441406 Z M 503.0625 476.621094 C 499.148438 492.644531 494.625 500.652344 489.488281 500.640625 C 484.355469 500.632812 479.855469 492.625 475.996094 476.621094 C 472.210938 461.175781 469.429688 439.246094 468.0625 414.144531 C 469.304688 388.71875 472.082031 366.492188 475.921875 351.277344 C 479.835938 335.527344 484.359375 327.65625 489.496094 327.664062 C 495.875 327.664062 501.257812 339.671875 505.640625 363.679688 C 508.105469 377.675781 509.960938 394.65625 511.070312 413.316406 C 509.722656 438.8125 506.910156 461.082031 503.0625 476.621094 Z M 508.875 265.441406 C 503.652344 236.160156 497.3125 221.910156 489.488281 221.910156 C 481.664062 221.910156 475.316406 236.003906 470.089844 265.097656 C 464.867188 294.191406 462.339844 329.765625 462.339844 374.09375 C 462.339844 417.9375 464.898438 453.433594 470.160156 482.683594 C 475.417969 511.933594 481.746094 526.273438 489.484375 526.273438 C 497.304688 526.273438 503.648438 512.042969 508.863281 482.761719 C 514.082031 453.480469 516.632812 417.953125 516.632812 374.09375 C 516.632812 330.234375 514.101562 294.707031 508.875 265.441406 Z M 503.0625 476.621094 C 499.148438 492.644531 494.625 500.652344 489.488281 500.640625 C 484.355469 500.632812 479.855469 492.625 475.996094 476.621094 C 472.210938 461.175781 469.429688 439.246094 468.0625 414.144531 C 469.304688 388.71875 472.082031 366.492188 475.921875 351.277344 C 479.835938 335.527344 484.359375 327.65625 489.496094 327.664062 C 495.875 327.664062 501.257812 339.671875 505.640625 363.679688 C 508.105469 377.675781 509.960938 394.65625 511.070312 413.316406 C 509.722656 438.8125 506.910156 461.082031 503.0625 476.621094 Z M 508.875 265.441406 C 503.652344 236.160156 497.3125 221.910156 489.488281 221.910156 C 481.664062 221.910156 475.316406 236.003906 470.089844 265.097656 C 464.867188 294.191406 462.339844 329.765625 462.339844 374.09375 C 462.339844 417.9375 464.898438 453.433594 470.160156 482.683594 C 475.417969 511.933594 481.746094 526.273438 489.484375 526.273438 C 497.304688 526.273438 503.648438 512.042969 508.863281 482.761719 C 514.082031 453.480469 516.632812 417.953125 516.632812 374.09375 C 516.632812 330.234375 514.101562 294.707031 508.875 265.441406 Z M 503.0625 476.621094 C 499.148438 492.644531 494.625 500.652344 489.488281 500.640625 C 484.355469 500.632812 479.855469 492.625 475.996094 476.621094 C 472.210938 461.175781 469.429688 439.246094 468.0625 414.144531 C 469.304688 388.71875 472.082031 366.492188 475.921875 351.277344 C 479.835938 335.527344 484.359375 327.65625 489.496094 327.664062 C 495.875 327.664062 501.257812 339.671875 505.640625 363.679688 C 508.105469 377.675781 509.960938 394.65625 511.070312 413.316406 C 509.722656 438.8125 506.910156 461.082031 503.0625 476.621094 Z M 508.875 265.441406 C 503.652344 236.160156 497.3125 221.910156 489.488281 221.910156 C 481.664062 221.910156 475.316406 236.003906 470.089844 265.097656 C 464.867188 294.191406 462.339844 329.765625 462.339844 374.09375 C 462.339844 417.9375 464.898438 453.433594 470.160156 482.683594 C 475.417969 511.933594 481.746094 526.273438 489.484375 526.273438 C 497.304688 526.273438 503.648438 512.042969 508.863281 482.761719 C 514.082031 453.480469 516.632812 417.953125 516.632812 374.09375 C 516.632812 330.234375 514.101562 294.707031 508.875 265.441406 Z M 503.0625 476.621094 C 499.148438 492.644531 494.625 500.652344 489.488281 500.640625 C 484.355469 500.632812 479.855469 492.625 475.996094 476.621094 C 472.210938 461.175781 469.429688 439.246094 468.0625 414.144531 C 469.304688 388.71875 472.082031 366.492188 475.921875 351.277344 C 479.835938 335.527344 484.359375 327.65625 489.496094 327.664062 C 495.875 327.664062 501.257812 339.671875 505.640625 363.679688 C 508.105469 377.675781 509.960938 394.65625 511.070312 413.316406 C 509.722656 438.8125 506.910156 461.082031 503.0625 476.621094 Z M 549.929688 374.109375 C 549.929688 279.117188 544.09375 198.886719 532.421875 133.425781 C 520.753906 67.964844 506.445312 35.261719 489.488281 35.3125 C 472.53125 35.3125 458.222656 68.015625 446.558594 133.425781 C 434.894531 198.835938 429.0625 279.0625 429.066406 374.109375 C 429.066406 387.488281 429.210938 400.859375 429.496094 414.144531 C 429.210938 427.425781 429.066406 440.792969 429.066406 454.167969 C 429.066406 549.234375 434.902344 629.460938 446.570312 694.851562 C 458.238281 760.238281 472.550781 792.945312 489.5 792.964844 C 506.359375 792.964844 520.648438 760.125 532.363281 694.445312 C 544.078125 628.761719 549.9375 548.671875 549.941406 454.167969 C 549.941406 441.054688 549.796875 427.957031 549.507812 414.945312 C 549.792969 401.390625 549.933594 387.757812 549.929688 374.109375 Z M 529.179688 596.578125 C 518.453125 656.691406 505.101562 687.179688 489.488281 687.179688 C 473.875 687.179688 460.527344 656.722656 449.796875 596.578125 C 439.070312 536.4375 433.628906 461.558594 433.628906 374.0625 C 433.628906 286.5625 439.070312 211.703125 449.796875 151.574219 C 460.527344 91.445312 473.875 60.945312 489.488281 60.945312 C 505.105469 60.945312 518.453125 91.492188 529.183594 151.605469 C 539.910156 211.71875 545.347656 286.578125 545.347656 374.09375 C 545.347656 461.605469 539.910156 536.453125 529.179688 596.578125 Z M 489.488281 221.878906 C 481.667969 221.878906 475.316406 235.972656 470.089844 265.0625 C 464.867188 294.15625 462.339844 329.734375 462.339844 374.0625 C 462.339844 417.902344 464.898438 453.402344 470.160156 482.648438 C 475.417969 511.898438 481.746094 526.242188 489.484375 526.242188 C 497.304688 526.242188 503.648438 512.011719 508.863281 482.730469 C 514.082031 453.449219 516.632812 417.921875 516.632812 374.0625 C 516.632812 330.203125 514.09375 294.675781 508.871094 265.410156 C 503.648438 236.144531 497.3125 221.910156 489.488281 221.910156 Z M 503.0625 476.59375 C 499.148438 492.613281 494.625 500.621094 489.488281 500.609375 C 484.355469 500.601562 479.855469 492.605469 475.996094 476.621094 C 472.210938 461.175781 469.429688 439.246094 468.0625 414.144531 C 469.304688 388.71875 472.082031 366.492188 475.921875 351.277344 C 479.835938 335.527344 484.359375 327.65625 489.496094 327.664062 C 495.875 327.664062 501.257812 339.671875 505.640625 363.679688 C 508.105469 377.675781 509.960938 394.65625 511.070312 413.316406 C 509.722656 438.8125 506.910156 461.082031 503.0625 476.621094 Z M 508.875 265.410156 C 503.652344 236.128906 497.3125 221.878906 489.488281 221.878906 C 481.664062 221.878906 475.316406 235.972656 470.089844 265.0625 C 464.867188 294.15625 462.339844 329.734375 462.339844 374.0625 C 462.339844 417.902344 464.898438 453.402344 470.160156 482.648438 C 475.417969 511.898438 481.746094 526.242188 489.484375 526.242188 C 497.304688 526.242188 503.648438 512.011719 508.863281 482.730469 C 514.082031 453.449219 516.632812 417.921875 516.632812 374.0625 C 516.632812 330.203125 514.101562 294.707031 508.875 265.441406 Z M 503.0625 476.59375 C 499.148438 492.613281 494.625 500.621094 489.488281 500.609375 C 484.355469 500.601562 479.855469 492.605469 475.996094 476.621094 C 472.210938 461.175781 469.429688 439.246094 468.0625 414.144531 C 469.304688 388.71875 472.082031 366.492188 475.921875 351.277344 C 479.835938 335.527344 484.359375 327.65625 489.496094 327.664062 C 495.875 327.664062 501.257812 339.671875 505.640625 363.679688 C 508.105469 377.675781 509.960938 394.65625 511.070312 413.316406 C 509.722656 438.8125 506.910156 461.082031 503.0625 476.621094 Z M 508.875 265.410156 C 503.652344 236.128906 497.3125 221.878906 489.488281 221.878906 C 481.664062 221.878906 475.316406 235.972656 470.089844 265.0625 C 464.867188 294.15625 462.339844 329.734375 462.339844 374.0625 C 462.339844 417.902344 464.898438 453.402344 470.160156 482.648438 C 475.417969 511.898438 481.746094 526.242188 489.484375 526.242188 C 497.304688 526.242188 503.648438 512.011719 508.863281 482.730469 C 514.082031 453.449219 516.632812 417.921875 516.632812 374.0625 C 516.632812 330.203125 514.101562 294.707031 508.875 265.441406 Z M 503.0625 476.59375 C 499.148438 492.613281 494.625 500.621094 489.488281 500.609375 C 484.355469 500.601562 479.855469 492.605469 475.996094 476.621094 C 472.210938 461.175781 469.429688 439.246094 468.0625 414.144531 C 469.304688 388.71875 472.082031 366.492188 475.921875 351.277344 C 479.835938 335.527344 484.359375 327.65625 489.496094 327.664062 C 495.875 327.664062 501.257812 339.671875 505.640625 363.679688 C 508.105469 377.675781 509.960938 394.65625 511.070312 413.316406 C 509.722656 438.8125 506.910156 461.082031 503.0625 476.621094 Z M 508.875 265.410156 C 503.652344 236.128906 497.3125 221.878906 489.488281 221.878906 C 481.664062 221.878906 475.316406 235.972656 470.089844 265.0625 C 464.867188 294.15625 462.339844 329.734375 462.339844 374.0625 C 462.339844 417.902344 464.898438 453.402344 470.160156 482.648438 C 475.417969 511.898438 481.746094 526.242188 489.484375 526.242188 C 497.304688 526.242188 503.648438 512.011719 508.863281 482.730469 C 514.082031 453.449219 516.632812 417.921875 516.632812 374.0625 C 516.632812 330.203125 514.101562 294.707031 508.875 265.441406 Z M 503.0625 476.59375 C 499.148438 492.613281 494.625 500.621094 489.488281 500.609375 C 484.355469 500.601562 479.855469 492.605469 475.996094 476.621094 C 472.210938 461.175781 469.429688 439.246094 468.0625 414.144531 C 469.304688 388.71875 472.082031 366.492188 475.921875 351.277344 C 479.835938 335.527344 484.359375 327.65625 489.496094 327.664062 C 495.875 327.664062 501.257812 339.671875 505.640625 363.679688 C 508.105469 377.675781 509.960938 394.65625 511.070312 413.316406 C 509.722656 438.8125 506.910156 461.082031 503.0625 476.621094 Z M 508.875 265.410156 C 503.652344 236.128906 497.3125 221.878906 489.488281 221.878906 C 481.664062 221.878906 475.316406 235.972656 470.089844 265.0625 C 464.867188 294.15625 462.339844 329.734375 462.339844 374.0625 C 462.339844 417.902344 464.898438 453.402344 470.160156 482.648438 C 475.417969 511.898438 481.746094 526.242188 489.484375 526.242188 C 497.304688 526.242188 503.648438 512.011719 508.863281 482.730469 C 514.082031 453.449219 516.632812 417.921875 516.632812 374.0625 C 516.632812 330.203125 514.101562 294.707031 508.875 265.441406 Z M 503.0625 476.59375 C 499.148438 492.613281 494.625 500.621094 489.488281 500.609375 C 484.355469 500.601562 479.855469 492.605469 475.996094 476.621094 C 472.210938 461.175781 469.429688 439.246094 468.0625 414.144531 C 469.304688 388.71875 472.082031 366.492188 475.921875 351.277344 C 479.835938 335.527344 484.359375 327.65625 489.496094 327.664062 C 495.875 327.664062 501.257812 339.671875 505.640625 363.679688 C 508.105469 377.675781 509.960938 394.65625 511.070312 413.316406 C 509.722656 438.8125 506.910156 461.082031 503.0625 476.621094 Z M 508.875 265.410156 C 503.652344 236.128906 497.3125 221.878906 489.488281 221.878906 C 481.664062 221.878906 475.316406 235.972656 470.089844 265.0625 C 464.867188 294.15625 462.339844 329.734375 462.339844 374.0625 C 462.339844 417.902344 464.898438 453.402344 470.160156 482.648438 C 475.417969 511.898438 481.746094 526.242188 489.484375 526.242188 C 497.304688 526.242188 503.648438 512.011719 508.863281 482.730469 C 514.082031 453.449219 516.632812 417.921875 516.632812 374.0625 C 516.632812 330.203125 514.101562 294.707031 508.875 265.441406 Z M 503.0625 476.59375 C 499.148438 492.613281 494.625 500.621094 489.488281 500.609375 C 484.355469 500.601562 479.855469 492.605469 475.996094 476.621094 C 472.210938 461.175781 469.429688 439.246094 468.0625 414.144531 C 469.304688 388.71875 472.082031 366.492188 475.921875 351.277344 C 479.835938 335.527344 484.359375 327.65625 489.496094 327.664062 C 495.875 327.664062 501.257812 339.671875 505.640625 363.679688 C 508.105469 377.675781 509.960938 394.65625 511.070312 413.316406 C 509.722656 438.8125 506.910156 461.082031 503.0625 476.621094 Z M 508.875 265.410156 C 503.652344 236.128906 497.3125 221.878906 489.488281 221.878906 C 481.664062 221.878906 475.316406 235.972656 470.089844 265.0625 C 464.867188 294.15625 462.339844 329.734375 462.339844 374.0625 C 462.339844 417.902344 464.898438 453.402344 470.160156 482.648438 C 475.417969 511.898438 481.746094 526.242188 489.484375 526.242188 C 497.304688 526.242188 503.648438 512.011719 508.863281 482.730469 C 514.082031 453.449219 516.632812 417.921875 516.632812 374.0625 C 516.632812 330.203125 514.101562 294.707031 508.875 265.441406 Z M 503.0625 476.59375 C 499.148438 492.613281 494.625 500.621094 489.488281 500.609375 C 484.355469 500.601562 479.855469 492.605469 475.996094 476.621094 C 472.210938 461.175781 469.429688 439.246094 468.0625 414.144531 C 469.304688 388.71875 472.082031 366.492188 475.921875 351.277344 C 479.835938 335.527344 484.359375 327.65625 489.496094 327.664062 C 495.875 327.664062 501.257812 339.671875 505.640625 363.679688 C 508.105469 377.675781 509.960938 394.65625 511.070312 413.316406 C 509.722656 438.8125 506.910156 461.082031 503.0625 476.621094 Z M 508.875 265.410156 C 503.652344 236.128906 497.3125 221.878906 489.488281 221.878906 C 481.664062 221.878906 475.316406 235.972656 470.089844 265.0625 C 464.867188 294.15625 462.339844 329.734375 462.339844 374.0625 C 462.339844 417.902344 464.898438 453.402344 470.160156 482.648438 C 475.417969 511.898438 481.746094 526.242188 489.484375 526.242188 C 497.304688 526.242188 503.648438 512.011719 508.863281 482.730469 C 514.082031 453.449219 516.632812 417.921875 516.632812 374.0625 C 516.632812 330.203125 514.101562 294.707031 508.875 265.441406 Z M 503.0625 476.59375 C 499.148438 492.613281 494.625 500.621094 489.488281 500.609375 C 484.355469 500.601562 479.855469 492.605469 475.996094 476.621094 C 472.210938 461.175781 469.429688 439.246094 468.0625 414.144531 C 469.304688 388.71875 472.082031 366.492188 475.921875 351.277344 C 479.835938 335.527344 484.359375 327.65625 489.496094 327.664062 C 495.875 327.664062 501.257812 339.671875 505.640625 363.679688 C 508.105469 377.675781 509.960938 394.65625 511.070312 413.316406 C 509.722656 438.8125 506.910156 461.082031 503.0625 476.621094 Z M 508.875 265.410156 C 503.652344 236.128906 497.3125 221.878906 489.488281 221.878906 C 481.664062 221.878906 475.316406 235.972656 470.089844 265.0625 C 464.867188 294.15625 462.339844 329.734375 462.339844 374.0625 C 462.339844 417.902344 464.898438 453.402344 470.160156 482.648438 C 475.417969 511.898438 481.746094 526.242188 489.484375 526.242188 C 497.304688 526.242188 503.648438 512.011719 508.863281 482.730469 C 514.082031 453.449219 516.632812 417.921875 516.632812 374.0625 C 516.632812 330.203125 514.101562 294.707031 508.875 265.441406 Z M 503.0625 476.59375 C 499.148438 492.613281 494.625 500.621094 489.488281 500.609375 C 484.355469 500.601562 479.855469 492.605469 475.996094 476.621094 C 472.210938 461.175781 469.429688 439.246094 468.0625 414.144531 C 469.304688 388.71875 472.082031 366.492188 475.921875 351.277344 C 479.835938 335.527344 484.359375 327.65625 489.496094 327.664062 C 495.875 327.664062 501.257812 339.671875 505.640625 363.679688 C 508.105469 377.675781 509.960938 394.65625 511.070312 413.316406 C 509.722656 438.8125 506.910156 461.082031 503.0625 476.621094 Z M 508.875 265.410156 C 503.652344 236.128906 497.3125 221.878906 489.488281 221.878906 C 481.664062 221.878906 475.316406 235.972656 470.089844 265.0625 C 464.867188 294.15625 462.339844 329.734375 462.339844 374.0625 C 462.339844 417.902344 464.898438 453.402344 470.160156 482.648438 C 475.417969 511.898438 481.746094 526.242188 489.484375 526.242188 C 497.304688 526.242188 503.648438 512.011719 508.863281 482.730469 C 514.082031 453.449219 516.632812 417.921875 516.632812 374.0625 C 516.632812 330.203125 514.101562 294.707031 508.875 265.441406 Z M 503.0625 476.59375 C 499.148438 492.613281 494.625 500.621094 489.488281 500.609375 C 484.355469 500.601562 479.855469 492.605469 475.996094 476.621094 C 472.210938 461.175781 469.429688 439.246094 468.0625 414.144531 C 469.304688 388.71875 472.082031 366.492188 475.921875 351.277344 C 479.835938 335.527344 484.359375 327.65625 489.496094 327.664062 C 495.875 327.664062 501.257812 339.671875 505.640625 363.679688 C 508.105469 377.675781 509.960938 394.65625 511.070312 413.316406 C 509.722656 438.8125 506.910156 461.082031 503.0625 476.621094 Z M 508.875 265.410156 C 503.652344 236.128906 497.3125 221.878906 489.488281 221.878906 C 481.664062 221.878906 475.316406 235.972656 470.089844 265.0625 C 464.867188 294.15625 462.339844 329.734375 462.339844 374.0625 C 462.339844 417.902344 464.898438 453.402344 470.160156 482.648438 C 475.417969 511.898438 481.746094 526.242188 489.484375 526.242188 C 497.304688 526.242188 503.648438 512.011719 508.863281 482.730469 C 514.082031 453.449219 516.632812 417.921875 516.632812 374.0625 C 516.632812 330.203125 514.101562 294.707031 508.875 265.441406 Z M 503.0625 476.59375 C 499.148438 492.613281 494.625 500.621094 489.488281 500.609375 C 484.355469 500.601562 479.855469 492.605469 475.996094 476.621094 C 472.210938 461.175781 469.429688 439.246094 468.0625 414.144531 C 469.304688 388.71875 472.082031 366.492188 475.921875 351.277344 C 479.835938 335.527344 484.359375 327.65625 489.496094 327.664062 C 495.875 327.664062 501.257812 339.671875 505.640625 363.679688 C 508.105469 377.675781 509.960938 394.65625 511.070312 413.316406 C 509.722656 438.8125 506.910156 461.082031 503.0625 476.621094 Z M 503.0625 476.59375 "/>
</g>
<path style=" stroke:none;fill-rule:nonzero;fill:rgb(87.45098%,31.372549%,31.764706%);fill-opacity:1;" d="M 529.183594 151.605469 C 518.460938 91.496094 505.105469 60.976562 489.488281 60.976562 C 473.875 60.976562 460.523438 91.496094 449.796875 151.605469 C 439.074219 211.71875 433.632812 286.597656 433.632812 374.09375 C 433.632812 461.589844 439.070312 536.4375 449.796875 596.613281 C 460.527344 656.785156 473.878906 687.210938 489.488281 687.210938 C 505.101562 687.210938 518.453125 656.722656 529.179688 596.578125 C 539.910156 536.4375 545.347656 461.574219 545.347656 374.0625 C 545.347656 286.546875 539.910156 211.703125 529.183594 151.605469 Z M 508.871094 482.761719 C 503.652344 512.042969 497.316406 526.273438 489.488281 526.273438 C 481.75 526.273438 475.4375 512.042969 470.167969 482.683594 C 464.894531 453.324219 462.34375 417.921875 462.34375 374.09375 C 462.34375 329.765625 464.878906 294.113281 470.09375 265.097656 C 475.316406 236.082031 481.664062 221.910156 489.496094 221.910156 C 497.328125 221.910156 503.660156 236.160156 508.882812 265.441406 C 514.105469 294.722656 516.644531 330.265625 516.644531 374.09375 C 516.644531 417.921875 514.101562 453.511719 508.871094 482.761719 Z M 508.871094 482.761719 "/>
<g clip-path="url(#clip3)" clip-rule="nonzero">
<path style=" stroke:none;fill-rule:nonzero;fill:rgb(100%,100%,100%);fill-opacity:1;" d="M 637.882812 516.019531 L 637.785156 250.753906 C 637.785156 190.96875 633.738281 139.714844 625.644531 96.988281 C 617.832031 55.894531 608.546875 35.332031 597.777344 35.3125 C 586.542969 35.3125 577.039062 57.070312 569.273438 100.589844 C 561.507812 144.109375 557.628906 197.375 557.632812 260.382812 L 557.632812 685.644531 C 557.632812 716.0625 559.417969 741.292969 562.988281 761.335938 C 566.558594 781.378906 571.058594 791.382812 576.492188 791.351562 C 581.917969 791.351562 586.441406 781.347656 590.066406 761.335938 C 593.6875 741.324219 595.496094 716.09375 595.492188 685.644531 L 595.492188 340.460938 C 595.492188 331.910156 596.257812 327.664062 597.777344 327.664062 C 599.207031 327.664062 599.925781 331.910156 599.925781 340.460938 L 600.015625 551.171875 L 600.070312 696.054688 L 600.070312 696.164062 C 600.410156 722.523438 602.199219 744.6875 605.453125 762.648438 C 609.074219 782.660156 613.605469 792.667969 619.046875 792.667969 C 619.15625 792.667969 619.261719 792.667969 619.367188 792.667969 C 624.65625 792.292969 629.054688 782.296875 632.570312 762.683594 C 634.496094 752.046875 635.960938 739.078125 636.855469 724.773438 C 637.589844 712.609375 637.953125 699.835938 637.933594 686.988281 L 637.933594 647.734375 Z M 633.335938 609.96875 C 633.222656 631.527344 631.832031 650.398438 629.308594 664.472656 C 626.640625 679.410156 623.183594 686.972656 619.042969 686.972656 C 614.972656 686.972656 611.414062 679.257812 608.746094 664.644531 C 606.28125 651.304688 604.859375 633.40625 604.640625 612.972656 C 604.605469 610.640625 604.601562 608.558594 604.601562 606.929688 L 604.601562 543.34375 L 604.5 260.476562 C 604.519531 255.402344 604.351562 250.367188 604 245.679688 C 603.65625 240.992188 603.140625 236.761719 602.488281 233.246094 C 601.890625 229.597656 601.160156 226.703125 600.351562 224.757812 C 599.539062 222.808594 598.667969 221.855469 597.78125 221.957031 C 596.878906 221.878906 595.980469 222.820312 595.140625 224.726562 C 594.300781 226.628906 593.539062 229.460938 592.898438 233.046875 C 592.257812 236.632812 591.753906 240.902344 591.414062 245.605469 C 591.074219 250.304688 590.90625 255.34375 590.917969 260.414062 L 590.917969 605.550781 C 590.917969 628.585938 589.488281 648.566406 586.773438 663.328125 C 584.0625 678.097656 580.628906 685.597656 576.492188 685.597656 C 572.363281 685.597656 568.90625 678.019531 566.238281 663.0625 C 563.601562 648.363281 562.210938 628.476562 562.210938 605.550781 L 562.210938 260.367188 C 562.210938 204.246094 565.65625 156.476562 572.445312 118.363281 C 579.230469 80.25 587.769531 60.976562 597.78125 60.976562 C 607.164062 60.976562 615.472656 79.375 622.476562 115.640625 C 629.601562 152.453125 633.214844 197.9375 633.214844 250.753906 L 633.335938 609.480469 Z M 633.335938 609.96875 "/>
</g>
<path style=" stroke:none;fill-rule:nonzero;fill:rgb(87.45098%,31.372549%,31.764706%);fill-opacity:1;" d="M 633.335938 609.480469 L 633.335938 609.90625 C 633.222656 631.464844 631.832031 650.335938 629.3125 664.410156 C 626.640625 679.351562 623.183594 686.910156 619.042969 686.910156 C 614.972656 686.910156 611.414062 679.191406 608.746094 664.585938 C 606.285156 651.242188 604.859375 633.347656 604.640625 612.910156 C 604.605469 610.578125 604.601562 608.496094 604.601562 606.867188 L 604.601562 543.34375 L 604.503906 260.476562 C 604.519531 255.402344 604.351562 250.367188 604 245.679688 C 603.65625 240.992188 603.140625 236.761719 602.488281 233.246094 C 601.890625 229.597656 601.164062 226.703125 600.351562 224.757812 C 599.539062 222.808594 598.667969 221.855469 597.78125 221.957031 C 596.878906 221.878906 595.980469 222.820312 595.140625 224.726562 C 594.300781 226.628906 593.539062 229.460938 592.898438 233.046875 C 592.257812 236.632812 591.753906 240.902344 591.414062 245.605469 C 591.074219 250.304688 590.90625 255.34375 590.921875 260.414062 L 590.921875 605.550781 C 590.921875 628.585938 589.488281 648.566406 586.777344 663.332031 C 584.0625 678.097656 580.628906 685.597656 576.496094 685.597656 C 572.363281 685.597656 568.90625 678.019531 566.238281 663.0625 C 563.601562 648.363281 562.210938 628.476562 562.210938 605.550781 L 562.210938 260.367188 C 562.210938 204.246094 565.65625 156.476562 572.445312 118.363281 C 579.230469 80.25 587.769531 60.976562 597.78125 60.976562 C 607.164062 60.976562 615.476562 79.375 622.476562 115.640625 C 629.601562 152.453125 633.214844 197.9375 633.214844 250.753906 Z M 633.335938 609.480469 "/>
<path style=" stroke:none;fill-rule:nonzero;fill:rgb(87.45098%,31.372549%,31.764706%);fill-opacity:1;" d="M 250.261719 119.777344 C 243.460938 81.695312 234.933594 62.390625 224.921875 62.390625 C 217.804688 62.0625 210.839844 74.09375 204.988281 96.835938 C 199.140625 74.09375 192.175781 62.058594 185.058594 62.390625 C 175.046875 62.390625 166.519531 81.695312 159.71875 119.777344 C 152.921875 157.855469 149.488281 205.660156 149.488281 261.78125 L 149.488281 606.964844 C 149.488281 629.996094 150.921875 649.976562 153.621094 664.683594 C 156.324219 679.382812 159.792969 687.011719 163.914062 687.011719 C 168.03125 687.011719 171.503906 679.433594 174.167969 664.511719 C 176.832031 649.585938 178.199219 629.886719 178.199219 606.964844 L 178.199219 261.78125 C 178.234375 251.714844 178.972656 242.128906 180.253906 235.078125 C 181.539062 228.03125 183.261719 224.085938 185.058594 224.085938 C 186.855469 224.085938 188.582031 228.03125 189.863281 235.078125 C 191.144531 242.128906 191.886719 251.714844 191.921875 261.78125 L 191.921875 606.964844 C 191.921875 629.886719 193.320312 649.773438 195.945312 664.476562 C 198.347656 677.945312 201.386719 685.398438 204.988281 686.761719 C 208.59375 685.398438 211.632812 677.945312 214.035156 664.476562 C 216.667969 649.773438 218.058594 629.886719 218.058594 606.964844 L 218.058594 261.78125 C 218.042969 256.664062 218.203125 251.578125 218.542969 246.820312 C 218.878906 242.0625 219.378906 237.730469 220.019531 234.074219 C 220.660156 230.421875 221.421875 227.519531 222.261719 225.535156 C 223.105469 223.554688 224.007812 222.53125 224.921875 222.53125 C 225.835938 222.53125 226.738281 223.554688 227.578125 225.535156 C 228.421875 227.519531 229.183594 230.421875 229.824219 234.074219 C 230.460938 237.730469 230.964844 242.0625 231.300781 246.820312 C 231.636719 251.578125 231.800781 256.664062 231.78125 261.78125 L 231.78125 606.964844 C 231.78125 629.886719 233.179688 649.773438 235.8125 664.511719 C 238.449219 679.242188 241.929688 687.011719 246.070312 687.011719 C 250.207031 687.011719 253.652344 679.492188 256.359375 664.683594 C 259.066406 649.867188 260.492188 629.996094 260.492188 606.964844 L 260.492188 261.78125 C 260.492188 205.660156 257.050781 157.886719 250.261719 119.777344 Z M 250.261719 119.777344 "/>
<g clip-path="url(#clip4)" clip-rule="nonzero">
<path style=" stroke:none;fill-rule:nonzero;fill:rgb(100%,100%,100%);fill-opacity:1;" d="M 253.433594 101.398438 C 245.671875 57.902344 236.171875 36.140625 224.941406 36.121094 C 217.949219 35.808594 211.066406 45.960938 205.007812 65.527344 C 198.945312 45.945312 192.058594 35.792969 185.0625 36.121094 C 173.824219 36.121094 164.324219 57.878906 156.570312 101.398438 C 148.8125 144.917969 144.929688 198.183594 144.914062 261.191406 L 144.914062 686.453125 C 144.914062 716.871094 146.726562 742.101562 150.34375 762.144531 C 153.960938 782.1875 158.484375 792.191406 163.917969 792.160156 C 169.34375 792.160156 173.847656 782.152344 177.417969 762.144531 C 180.992188 742.132812 182.777344 716.902344 182.773438 686.453125 L 182.773438 341.347656 C 182.773438 332.796875 183.539062 328.554688 185.0625 328.554688 C 186.585938 328.554688 187.351562 332.796875 187.351562 341.347656 L 187.351562 686.453125 C 187.351562 716.871094 189.136719 742.101562 192.707031 762.144531 C 196.011719 780.640625 200.109375 790.585938 204.996094 791.972656 C 209.882812 790.5625 213.980469 780.621094 217.285156 762.144531 C 220.851562 742.101562 222.632812 716.871094 222.632812 686.453125 L 222.632812 341.347656 C 222.632812 332.796875 223.398438 328.554688 224.921875 328.554688 C 226.445312 328.554688 227.207031 332.796875 227.207031 341.347656 L 227.207031 686.453125 C 227.207031 716.871094 228.992188 742.101562 232.5625 762.144531 C 236.132812 782.1875 240.632812 792.191406 246.066406 792.160156 C 251.496094 792.160156 256.019531 782.152344 259.640625 762.144531 C 263.261719 742.132812 265.070312 716.902344 265.066406 686.453125 L 265.066406 261.191406 C 265.070312 198.203125 261.191406 144.941406 253.433594 101.398438 Z M 260.496094 606.359375 C 260.496094 629.394531 259.0625 649.375 256.363281 664.074219 C 253.664062 678.78125 250.191406 686.40625 246.074219 686.40625 C 241.953125 686.40625 238.484375 678.824219 235.816406 663.902344 C 233.152344 648.980469 231.789062 629.285156 231.789062 606.359375 L 231.789062 261.175781 C 231.75 251.109375 231.011719 241.523438 229.730469 234.476562 C 228.445312 227.429688 226.722656 223.480469 224.925781 223.480469 C 223.128906 223.480469 221.402344 227.429688 220.121094 234.476562 C 218.839844 241.523438 218.097656 251.109375 218.0625 261.175781 L 218.0625 606.359375 C 218.0625 629.285156 216.667969 649.171875 214.039062 663.875 C 211.636719 677.339844 208.597656 684.792969 204.992188 686.152344 C 201.390625 684.792969 198.351562 677.339844 195.949219 663.875 C 193.316406 649.171875 191.925781 629.285156 191.925781 606.359375 L 191.925781 261.175781 C 191.945312 256.058594 191.78125 250.972656 191.445312 246.214844 C 191.105469 241.460938 190.605469 237.125 189.964844 233.472656 C 189.328125 229.816406 188.5625 226.914062 187.722656 224.933594 C 186.878906 222.949219 185.976562 221.929688 185.0625 221.929688 C 184.152344 221.929688 183.246094 222.949219 182.40625 224.933594 C 181.5625 226.914062 180.800781 229.816406 180.160156 233.472656 C 179.523438 237.125 179.019531 241.460938 178.683594 246.214844 C 178.347656 250.972656 178.183594 256.058594 178.203125 261.175781 L 178.203125 606.359375 C 178.203125 629.285156 176.804688 649.171875 174.171875 663.902344 C 171.535156 678.636719 168.054688 686.40625 163.917969 686.40625 C 159.777344 686.40625 156.332031 678.890625 153.625 664.074219 C 150.917969 649.265625 149.492188 629.394531 149.492188 606.359375 L 149.492188 261.175781 C 149.492188 205.058594 152.9375 157.285156 159.722656 119.171875 C 166.511719 81.058594 175.050781 61.785156 185.0625 61.785156 C 192.179688 61.449219 199.144531 73.484375 204.992188 96.234375 C 210.84375 73.484375 217.808594 61.449219 224.925781 61.785156 C 234.9375 61.785156 243.464844 81.089844 250.265625 119.171875 C 257.0625 157.253906 260.496094 205.121094 260.496094 261.175781 Z M 260.496094 606.359375 "/>
</g>
<path style=" stroke:none;fill-rule:nonzero;fill:rgb(69.019608%,81.176471%,42.352941%);fill-opacity:1;" d="M 124.367188 675.613281 C 126.601562 663.195312 128.695312 649.902344 130.613281 635.886719 C 134.464844 601.925781 136.546875 557.738281 136.378906 504.925781 C 135.796875 325.261719 109.34375 113.515625 77.289062 32.015625 C 62.722656 -5.046875 49.503906 -8.820312 39.472656 14.964844 C 37.292969 21.164062 35.179688 28.007812 33.132812 35.460938 C 27.3125 56.566406 22.085938 82.355469 17.609375 111.902344 C 12.550781 145.207031 8.453125 183.289062 5.53125 224.828125 C 5.253906 228.714844 4.996094 232.628906 4.75 236.574219 C 4.402344 241.898438 4.085938 247.285156 3.785156 252.71875 C 3.746094 253.34375 3.710938 254.003906 3.675781 254.660156 C 3.421875 259.277344 3.183594 263.960938 2.960938 268.675781 C 2.816406 271.679688 2.683594 274.71875 2.550781 277.757812 C 2.492188 279.070312 2.4375 280.355469 2.382812 281.652344 C 2.15625 287.210938 1.945312 292.851562 1.757812 298.503906 C 1.046875 319.828125 0.628906 341.75 0.535156 364.1875 C 0.515625 367.945312 0.511719 371.71875 0.511719 375.492188 C 0.511719 377.433594 0.511719 379.375 0.519531 381.351562 C 0.519531 381.632812 0.519531 381.914062 0.523438 382.195312 C 0.535156 385.453125 0.554688 388.660156 0.582031 391.886719 L 0.582031 391.933594 C 0.890625 433.898438 2.320312 474.3125 4.695312 512.21875 C 5.398438 523.464844 6.1875 534.441406 7.050781 545.210938 C 7.699219 553.292969 8.394531 561.246094 9.136719 569.042969 C 12.546875 605.136719 16.871094 638.113281 21.929688 666.984375 C 25.476562 687.199219 29.375 705.347656 33.574219 721.179688 C 34.363281 724.121094 35.15625 727.035156 35.957031 729.777344 C 39.574219 742.347656 43.390625 753.121094 47.378906 762 C 49.003906 765.648438 50.660156 768.984375 52.339844 771.929688 C 52.429688 772.085938 52.523438 772.257812 52.613281 772.410156 C 58.753906 783.1875 65.234375 789.496094 71.917969 790.703125 C 72.425781 790.808594 72.929688 790.875 73.441406 790.921875 C 73.714844 790.9375 73.992188 790.9375 74.269531 790.9375 C 75.082031 790.9375 75.890625 790.875 76.695312 790.703125 C 78.265625 790.386719 79.828125 789.824219 81.371094 788.976562 C 98.105469 779.789062 113.058594 738.386719 124.320312 675.800781 C 124.335938 675.738281 124.347656 675.675781 124.367188 675.613281 Z M 124.367188 675.613281 "/>
<g clip-path="url(#clip5)" clip-rule="nonzero">
<path style=" stroke:none;fill-rule:nonzero;fill:rgb(44.705882%,62.745098%,36.078431%);fill-opacity:1;" d="M 123.851562 677.585938 C 112.585938 740.296875 97.613281 781.792969 80.859375 790.996094 C 79.316406 791.84375 77.753906 792.425781 76.179688 792.722656 C 75.378906 792.894531 74.570312 792.957031 73.757812 792.957031 C 73.480469 792.957031 73.199219 792.957031 72.925781 792.941406 C 72.421875 792.894531 71.914062 792.828125 71.40625 792.722656 C 64.71875 791.515625 58.242188 785.222656 52.101562 774.433594 C 52.011719 774.277344 51.917969 774.105469 51.828125 773.949219 C 50.148438 771.003906 48.492188 767.667969 46.863281 764.019531 C 42.878906 755.140625 39.0625 744.355469 35.445312 731.796875 C 34.644531 729.039062 33.851562 726.140625 33.0625 723.199219 C 28.867188 707.382812 24.964844 689.21875 21.417969 669.007812 C 16.359375 640.132812 12.035156 607.15625 8.625 571.0625 C 7.878906 563.265625 7.1875 555.3125 6.535156 547.230469 C 5.671875 536.460938 4.886719 525.46875 4.183594 514.238281 C 1.808594 476.332031 0.382812 435.917969 0.0703125 393.953125 L 0.0703125 393.90625 C 0.0429688 390.683594 0.0234375 387.472656 0.0117188 384.214844 C 0.0078125 383.933594 0.0078125 383.652344 0.0078125 383.371094 C 0 381.410156 0 379.46875 0 377.515625 C 0 373.738281 0.00390625 369.964844 0.0234375 366.207031 C 0.113281 343.769531 0.535156 321.847656 1.246094 300.523438 C 1.433594 294.871094 1.640625 289.230469 1.871094 283.675781 C 1.921875 282.359375 1.980469 281.074219 2.035156 279.777344 C 2.167969 276.738281 2.304688 273.714844 2.449219 270.695312 C 2.671875 265.980469 2.90625 261.3125 3.164062 256.679688 C 3.195312 256.023438 3.234375 255.363281 3.269531 254.738281 C 3.570312 249.304688 3.890625 243.917969 4.238281 238.59375 C 4.484375 234.648438 4.742188 230.734375 5.015625 226.851562 C 7.9375 185.292969 12.035156 147.214844 17.097656 113.921875 C 21.570312 84.375 26.800781 58.585938 32.621094 37.480469 C 26.261719 64.476562 21.933594 106.203125 20.398438 160.273438 C 20.253906 165.359375 20.132812 170.589844 20.035156 175.914062 C 20.007812 177.621094 19.976562 179.3125 19.957031 181.050781 C 19.824219 190.070312 19.765625 199.402344 19.789062 208.984375 C 19.785156 209.90625 19.789062 210.816406 19.792969 211.738281 C 19.800781 214.714844 19.8125 217.675781 19.839844 220.664062 C 19.839844 220.683594 19.839844 220.710938 19.839844 220.726562 C 19.839844 220.949219 19.839844 221.164062 19.84375 221.386719 C 19.988281 239.296875 20.386719 257.476562 21.019531 275.8125 C 21.210938 281.402344 21.425781 286.992188 21.664062 292.601562 C 21.789062 295.652344 21.917969 298.691406 22.058594 301.742188 C 23.5 333.324219 25.59375 365.078125 28.246094 396.144531 C 28.246094 396.144531 28.246094 396.144531 28.246094 396.160156 C 29.589844 411.976562 31.082031 427.605469 32.699219 443.011719 C 33.589844 451.480469 34.519531 459.84375 35.488281 468.128906 C 39.070312 498.847656 43.167969 528.175781 47.660156 555.265625 C 51.546875 578.722656 55.730469 600.453125 60.140625 619.949219 C 61.636719 626.589844 63.160156 632.929688 64.703125 638.972656 C 67.519531 650.074219 70.410156 660.160156 73.363281 669.226562 C 74.207031 671.824219 75.0625 674.328125 75.914062 676.726562 C 76.894531 679.496094 77.882812 682.144531 78.871094 684.648438 C 79.699219 686.761719 80.523438 688.765625 81.34375 690.675781 C 83.636719 695.953125 85.890625 700.433594 88.105469 704.078125 C 88.90625 705.394531 89.699219 706.617188 90.488281 707.699219 C 104.007812 726.753906 115.714844 714.882812 123.851562 677.585938 Z M 123.851562 677.585938 "/>
</g>
<path style=" stroke:none;fill-rule:nonzero;fill:rgb(69.019608%,81.176471%,42.352941%);fill-opacity:1;" d="M 78.871094 684.679688 C 46.8125 603.160156 20.359375 391.433594 19.785156 211.738281 C 19.527344 132.351562 24.367188 72.492188 32.617188 37.464844 C 34.664062 30.042969 36.773438 23.183594 38.957031 16.984375 C 48.988281 -6.816406 62.207031 -3.027344 76.773438 34.019531 C 108.824219 115.535156 135.277344 327.28125 135.859375 506.960938 C 136.03125 559.773438 133.945312 603.960938 130.097656 637.90625 C 128.175781 651.921875 126.085938 665.199219 123.847656 677.617188 C 113.453125 725.21875 97.234375 731.402344 78.871094 684.679688 Z M 78.871094 684.679688 "/>
<path style=" stroke:none;fill-rule:nonzero;fill:rgb(94.901961%,67.45098%,67.45098%);fill-opacity:1;" d="M 24.03125 211.332031 C 23.824219 142.46875 27.648438 89.199219 35.089844 57.207031 C 36.953125 50.476562 38.867188 44.289062 40.789062 38.792969 C 50.066406 17.125 62.238281 23.152344 75.09375 55.847656 C 89.898438 93.503906 103.953125 161.476562 114.671875 247.28125 C 125.335938 332.664062 131.359375 424.894531 131.621094 506.988281 L 131.621094 507.410156 C 131.761719 553.699219 130.078125 592.875 126.617188 623.878906 C 124.894531 636.34375 123.007812 648.351562 120.996094 659.578125 C 111.429688 702.714844 96.703125 703.9375 80.5625 662.867188 C 65.757812 625.207031 51.699219 557.21875 40.980469 471.445312 C 30.3125 386.074219 24.296875 293.835938 24.035156 211.722656 Z M 24.03125 211.332031 "/>
<path style=" stroke:none;fill-rule:nonzero;fill:rgb(91.764706%,49.803922%,50.196078%);fill-opacity:1;" d="M 28.273438 211.335938 C 28.089844 150.738281 31.304688 104.292969 37.566406 76.925781 C 39.21875 70.988281 40.914062 65.507812 42.609375 60.625 C 50.785156 41.898438 61.710938 47.925781 73.402344 77.660156 C 87.507812 113.53125 100.941406 178.609375 111.214844 260.859375 C 121.390625 342.285156 127.128906 429.703125 127.378906 507.007812 L 127.378906 507.398438 C 127.503906 548.484375 126.070312 582.964844 123.121094 609.882812 C 121.59375 620.890625 119.921875 631.523438 118.148438 641.496094 C 109.84375 678.136719 96.777344 677.992188 82.25 641.042969 C 68.136719 605.152344 54.707031 540.09375 44.433594 457.839844 C 34.257812 376.417969 28.519531 288.996094 28.273438 211.695312 Z M 28.273438 211.335938 "/>
<path style=" stroke:none;fill-rule:nonzero;fill:rgb(87.843137%,31.764706%,31.764706%);fill-opacity:1;" d="M 102.609375 642.421875 C 97.113281 642.421875 90.75 633.621094 84.199219 616.960938 C 70.847656 583 58.09375 521.101562 48.296875 442.671875 C 38.65625 365.523438 33.21875 283.316406 32.992188 211.226562 L 32.992188 210.914062 C 32.882812 174.992188 34.070312 126.5 40.304688 98.535156 C 41.703125 93.539062 43.140625 88.90625 44.582031 84.722656 C 47.0625 79.214844 49.910156 76.425781 53.054688 76.425781 C 58.570312 76.425781 64.933594 85.195312 71.457031 101.777344 C 84.804688 135.722656 97.554688 197.621094 107.355469 276.050781 C 116.992188 353.214844 122.429688 435.421875 122.664062 507.511719 L 122.664062 507.902344 C 122.769531 543.195312 121.617188 572.445312 119.234375 594.851562 C 117.929688 604.152344 116.511719 613.15625 115.011719 621.675781 C 111.777344 635.4375 107.609375 642.421875 102.609375 642.421875 Z M 102.609375 642.421875 "/>
<path style=" stroke:none;fill-rule:nonzero;fill:rgb(87.45098%,22.745098%,22.745098%);fill-opacity:1;" d="M 102.605469 615.953125 C 97.777344 615.953125 92.089844 607.96875 86.148438 592.859375 C 73.554688 560.820312 61.484375 502.089844 52.164062 427.492188 C 43.054688 354.605469 37.925781 277.628906 37.710938 210.734375 L 37.710938 210.503906 C 37.621094 180.953125 38.484375 141.511719 43.066406 120.011719 C 44.203125 116.003906 45.367188 112.246094 46.527344 108.832031 C 48.40625 104.855469 50.597656 102.851562 53.046875 102.851562 C 57.898438 102.851562 63.585938 110.804688 69.5 125.851562 C 82.089844 157.875 94.160156 216.609375 103.484375 291.21875 C 112.589844 364.109375 117.722656 441.101562 117.9375 507.976562 L 117.9375 508.367188 C 118.027344 537.867188 117.144531 561.917969 115.320312 579.894531 C 114.253906 587.394531 113.105469 594.707031 111.898438 601.65625 C 109.535156 611.148438 106.410156 615.953125 102.605469 615.953125 Z M 102.605469 615.953125 "/>
<g clip-path="url(#clip6)" clip-rule="nonzero">
<path style=" stroke:none;fill-rule:nonzero;fill:rgb(69.019608%,81.176471%,42.352941%);fill-opacity:1;" d="M 94.714844 749.359375 C 94.546875 750.519531 94.296875 751.035156 94.054688 751.394531 C 93.101562 752.820312 92.09375 752.398438 91.058594 751.191406 C 87.921875 747.605469 84.574219 737.132812 81.960938 750.066406 C 81.878906 750.457031 81.792969 750.957031 81.773438 751.617188 C 81.746094 752.617188 81.890625 753.449219 82.019531 754.058594 C 82.507812 756.234375 84.851562 763.6875 84.015625 769.417969 C 83.804688 770.84375 83.484375 771.265625 83.1875 771.675781 C 81.871094 773.285156 80.558594 774.960938 79.246094 776.714844 C 79.457031 782.601562 80.066406 787.785156 80.859375 791.011719 C 79.3125 791.855469 77.753906 792.4375 76.179688 792.734375 C 75.378906 792.90625 74.566406 792.96875 73.753906 792.96875 C 73.480469 792.96875 73.199219 792.96875 72.925781 792.953125 C 72.421875 792.90625 71.914062 792.84375 71.40625 792.734375 C 64.71875 791.527344 58.242188 785.234375 52.101562 774.445312 C 52.011719 774.289062 51.917969 774.117188 51.828125 773.960938 C 51.523438 767.757812 51.246094 755.765625 51.550781 753.449219 C 51.9375 750.550781 52.523438 749.140625 53.089844 747.902344 C 54.046875 745.761719 55.054688 743.597656 56.054688 744.726562 C 59.507812 748.5625 60.347656 762.730469 62.890625 739.636719 C 63.742188 731.917969 64.863281 729.285156 65.945312 723.710938 C 66.527344 720.707031 66.980469 723.085938 67.113281 718.171875 C 67.277344 712.1875 65.878906 701.855469 65.445312 697.203125 C 65.40625 696.796875 65.367188 696.324219 65.375 695.824219 C 65.390625 694.761719 65.59375 694.371094 65.761719 694.226562 C 67.78125 692.679688 69.78125 695.824219 71.796875 694.226562 C 73.792969 692.632812 75.019531 688.230469 75.871094 677.441406 C 75.890625 677.207031 75.90625 676.988281 75.917969 676.738281 C 76.898438 679.511719 77.882812 682.15625 78.871094 684.660156 C 79.703125 686.777344 80.527344 688.78125 81.34375 690.691406 C 83.636719 695.964844 85.894531 700.445312 88.109375 704.09375 C 88.910156 705.40625 89.703125 706.628906 90.492188 707.710938 C 91.558594 718.8125 93.003906 727.785156 94.34375 738.261719 C 94.757812 741.484375 95.15625 746.308594 94.714844 749.359375 Z M 94.714844 749.359375 "/>
</g>
<path style=" stroke:none;fill-rule:nonzero;fill:rgb(69.019608%,81.176471%,42.352941%);fill-opacity:1;" d="M 53.285156 618.09375 C 55.636719 632.734375 56.210938 631.875 55.726562 637.039062 C 55.003906 644.761719 50.953125 641.769531 49.75 641.863281 C 50.53125 647.078125 51.304688 652.292969 52.085938 657.523438 C 52.171875 658.101562 52.265625 658.742188 52.277344 659.492188 C 52.316406 661.46875 51.855469 662.390625 51.503906 662.5625 C 50.332031 663.128906 49.148438 662.941406 47.984375 662.015625 C 48.507812 664.945312 48.558594 670.125 48.09375 673.351562 C 47.550781 677.140625 46.5625 677.625 45.695312 677.265625 C 44.835938 676.90625 43.917969 676.058594 43.136719 678.15625 C 40.351562 685.628906 45.917969 703.792969 40.96875 710.429688 C 39.941406 711.808594 38.746094 712.964844 37.9375 709.179688 C 37.640625 707.785156 37.433594 705.84375 37.136719 704.433594 C 35.171875 695.132812 35.667969 732.570312 35.449219 731.820312 C 34.648438 729.046875 33.855469 726.164062 33.070312 723.207031 C 28.871094 707.378906 24.96875 689.230469 21.425781 669.015625 C 21.914062 669.109375 22.898438 669.40625 23.558594 670.503906 C 24.464844 671.988281 25.195312 673.570312 25.585938 667.214844 C 25.773438 664.238281 25.324219 662.171875 25.605469 659.824219 C 26.246094 654.46875 28.832031 656.597656 29.726562 656.582031 C 30.003906 656.582031 30.292969 656.566406 30.546875 655.890625 C 32.253906 651.304688 30.792969 634.410156 32.59375 628.066406 C 33.136719 626.15625 33.757812 624.953125 34.265625 622.742188 C 36.539062 612.847656 34.371094 604.863281 34.53125 593.933594 C 34.710938 581.847656 38.652344 579.84375 40.082031 583.269531 C 42.394531 588.8125 43.167969 590.003906 44.066406 575.207031 C 44.394531 569.742188 46.019531 557.84375 47.03125 555.773438 C 47.191406 555.414062 47.441406 555.289062 47.664062 555.273438 C 51.550781 578.730469 55.734375 600.460938 60.144531 619.941406 C 57.070312 623.605469 53.285156 618.09375 53.285156 618.09375 Z M 53.285156 618.09375 "/>
<path style=" stroke:none;fill-rule:nonzero;fill:rgb(69.019608%,81.176471%,42.352941%);fill-opacity:1;" d="M 8.636719 571.082031 L 13.332031 574.355469 C 13.332031 574.355469 13.289062 568.121094 13.015625 564.425781 C 12.164062 552.855469 14.820312 560.386719 15.167969 551.039062 C 15.269531 548.269531 15.148438 545.417969 15.101562 542.585938 C 15.054688 539.765625 15.105469 536.617188 15.460938 534.613281 C 16.355469 529.617188 18.101562 536.289062 19.082031 531.824219 C 19.453125 530.136719 19.582031 527.332031 19.796875 524.9375 C 20.933594 512.160156 23.859375 514.664062 25.679688 520.628906 C 25.679688 520.628906 28.121094 505.472656 27.355469 499.507812 C 26.503906 492.882812 25.371094 489.988281 26.675781 482.972656 C 26.851562 482.035156 32.023438 465.136719 31.511719 464.167969 C 32.328125 465.71875 33.140625 468.394531 34 469.273438 C 34.632812 469.914062 35.21875 476.851562 35.496094 468.113281 C 34.527344 459.8125 33.597656 451.453125 32.703125 442.980469 C 31.085938 427.589844 29.589844 411.964844 28.25 396.132812 C 28.597656 402.910156 28.714844 402.285156 28.355469 404.242188 C 27.816406 407.203125 27.644531 415.1875 26.71875 409.851562 C 25.789062 404.542969 26 403.554688 25.335938 403.351562 C 24.671875 403.164062 24.917969 399.074219 24.03125 406.09375 C 23.160156 412.980469 23.71875 415.546875 23.425781 417.378906 C 23.324219 418.007812 23.320312 418.773438 23.21875 419.371094 C 22.082031 418.101562 21.03125 414.1875 20.667969 407.753906 C 19.980469 418.933594 20.039062 431.488281 20.832031 442.449219 C 20.117188 439.539062 18.117188 427.386719 17.273438 434.574219 C 17.019531 436.71875 17.003906 439.445312 17 442.011719 C 16.984375 446.929688 16.972656 451.859375 16.960938 456.777344 C 16.128906 453.863281 15.296875 450.96875 14.464844 448.054688 C 14.238281 447.257812 13.945312 446.457031 13.722656 447.289062 C 13.519531 448.039062 13.507812 449.667969 13.519531 451.046875 C 13.558594 455.007812 13.65625 459.0625 13.523438 462.820312 C 12.546875 462.023438 11.402344 464.933594 11.242188 470.914062 C 11.136719 474.847656 11.503906 483.550781 10.910156 486.542969 C 9.230469 495.046875 6.6875 473.484375 5.9375 493.761719 C 5.835938 496.503906 5.757812 499.351562 5.882812 502.058594 C 6.097656 506.664062 8.753906 515.449219 6.203125 514.898438 C 5.296875 514.679688 4.65625 514.398438 4.183594 514.226562 C 4.1875 514.242188 8.628906 571.082031 8.636719 571.082031 Z M 8.636719 571.082031 "/>
<path style=" stroke:none;fill-rule:nonzero;fill:rgb(69.019608%,81.176471%,42.352941%);fill-opacity:1;" d="M 19.761719 219.339844 C 19.65625 217.914062 18.878906 211.804688 19.109375 210.570312 C 19.148438 210.335938 19.472656 209.566406 19.789062 209.003906 C 19.785156 209.929688 19.789062 210.835938 19.792969 211.761719 C 19.800781 214.734375 19.816406 217.695312 19.839844 220.683594 C 19.824219 220.199219 19.796875 219.761719 19.761719 219.339844 Z M 19.761719 219.339844 "/>
<path style=" stroke:none;fill-rule:nonzero;fill:rgb(69.019608%,81.176471%,42.352941%);fill-opacity:1;" d="M 20.609375 291.777344 C 20.804688 297.257812 20.894531 302.863281 20.863281 308.515625 C 20.855469 310.113281 20.726562 312.242188 20.335938 312.554688 C 20.179688 312.710938 20.03125 312.445312 19.894531 312.164062 C 18.648438 309.722656 17.523438 306.121094 16.109375 304.851562 C 16.394531 305.089844 16.050781 328.058594 15.757812 331.078125 C 15.589844 332.863281 15.183594 334.617188 14.726562 334.839844 C 14.363281 334.992188 14.058594 334.210938 13.78125 333.445312 C 13.050781 331.457031 12.34375 329.214844 11.535156 327.914062 C 12.109375 340.550781 12.121094 350.824219 11.25 364.433594 C 11.535156 360 8.144531 354.550781 7.316406 357.292969 C 6.292969 360.71875 7.152344 370.757812 6.171875 375.3125 C 4.542969 382.847656 3.820312 370.882812 2.640625 370.289062 C 0.882812 369.441406 1.34375 373.902344 0.363281 379.433594 C -0.121094 382.15625 0.0390625 381.28125 0.585938 389.0625 C 0.398438 387.417969 0.207031 385.804688 0.0195312 384.222656 C 0.015625 383.941406 0.015625 383.660156 0.015625 383.378906 C 0.0078125 381.421875 0.0078125 379.476562 0.0078125 377.523438 C 0.0078125 373.746094 0.0117188 369.972656 0.03125 366.214844 C 0.121094 343.777344 0.539062 321.855469 1.253906 300.53125 C 1.441406 294.878906 1.648438 289.238281 1.878906 283.683594 C 2.070312 283.007812 2.253906 282.226562 2.441406 281.351562 C 3.371094 276.855469 3.078125 273.769531 2.457031 270.703125 C 2.675781 265.988281 2.914062 261.320312 3.171875 256.6875 C 3.203125 256.03125 3.242188 255.371094 3.277344 254.746094 C 3.578125 249.3125 3.898438 243.925781 4.246094 238.601562 C 5.433594 239.480469 7.234375 239.839844 7.476562 239.636719 C 9.226562 238.148438 10.863281 232.777344 11.453125 225.511719 C 11.65625 223.070312 11.734375 220.53125 11.992188 218.121094 C 12.933594 209.351562 15.53125 214.835938 17.035156 210.261719 C 18.121094 206.988281 18.089844 200.773438 17.90625 195.886719 C 17.804688 193.179688 17.570312 188.449219 17.984375 185.566406 C 18.417969 182.515625 19.265625 182.171875 19.960938 181.074219 C 19.828125 190.09375 19.769531 199.425781 19.792969 209.007812 C 19.789062 209.933594 19.792969 210.839844 19.796875 211.765625 C 19.804688 214.738281 19.816406 217.699219 19.84375 220.691406 C 19.84375 220.707031 19.84375 220.734375 19.84375 220.753906 C 19.84375 220.972656 19.84375 221.191406 19.847656 221.410156 C 19.992188 239.320312 20.390625 257.503906 21.023438 275.839844 C 21.214844 281.429688 21.429688 287.019531 21.667969 292.625 C 21.289062 292.730469 20.914062 292.464844 20.609375 291.777344 Z M 20.609375 291.777344 "/>
<path style=" stroke:none;fill-rule:nonzero;fill:rgb(10.980392%,11.372549%,11.372549%);fill-opacity:1;" d="M 102.601562 532.050781 L 102.402344 561.769531 C 102.386719 563.804688 102.601562 565.683594 102.925781 566.40625 C 103.910156 568.550781 105.960938 570.960938 106.691406 556.289062 C 106.773438 554.691406 106.679688 552.941406 106.464844 551.828125 Z M 102.601562 532.050781 "/>
<path style=" stroke:none;fill-rule:nonzero;fill:rgb(10.980392%,11.372549%,11.372549%);fill-opacity:1;" d="M 84.761719 263.59375 L 89.476562 253.855469 C 89.800781 253.179688 90.011719 251.332031 89.992188 249.296875 C 89.933594 243.097656 89.5 230.976562 86.921875 232.308594 C 86.636719 232.449219 86.402344 233.609375 86.316406 235.191406 Z M 84.761719 263.59375 "/>
<path style=" stroke:none;fill-rule:nonzero;fill:rgb(10.980392%,11.372549%,11.372549%);fill-opacity:1;" d="M 70.375 199.695312 L 73.664062 177.554688 C 73.890625 176.035156 73.921875 173.796875 73.738281 172.042969 C 73.183594 166.734375 71.816406 157.277344 69.691406 165.859375 C 69.460938 166.796875 69.347656 168.488281 69.402344 170.148438 Z M 70.375 199.695312 "/>
<path style=" stroke:none;fill-rule:nonzero;fill:rgb(10.980392%,11.372549%,11.372549%);fill-opacity:1;" d="M 54.597656 174.589844 L 53.902344 145.042969 C 53.855469 143.007812 53.589844 141.378906 53.246094 141.035156 C 52.214844 139.957031 50.128906 139.753906 49.855469 155.003906 C 49.824219 156.664062 49.972656 158.292969 50.21875 159.167969 Z M 54.597656 174.589844 "/>
<path style=" stroke:none;fill-rule:nonzero;fill:rgb(10.980392%,11.372549%,11.372549%);fill-opacity:1;" d="M 50.222656 254.675781 L 46.300781 235.664062 C 46.035156 234.363281 45.652344 234.222656 45.371094 235.351562 C 44.507812 238.765625 42.988281 247.078125 44.554688 259.480469 C 44.726562 260.84375 45.019531 261.453125 45.292969 261.09375 Z M 50.222656 254.675781 "/>
<path style=" stroke:none;fill-rule:nonzero;fill:rgb(10.980392%,11.372549%,11.372549%);fill-opacity:1;" d="M 68.449219 435.410156 L 64.183594 450.675781 C 63.890625 451.726562 63.75 453.792969 63.839844 455.78125 C 64.105469 461.808594 64.949219 473.195312 67.417969 468.761719 C 67.6875 468.277344 67.878906 466.867188 67.910156 465.191406 Z M 68.449219 435.410156 "/>
<path style=" stroke:none;fill-rule:nonzero;fill:rgb(10.980392%,11.372549%,11.372549%);fill-opacity:1;" d="M 83.148438 504.648438 L 80.351562 529.074219 C 80.160156 530.75 80.175781 532.988281 80.394531 534.601562 C 81.054688 539.488281 82.605469 547.878906 84.53125 537.796875 C 84.738281 536.699219 84.816406 534.933594 84.726562 533.316406 Z M 83.148438 504.648438 "/>
<path style=" stroke:none;fill-rule:nonzero;fill:rgb(10.980392%,11.372549%,11.372549%);fill-opacity:1;" d="M 58.3125 344.910156 L 53.304688 342.359375 C 52.960938 342.1875 52.636719 343.347656 52.515625 345.257812 C 52.140625 351.019531 51.710938 363.058594 54.175781 368.054688 C 54.441406 368.605469 54.738281 368.132812 54.929688 366.898438 Z M 58.3125 344.910156 "/>
<path style=" stroke:none;fill-rule:nonzero;fill:rgb(10.980392%,11.372549%,11.372549%);fill-opacity:1;" d="M 105.160156 441.015625 L 109.042969 460.304688 C 109.308594 461.636719 109.6875 461.792969 109.972656 460.683594 C 110.84375 457.328125 112.375 449.125 110.835938 436.613281 C 110.667969 435.253906 110.375 434.609375 110.101562 434.953125 Z M 105.160156 441.015625 "/>
<path style=" stroke:none;fill-rule:nonzero;fill:rgb(10.980392%,11.372549%,11.372549%);fill-opacity:1;" d="M 97.246094 354.179688 L 102.265625 354.164062 C 102.609375 354.164062 102.910156 352.835938 103.007812 350.875 C 103.292969 344.941406 103.550781 332.714844 101.023438 328.96875 C 100.746094 328.5625 100.460938 329.191406 100.289062 330.507812 Z M 97.246094 354.179688 "/>
</g>
</svg>
