<svg width="64" height="69" viewBox="0 0 64 69" fill="none" xmlns="http://www.w3.org/2000/svg">
<path fill-rule="evenodd" clip-rule="evenodd" d="M23.4599 7.76609C19.338 7.76609 15.8143 10.7326 15.1117 14.7941L7.80543 57.0294C7.54078 58.5593 8.71865 59.9584 10.2712 59.9584C11.4901 59.9584 12.5616 59.0755 12.7891 57.8442C12.8992 57.2482 13.0119 56.6393 13.1257 56.0251C13.7904 52.4351 14.4888 48.6627 14.8921 46.2166C15.1488 44.6591 16.0459 40.2826 17.1121 37.4738C18.6549 32.7974 21.1886 29.4053 23.6948 27.1507C24.95 26.0216 26.2233 25.1551 27.3988 24.5516C28.4429 24.0155 29.8169 23.4748 31.1914 23.4748C34.2738 23.4748 37.0371 25.0545 39.0064 26.7024C41.0342 28.3992 42.7972 30.6434 43.7924 32.9066C44.116 33.6424 44.3709 34.3967 44.5627 35.0332C46.753 34.3069 48.8172 33.4236 50.5546 32.3993C52.6545 31.1614 54.0117 29.8739 54.6983 28.6629C57.3301 24.0212 56.421 19.0723 53.0557 14.9445C49.6191 10.7294 43.8475 7.76609 37.7826 7.76609H23.4599ZM50.4953 41.0921C51.8801 40.5027 53.2303 39.8371 54.4986 39.0894C57.2232 37.4832 59.841 35.3383 61.4541 32.4933C65.9885 24.4958 64.0155 16.0971 59.0748 10.0372C54.2054 4.06458 46.2472 0 37.7826 0H23.4599C15.5597 0 8.80596 5.68573 7.45931 13.4703L0.152995 55.7056C-0.93298 61.9833 3.90034 67.7245 10.2712 67.7245C15.2683 67.7245 19.5242 64.1362 20.426 59.255C20.5342 58.6692 20.6457 58.0669 20.7588 57.4562C21.4216 53.8769 22.1377 50.0094 22.5547 47.4798C22.7905 46.0496 23.6045 42.2184 24.3947 40.1723C24.4197 40.1076 24.443 40.0422 24.4645 39.9761C25.5552 36.6278 27.3114 34.3434 28.8887 32.9244C29.684 32.209 30.4095 31.7357 30.9456 31.4604C31.1567 31.3521 31.3061 31.2903 31.3968 31.2564C31.945 31.333 32.8833 31.705 34.0225 32.6583C35.2616 33.6952 36.2323 35.007 36.6833 36.0328C36.9975 36.7471 37.0882 37.1041 37.2187 37.6171C37.3008 37.94 37.3986 38.3248 37.5777 38.8993C38.0471 40.4052 38.7925 41.795 40.385 43.3873C41.6282 44.6305 42.8529 45.4465 43.8846 46.0871C44.1499 46.2518 44.389 46.3976 44.6093 46.532C45.3018 46.9545 45.8082 47.2633 46.3582 47.6891C47.8359 48.833 49.0222 50.3593 49.4378 51.6521C49.7024 52.4754 49.7335 53.6966 49.3976 55.0662C49.0617 56.4359 48.4565 57.5512 47.9004 58.1678C45.8448 60.4476 42.0936 61.0004 39.3504 60.6014C37.2282 60.2928 35.2576 61.7629 34.9489 63.8852C34.6403 66.0074 36.1104 67.978 38.2327 68.2867C42.1186 68.8518 49.0945 68.4405 53.668 63.3685C55.2526 61.6112 56.3649 59.2616 56.9402 56.9162C57.5154 54.5707 57.6514 51.8267 56.8313 49.2754C55.7847 46.0199 53.3709 43.2966 51.1122 41.5481C50.908 41.39 50.7014 41.238 50.4953 41.0921Z" fill="url(#paint0_linear_10748_18036)"/>
<mask id="mask0_10748_18036" style="mask-type:alpha" maskUnits="userSpaceOnUse" x="0" y="0" width="64" height="69">
<path fill-rule="evenodd" clip-rule="evenodd" d="M23.4599 7.76609C19.338 7.76609 15.8143 10.7326 15.1117 14.7941L7.80543 57.0294C7.54078 58.5593 8.71865 59.9584 10.2712 59.9584C11.4901 59.9584 12.5616 59.0755 12.7891 57.8442C12.8992 57.2482 13.0119 56.6393 13.1257 56.0251C13.7904 52.4351 14.4888 48.6627 14.8921 46.2166C15.1488 44.6591 16.0459 40.2826 17.1121 37.4738C18.6549 32.7974 21.1886 29.4053 23.6948 27.1507C24.95 26.0216 26.2233 25.1551 27.3988 24.5516C28.4429 24.0155 29.8169 23.4748 31.1914 23.4748C34.2738 23.4748 37.0371 25.0545 39.0064 26.7024C41.0342 28.3992 42.7972 30.6434 43.7924 32.9066C44.116 33.6424 44.3709 34.3967 44.5627 35.0332C46.753 34.3069 48.8172 33.4236 50.5546 32.3993C52.6545 31.1614 54.0117 29.8739 54.6983 28.6629C57.3301 24.0212 56.421 19.0723 53.0557 14.9445C49.6191 10.7294 43.8475 7.76609 37.7826 7.76609H23.4599ZM50.4953 41.0921C51.8801 40.5027 53.2303 39.8371 54.4986 39.0894C57.2232 37.4832 59.841 35.3383 61.4541 32.4933C65.9885 24.4958 64.0155 16.0971 59.0748 10.0372C54.2054 4.06458 46.2472 0 37.7826 0H23.4599C15.5597 0 8.80596 5.68573 7.45931 13.4703L0.152995 55.7056C-0.93298 61.9833 3.90034 67.7245 10.2712 67.7245C15.2683 67.7245 19.5242 64.1362 20.426 59.255C20.5342 58.6692 20.6457 58.0669 20.7588 57.4562C21.4216 53.8769 22.1377 50.0094 22.5547 47.4798C22.7905 46.0496 23.6045 42.2184 24.3947 40.1723C24.4197 40.1076 24.443 40.0422 24.4645 39.9761C25.5552 36.6278 27.3114 34.3434 28.8887 32.9244C29.684 32.209 30.4095 31.7357 30.9456 31.4604C31.1567 31.3521 31.3061 31.2903 31.3968 31.2564C31.945 31.333 32.8833 31.705 34.0225 32.6583C35.2616 33.6952 36.2323 35.007 36.6834 36.0328C36.9975 36.7471 37.0882 37.1041 37.2187 37.6171C37.3008 37.94 37.3986 38.3248 37.5777 38.8993C38.0471 40.4052 38.7925 41.795 40.385 43.3873C41.6282 44.6305 42.8529 45.4465 43.8846 46.0871C44.1499 46.2518 44.389 46.3976 44.6093 46.532C45.3018 46.9545 45.8082 47.2633 46.3582 47.6891C47.8359 48.833 49.0222 50.3593 49.4378 51.6521C49.7024 52.4754 49.7335 53.6966 49.3976 55.0662C49.0617 56.4359 48.4565 57.5512 47.9004 58.1678C45.8448 60.4475 42.0936 61.0004 39.3504 60.6014C37.2282 60.2928 35.2576 61.7629 34.9489 63.8852C34.6403 66.0074 36.1104 67.978 38.2327 68.2867C42.1186 68.8518 49.0945 68.4405 53.668 63.3685C55.2526 61.6112 56.3649 59.2616 56.9402 56.9162C57.5154 54.5707 57.6514 51.8267 56.8313 49.2754C55.7847 46.0199 53.3709 43.2966 51.1122 41.5481C50.908 41.39 50.7014 41.238 50.4953 41.0921Z" fill="url(#paint1_linear_10748_18036)"/>
</mask>
<g mask="url(#mask0_10748_18036)">
<path d="M44.6055 35.2114C43.8995 33.3582 43.1935 31.3284 42.0462 29.8281L33.8389 32.7404L37.6337 43.4188L46.9 51.0084L56.6959 49.2434C56.5194 48.7727 55.9899 47.496 55.2839 46.1546C54.4014 44.4778 52.946 43.2872 51.7538 42.095C50.5183 40.8595 48.312 39.977 47.0765 38.918C45.6551 37.6996 45.3115 37.0647 44.6055 35.2114Z" fill="url(#paint2_radial_10748_18036)"/>
<path d="M26.956 20.1203L44.5179 -3.97224L12.8358 -5.03125L4.45194 2.64659L1.2749 26.1214L26.956 20.1203Z" fill="url(#paint3_linear_10748_18036)"/>
<g filter="url(#filter0_f_10748_18036)">
<path fill-rule="evenodd" clip-rule="evenodd" d="M54.6971 20.0521C52.2332 12.9276 45.4904 8.17618 37.9523 8.25251L21.7424 8.41666C18.9621 8.44482 16.5973 10.452 16.1178 13.1908L8.80939 54.9332C8.44841 56.995 9.84738 58.9002 11.8296 59.2481C11.9824 58.4052 12.151 57.4634 12.3312 56.4565C12.8174 53.7411 13.3883 50.5519 13.9633 47.5502C14.3887 45.3294 14.8181 43.2013 15.2195 41.4318C15.6167 39.6806 15.9982 38.2266 16.3335 37.3881C17.2305 35.1456 18.8759 31.5289 21.3653 28.4607C23.8507 25.3975 27.2733 22.7686 31.7207 22.7686C37.6687 22.7686 42.8905 27.7919 44.9318 34.4229L49.8686 31.9389C54.2283 29.7454 56.2922 24.6644 54.6971 20.0521ZM12.4819 60.0988L13.2632 60.2419C13.4501 59.221 13.6644 58.0239 13.8977 56.7211C14.3829 54.0105 14.9502 50.842 15.5235 47.849C15.9475 45.6351 16.373 43.5272 16.7686 41.7832C17.1684 40.0209 17.5261 38.684 17.8084 37.9781C18.6841 35.789 20.2589 32.3456 22.5989 29.4616C24.9429 26.5726 27.9588 24.3572 31.7207 24.3572C36.9658 24.3572 41.9481 29.0879 43.6595 35.7623L43.9045 36.718L50.5826 33.3579C55.6531 30.8067 58.0535 24.8973 56.1983 19.5329C53.5112 11.7629 46.1574 6.58082 37.9362 6.66407L21.7263 6.82823C18.1805 6.86413 15.1647 9.42398 14.5531 12.9169L7.24468 54.6592C6.67501 57.9129 9.17877 60.8931 12.4819 60.8931V60.0988Z" fill="white" fill-opacity="0.25"/>
</g>
<g filter="url(#filter1_f_10748_18036)">
<path fill-rule="evenodd" clip-rule="evenodd" d="M9.68612 -0.000976562L40.6778 0.280766C51.149 0.375958 60.2007 7.61121 62.6005 17.8041L62.8825 19.0017C65.0762 28.3189 59.926 37.7799 50.9514 41.0148C51.5702 41.5612 52.4315 42.3795 53.248 43.2745C54.1674 44.2823 55.0458 45.4042 55.4467 46.3517C55.9338 47.5031 56.6435 49.3434 57.1209 51.2197C57.3596 52.1579 57.5413 53.109 57.6071 53.99C57.6728 54.8689 57.6242 55.6902 57.3925 56.3621C56.9471 57.6538 55.9927 59.8061 54.7498 61.7925C54.1281 62.7861 53.4317 63.7423 52.6877 64.5297C51.945 65.3157 51.1461 65.9428 50.3178 66.2649C48.7146 66.8884 44.7476 67.9741 41.2192 68.196C39.4578 68.3068 37.7813 68.2043 36.5603 67.7033C35.9471 67.4517 35.4393 67.0958 35.0972 66.607C34.7537 66.1161 34.5875 65.5057 34.6337 64.7657C34.7226 63.3432 34.9568 62.3706 35.3108 61.7119C35.6698 61.0438 36.1498 60.7037 36.7034 60.5473C37.2438 60.3945 37.8467 60.4198 38.4442 60.4554C38.4923 60.4583 38.5403 60.4612 38.5884 60.4642C39.1481 60.4984 39.7075 60.5326 40.2565 60.4541C40.8926 60.3633 41.5983 60.3864 42.3067 60.4125L42.3699 60.4148C43.0638 60.4405 43.7623 60.4663 44.4335 60.3981C45.123 60.3281 45.772 60.1596 46.3423 59.7973C46.9106 59.4363 47.4129 58.875 47.7977 57.9986C48.0845 57.3454 48.3606 56.7679 48.6088 56.2486C48.7053 56.0467 48.7977 55.8536 48.8848 55.6683C49.1976 55.0027 49.4426 54.4384 49.5871 53.9084C49.7307 53.3818 49.774 52.8928 49.6842 52.3788C49.5941 51.8632 49.3682 51.3113 48.9574 50.6627C48.1381 49.369 46.9259 48.3704 45.7189 47.5364C45.228 47.1972 44.7411 46.8874 44.2829 46.5958C44.178 46.529 44.0745 46.4632 43.9729 46.3981C43.4304 46.0512 42.9364 45.726 42.552 45.4094C41.9526 44.9158 41.5495 44.5933 41.2894 44.391C41.1593 44.2897 41.0657 44.2191 41.0015 44.1723C40.9834 44.1591 40.9684 44.1484 40.9561 44.1397C40.0904 44.3606 38.6893 44.668 37.1975 44.8983C35.6646 45.1348 34.0223 45.292 32.765 45.1843C30.3522 44.9775 25.7316 44.4183 23.5661 44.1451L19.5423 64.0889C19.5353 64.6176 19.2257 65.8085 18.0598 66.6829C16.9144 67.542 15.9599 67.8859 15.6027 67.9509L15.5871 67.9537H2.49964L2.48936 67.9525C1.97827 67.8924 1.19056 67.7351 0.48175 67.4561C0.127238 67.3165 -0.214038 67.144 -0.49229 66.9334C-0.769819 66.7233 -0.995777 66.4667 -1.09925 66.1562C-1.46601 65.056 -1.25589 63.7602 -1.10409 63.2367L9.68612 -0.000976562ZM50.6068 40.9489L50.5496 40.7819C59.5296 37.7059 64.7143 28.3222 62.5389 19.0826L62.2569 17.885C59.8944 7.85038 50.9832 0.72747 40.6746 0.633756L9.98353 0.354746L-0.759561 63.3163L-0.762479 63.3262C-0.904651 63.8096 -1.10124 65.034 -0.764364 66.0446C-0.691338 66.2637 -0.523844 66.4667 -0.279221 66.6519C-0.0353203 66.8366 0.274256 66.995 0.611043 67.1276C1.28017 67.391 2.03106 67.5423 2.52043 67.6007H15.5545C15.8597 67.5402 16.7527 67.2219 17.848 66.4005C18.9278 65.5907 19.1894 64.4929 19.1894 64.0707V64.053L23.2849 43.7537L23.4477 43.7743C25.5367 44.0391 30.3283 44.6211 32.7952 44.8326C34.009 44.9366 35.6172 44.785 37.1437 44.5494C38.6671 44.3143 40.0954 43.9978 40.9433 43.7785L41.0073 43.762L41.0664 43.7915C41.097 43.8069 41.147 43.8415 41.2095 43.8871C41.2777 43.9368 41.3745 44.0099 41.5062 44.1124C41.7698 44.3174 42.1756 44.6421 42.7764 45.1369C43.1422 45.4381 43.619 45.7528 44.1631 46.1008C44.2635 46.165 44.3662 46.2303 44.4706 46.2968C44.929 46.5886 45.4227 46.9027 45.9195 47.246C47.1394 48.0888 48.3982 49.1199 49.2557 50.4738C49.6832 51.1489 49.9317 51.7443 50.0319 52.3181C50.1324 52.8934 50.0819 53.4358 49.9277 54.0013C49.7744 54.5635 49.5175 55.1519 49.2042 55.8184C49.1154 56.0074 49.022 56.2027 48.9249 56.406C48.6774 56.9237 48.4052 57.493 48.1209 58.1405C47.7114 59.0733 47.1658 59.6924 46.5316 60.0953C45.8995 60.4969 45.1916 60.6759 44.4691 60.7493C43.7732 60.82 43.0529 60.7933 42.3662 60.7679L42.2937 60.7653C41.5791 60.7389 40.9058 60.718 40.3064 60.8036C39.72 60.8874 39.1253 60.8508 38.572 60.8169C38.522 60.8138 38.4724 60.8107 38.4232 60.8078C37.8182 60.7717 37.2738 60.7529 36.7994 60.887C36.3381 61.0173 35.9356 61.295 35.6217 61.879C35.3028 62.4724 35.0736 63.3861 34.986 64.7877C34.944 65.4596 35.095 65.9882 35.3864 66.4046C35.6793 66.8232 36.1244 67.1429 36.6943 67.3767C37.8395 67.8466 39.4504 67.9536 41.197 67.8437C44.6845 67.6244 48.6159 66.548 50.1898 65.9359C50.95 65.6403 51.7066 65.054 52.4311 64.2873C53.1542 63.522 53.8367 62.5863 54.4506 61.6053C55.6786 59.6425 56.6217 57.5146 57.0588 56.247C57.2684 55.6393 57.319 54.8721 57.2551 54.0163C57.1913 53.1626 57.0144 52.2329 56.7788 51.3067C56.3075 49.4545 55.6052 47.6323 55.1216 46.4892C54.7458 45.6011 53.9034 44.5167 52.9872 43.5124C52.0748 42.5123 51.1049 41.6083 50.492 41.0829L50.6068 40.9489Z" fill="white" fill-opacity="0.17"/>
</g>
<path d="M55.813 63.7246L44.3584 57.0107L31.6181 59.0541C30.9168 62.8814 29.5142 70.7499 29.5142 71.6062C29.5142 72.4624 42.9947 70.7305 49.735 69.7574L55.813 63.7246Z" fill="url(#paint4_linear_10748_18036)"/>
<path d="M11.5422 49.2451L-1.99075 48.5378L0.656835 61.7755C3.47141 66.1203 9.25382 71.7369 10.0997 72.4538C10.9457 73.1708 19.3388 68.3561 27.6662 56.5813L11.5422 49.2451Z" fill="url(#paint5_linear_10748_18036)"/>
<path d="M46.1064 38.0371C44.9592 36.7133 44.6062 34.9483 44.6062 34.9483C46.3713 34.3305 50.7718 31.2032 51.1367 31.4182C51.593 31.687 58.6611 36.3345 59.2558 36.8898C59.7316 37.334 53.4313 40.3316 51.1367 40.9494L50.519 41.1259C50.519 41.1259 47.2537 39.3608 46.1064 38.0371Z" fill="url(#paint6_linear_10748_18036)" fill-opacity="0.32"/>
</g>
<defs>
<filter id="filter0_f_10748_18036" x="-9.83643" y="-10.3369" width="83.6587" height="88.2305" filterUnits="userSpaceOnUse" color-interpolation-filters="sRGB">
<feFlood flood-opacity="0" result="BackgroundImageFix"/>
<feBlend mode="normal" in="SourceGraphic" in2="BackgroundImageFix" result="shape"/>
<feGaussianBlur stdDeviation="8.5" result="effect1_foregroundBlur_10748_18036"/>
</filter>
<filter id="filter1_f_10748_18036" x="-14.3032" y="-13.001" width="90.6895" height="94.2373" filterUnits="userSpaceOnUse" color-interpolation-filters="sRGB">
<feFlood flood-opacity="0" result="BackgroundImageFix"/>
<feBlend mode="normal" in="SourceGraphic" in2="BackgroundImageFix" result="shape"/>
<feGaussianBlur stdDeviation="6.5" result="effect1_foregroundBlur_10748_18036"/>
</filter>
<linearGradient id="paint0_linear_10748_18036" x1="12.6587" y1="6.35408" x2="56.2637" y2="62.3385" gradientUnits="userSpaceOnUse">
<stop stop-color="#6B59DF" stop-opacity="0.67"/>
<stop offset="0.523857" stop-color="#3EBAD9" stop-opacity="0.67"/>
<stop offset="1" stop-color="#C692F9" stop-opacity="0.79"/>
</linearGradient>
<linearGradient id="paint1_linear_10748_18036" x1="12.6587" y1="6.35408" x2="56.2637" y2="62.3385" gradientUnits="userSpaceOnUse">
<stop stop-color="#6B59DF"/>
<stop offset="0.523857" stop-color="#3EBAD9"/>
<stop offset="1" stop-color="#C692F9"/>
</linearGradient>
<radialGradient id="paint2_radial_10748_18036" cx="0" cy="0" r="1" gradientUnits="userSpaceOnUse" gradientTransform="translate(48.0473 36.8) rotate(147.995) scale(8.32559 8.69487)">
<stop stop-color="white" stop-opacity="0.23"/>
<stop offset="1" stop-color="white" stop-opacity="0"/>
</radialGradient>
<linearGradient id="paint3_linear_10748_18036" x1="9.2175" y1="-2.82497" x2="20.6901" y2="12.7955" gradientUnits="userSpaceOnUse">
<stop stop-color="#7113E8" stop-opacity="0.86"/>
<stop offset="1" stop-color="#5F6FD8" stop-opacity="0"/>
</linearGradient>
<linearGradient id="paint4_linear_10748_18036" x1="31.9852" y1="64.4238" x2="50.0472" y2="61.7015" gradientUnits="userSpaceOnUse">
<stop stop-color="#FFD7B1" stop-opacity="0.76"/>
<stop offset="1" stop-color="#D9D9D9" stop-opacity="0"/>
</linearGradient>
<linearGradient id="paint5_linear_10748_18036" x1="-5.78551" y1="68.5708" x2="5.39518" y2="53.4583" gradientUnits="userSpaceOnUse">
<stop stop-color="#94FFD2" stop-opacity="0.76"/>
<stop offset="1" stop-color="#487B7E" stop-opacity="0"/>
</linearGradient>
<linearGradient id="paint6_linear_10748_18036" x1="45.8686" y1="38.4001" x2="52.4463" y2="31.9302" gradientUnits="userSpaceOnUse">
<stop/>
<stop offset="1" stop-color="#3E3E3E" stop-opacity="0"/>
</linearGradient>
</defs>
</svg>
